<?xml version="1.0" encoding="UTF-8" standalone="no"?>
<!DOCTYPE svg PUBLIC "-//W3C//DTD SVG 1.1//EN" "http://www.w3.org/Graphics/SVG/1.1/DTD/svg11.dtd">
<svg xmlns="http://www.w3.org/2000/svg" version="1.1" viewBox="0.00 0.00 512.00 512.00">
<path fill="#000000" d="
  M 512.00 254.84
  L 512.00 257.28
  Q 510.34 276.34 495.23 287.21
  Q 485.27 294.36 472.25 294.37
  Q 402.77 294.37 333.28 294.49
  A 0.97 0.97 0.0 0 0 332.48 294.94
  L 205.08 498.77
  Q 204.80 499.21 204.28 499.21
  L 153.81 499.20
  A 0.17 0.16 7.9 0 1 153.65 498.99
  L 217.49 294.75
  A 0.25 0.25 0.0 0 0 217.25 294.43
  L 77.24 294.43
  A 0.90 0.89 -71.1 0 0 76.53 294.78
  L 38.82 345.05
  Q 38.42 345.58 37.76 345.58
  L 0.57 345.59
  A 0.43 0.43 0.0 0 1 0.16 345.04
  L 25.45 256.50
  A 1.74 1.74 0.0 0 0 25.45 255.50
  L 0.16 166.96
  A 0.42 0.42 0.0 0 1 0.56 166.42
  L 37.88 166.42
  A 1.10 1.09 70.7 0 1 38.74 166.84
  L 76.52 217.20
  A 0.88 0.87 -18.1 0 0 77.22 217.55
  L 217.00 217.55
  A 0.43 0.42 -8.5 0 0 217.41 217.00
  L 153.72 13.22
  Q 153.59 12.79 154.03 12.79
  L 204.50 12.79
  A 0.55 0.54 73.9 0 1 204.96 13.05
  L 332.56 217.19
  Q 332.80 217.58 333.26 217.58
  Q 402.74 217.50 472.50 217.58
  Q 484.08 217.59 493.88 224.13
  Q 510.30 235.08 512.00 254.84
  Z"
/>
</svg>
