<?xml version="1.0" encoding="UTF-8" standalone="no"?>
<!DOCTYPE svg PUBLIC "-//W3C//DTD SVG 1.1//EN" "http://www.w3.org/Graphics/SVG/1.1/DTD/svg11.dtd">
<svg xmlns="http://www.w3.org/2000/svg" version="1.1" viewBox="0.00 0.00 512.00 512.00">
<path fill="#000000" d="
  M 154.76 41.51
  C 154.83 35.24 159.76 29.54 165.39 27.56
  Q 168.33 26.53 175.98 26.58
  Q 207.21 26.81 239.66 26.67
  A 0.34 0.33 0.0 0 1 240.00 27.00
  L 240.00 68.78
  Q 240.00 69.31 239.47 69.31
  L 154.99 69.31
  A 0.27 0.27 0.0 0 1 154.72 69.04
  Q 154.61 54.77 154.76 41.51
  Z"
/>
<path fill="#000000" d="
  M 342.08 26.71
  C 348.96 26.71 355.19 32.31 356.71 38.60
  Q 357.59 42.21 357.37 51.02
  Q 357.15 59.67 357.38 68.63
  Q 357.40 69.31 356.72 69.31
  L 272.66 69.31
  Q 272.00 69.31 272.00 68.66
  L 272.00 27.02
  Q 272.00 26.69 272.33 26.69
  Q 307.74 26.67 342.08 26.71
  Z"
/>
<path fill="#000000" d="
  M 112.00 106.67
  C 112.00 100.14 115.91 94.50 121.83 91.86
  Q 124.44 90.70 129.28 90.68
  Q 188.49 90.48 239.73 90.74
  Q 240.00 90.74 240.00 91.01
  L 240.00 154.22
  Q 240.00 154.69 239.53 154.69
  L 112.34 154.69
  A 0.33 0.32 0.0 0 1 112.01 154.37
  Q 111.99 131.00 112.00 106.67
  Z"
/>
<path fill="#000000" d="
  M 384.13 90.72
  C 392.84 90.75 400.01 97.96 400.00 106.69
  Q 399.99 131.27 399.99 154.21
  A 0.48 0.48 0.0 0 1 399.51 154.69
  L 272.47 154.69
  A 0.47 0.47 0.0 0 1 272.00 154.22
  L 272.00 91.26
  Q 272.00 90.71 272.54 90.71
  Q 330.60 90.48 384.13 90.72
  Z"
/>
<path fill="#000000" d="
  M 112.34 186.68
  L 239.66 186.68
  A 0.34 0.34 0.0 0 1 240.00 187.02
  L 240.00 221.97
  A 0.34 0.34 0.0 0 1 239.79 222.29
  L 112.47 273.21
  A 0.34 0.34 0.0 0 1 112.00 272.90
  L 112.00 187.02
  A 0.34 0.34 0.0 0 1 112.34 186.68
  Z"
/>
<path fill="#000000" d="
  M 399.57 273.17
  L 272.19 222.23
  A 0.31 0.31 0.0 0 1 272.00 221.94
  L 272.00 186.99
  A 0.31 0.31 0.0 0 1 272.31 186.68
  L 399.69 186.68
  A 0.31 0.31 0.0 0 1 400.00 186.99
  L 400.00 272.88
  A 0.31 0.31 0.0 0 1 399.57 273.17
  Z"
/>
<path fill="#000000" d="
  M 263.02 241.52
  C 315.11 262.43 367.13 283.12 418.98 303.91
  Q 424.51 306.13 426.71 308.16
  C 432.24 313.29 433.06 320.02 430.53 327.07
  Q 405.62 396.40 382.77 460.72
  C 377.26 476.24 362.57 485.38 346.28 485.36
  Q 257.06 485.24 163.36 485.30
  C 151.68 485.31 140.51 478.77 133.78 469.39
  Q 130.77 465.19 126.93 454.38
  Q 104.25 390.58 81.39 326.67
  Q 77.53 315.88 84.64 308.88
  Q 87.42 306.14 93.06 303.89
  Q 172.28 272.37 249.48 241.37
  Q 256.07 238.73 263.02 241.52
  Z
  M 240.44 453.33
  L 271.56 453.33
  A 0.47 0.47 0.0 0 0 272.03 452.86
  L 272.03 362.90
  A 16.21 15.98 -90.0 0 0 256.05 346.69
  L 255.95 346.69
  A 16.21 15.98 -90.0 0 0 239.97 362.90
  L 239.97 452.86
  A 0.47 0.47 0.0 0 0 240.44 453.33
  Z"
/>
</svg>
