<?xml version="1.0" encoding="UTF-8" standalone="no"?>
<!DOCTYPE svg PUBLIC "-//W3C//DTD SVG 1.1//EN" "http://www.w3.org/Graphics/SVG/1.1/DTD/svg11.dtd">
<svg xmlns="http://www.w3.org/2000/svg" version="1.1" viewBox="0.00 0.00 512.00 512.00">
<path fill="#000000" d="
  M 0.00 373.23
  L 0.00 91.37
  Q 2.27 81.05 13.75 81.05
  Q 149.78 81.04 285.82 81.05
  Q 293.13 81.05 295.53 82.06
  C 299.55 83.76 302.52 88.06 302.52 92.58
  Q 302.53 232.65 302.52 371.77
  C 302.52 376.77 299.49 381.38 294.74 382.90
  Q 292.14 383.72 288.46 383.72
  Q 249.10 383.64 210.12 383.71
  Q 209.49 383.71 209.48 383.08
  Q 208.92 357.99 193.39 339.11
  C 166.60 306.54 116.50 305.27 88.15 336.52
  Q 70.39 356.10 69.79 383.09
  Q 69.78 383.67 69.20 383.67
  Q 41.18 383.70 13.27 383.77
  Q 2.20 383.80 0.00 373.23
  Z"
/>
<path fill="#000000" d="
  M 449.11 220.19
  Q 449.38 220.74 448.76 220.74
  L 326.40 220.74
  Q 325.80 220.74 325.80 220.15
  L 325.80 151.50
  Q 325.80 150.93 326.38 150.93
  Q 362.24 151.04 406.94 150.92
  C 411.64 150.91 415.64 153.27 417.78 157.55
  Q 432.84 187.65 449.11 220.19
  Z"
/>
<path fill="#000000" d="
  M 512.00 277.37
  L 512.00 373.30
  C 509.31 385.45 498.98 383.87 489.28 383.65
  Q 488.80 383.64 488.78 383.16
  Q 487.97 356.16 471.10 337.35
  Q 452.21 316.30 424.08 314.06
  C 404.36 312.49 384.30 319.67 370.11 333.74
  Q 349.86 353.81 349.05 382.96
  Q 349.03 383.69 348.30 383.69
  L 326.25 383.69
  A 0.45 0.44 0.0 0 1 325.80 383.25
  L 325.80 244.27
  A 0.28 0.27 0.0 0 1 326.08 244.00
  Q 392.12 244.01 458.95 243.99
  Q 460.99 243.99 462.83 245.00
  Q 484.78 257.01 506.64 269.09
  Q 510.82 271.41 512.00 277.37
  Z"
/>
<circle fill="#000000" cx="139.64" cy="383.63" r="46.52"/>
<circle fill="#000000" cx="418.91" cy="383.63" r="46.51"/>
</svg>
