<?xml version="1.0" encoding="UTF-8" standalone="no"?>
<!DOCTYPE svg PUBLIC "-//W3C//DTD SVG 1.1//EN" "http://www.w3.org/Graphics/SVG/1.1/DTD/svg11.dtd">
<svg xmlns="http://www.w3.org/2000/svg" version="1.1" viewBox="0.00 0.00 512.00 512.00">
<path fill="#82afff" d="
  M 512.00 96.63
  L 512.00 200.27
  L 0.00 200.27
  L 0.00 96.51
  Q 1.58 88.28 9.50 88.28
  Q 255.88 88.28 502.25 88.28
  Q 510.50 88.28 512.00 96.63
  Z"
/>
<path fill="#f5f5f5" d="
  M 0.00 200.27
  L 512.00 200.27
  L 512.00 311.73
  L 0.00 311.73
  L 0.00 200.27
  Z
  M 253.77 234.09
  L 249.82 234.85
  Q 249.06 229.22 245.31 225.28
  C 242.35 222.17 243.38 218.29 242.11 214.53
  Q 241.94 214.04 241.47 214.24
  L 238.47 215.45
  Q 237.98 215.65 238.09 216.16
  C 238.80 219.50 238.44 222.45 240.26 225.68
  C 242.60 229.82 245.47 231.09 245.36 236.58
  L 242.13 239.01
  L 226.63 223.51
  A 0.41 0.40 44.5 0 0 226.06 223.51
  L 223.49 226.08
  Q 223.21 226.37 223.49 226.65
  L 239.00 242.19
  L 236.50 245.42
  Q 232.22 245.41 230.28 243.71
  Q 226.51 240.41 223.98 239.44
  C 221.42 238.45 218.82 238.85 216.24 238.09
  Q 215.69 237.92 215.47 238.46
  L 214.21 241.51
  A 0.47 0.47 0.0 0 0 214.48 242.13
  Q 216.99 243.00 219.43 243.03
  C 223.15 243.07 224.97 244.96 227.57 247.17
  Q 230.04 249.26 234.85 249.82
  L 234.11 253.79
  L 212.30 253.77
  Q 211.86 253.77 211.86 254.21
  L 211.85 257.79
  A 0.45 0.44 -90.0 0 0 212.29 258.24
  L 234.16 258.23
  L 234.83 262.18
  Q 231.60 265.63 228.51 265.57
  Q 221.62 265.44 214.97 271.78
  Q 214.81 271.94 214.90 272.14
  L 216.37 275.59
  A 0.11 0.11 0.0 0 0 216.51 275.65
  Q 219.29 274.34 221.41 272.34
  C 223.84 270.05 226.71 270.12 229.75 269.82
  Q 232.89 269.51 236.65 266.63
  L 239.02 269.83
  L 223.41 285.44
  Q 223.21 285.64 223.41 285.84
  L 226.17 288.59
  Q 226.36 288.78 226.55 288.59
  L 242.16 272.99
  Q 243.51 274.33 245.31 275.23
  Q 245.61 279.42 243.08 282.49
  Q 240.63 285.46 240.36 285.93
  C 238.62 289.01 238.60 292.78 238.08 296.18
  Q 238.05 296.38 238.24 296.46
  L 241.76 297.90
  A 0.14 0.14 0.0 0 0 241.95 297.82
  Q 243.01 295.05 243.07 292.19
  C 243.14 289.02 244.85 287.08 246.84 284.82
  Q 249.20 282.15 249.83 277.17
  L 253.76 277.91
  L 253.75 299.68
  Q 253.75 300.18 254.25 300.17
  L 257.75 300.13
  Q 258.24 300.12 258.24 299.63
  L 258.23 277.95
  Q 260.77 277.28 262.64 277.49
  Q 265.33 280.62 265.69 284.48
  Q 266.02 288.03 266.35 288.96
  C 267.46 292.16 269.78 293.94 271.38 296.74
  Q 271.68 297.27 272.24 297.04
  L 275.12 295.86
  A 0.64 0.63 65.6 0 0 275.44 295.00
  C 274.02 292.13 271.31 290.27 270.48 287.20
  Q 269.75 284.51 269.73 281.75
  Q 269.72 279.40 266.69 275.43
  L 269.93 273.10
  L 285.18 288.33
  Q 285.62 288.77 286.07 288.34
  L 288.34 286.10
  A 0.64 0.64 0.0 0 0 288.35 285.19
  L 273.08 269.87
  L 275.50 266.69
  Q 279.37 269.67 284.17 270.08
  C 288.18 270.43 289.89 271.38 292.56 273.96
  C 293.20 274.58 294.18 274.95 294.94 275.43
  Q 295.58 275.84 295.87 275.14
  L 297.04 272.21
  Q 297.21 271.79 296.85 271.53
  C 294.05 269.51 291.43 266.94 288.02 266.09
  Q 287.98 266.08 283.97 265.63
  Q 280.24 265.20 277.32 262.32
  L 277.94 258.24
  L 299.63 258.24
  Q 300.13 258.24 300.14 257.74
  L 300.18 254.26
  Q 300.19 253.77 299.70 253.77
  L 277.84 253.77
  Q 277.77 252.10 277.33 250.44
  Q 277.28 250.22 277.32 250.05
  Q 277.39 249.74 277.57 249.72
  Q 282.41 249.02 284.86 246.86
  C 287.28 244.73 289.08 243.07 292.53 243.01
  Q 295.03 242.96 297.46 242.14
  Q 297.98 241.97 297.77 241.46
  L 296.55 238.51
  Q 296.31 237.93 295.70 238.09
  Q 293.81 238.61 291.76 238.68
  C 288.60 238.78 285.32 240.39 283.08 242.55
  C 280.93 244.63 278.25 245.50 275.34 245.27
  L 273.13 241.96
  L 288.49 226.63
  Q 288.78 226.34 288.49 226.05
  L 285.94 223.54
  A 0.45 0.45 0.0 0 0 285.31 223.54
  L 269.83 238.99
  L 266.63 236.55
  Q 269.82 232.40 270.15 227.32
  C 270.40 223.49 271.79 221.75 274.17 219.13
  C 274.71 218.54 275.01 217.65 275.44 216.96
  Q 275.81 216.38 275.17 216.13
  L 272.02 214.90
  A 0.44 0.43 -64.1 0 0 271.48 215.09
  C 269.71 218.24 267.07 220.13 266.09 223.94
  Q 266.07 223.99 265.62 228.07
  Q 265.17 232.10 262.06 234.83
  L 258.23 234.07
  L 258.23 212.23
  Q 258.23 211.85 257.85 211.85
  L 254.21 211.84
  A 0.45 0.44 -90.0 0 0 253.77 212.29
  L 253.77 234.09
  Z"
/>
<path fill="#f09146" d="
  M 258.23 234.07
  L 253.77 234.09
  L 253.77 212.29
  A 0.45 0.44 -90.0 0 1 254.21 211.84
  L 257.85 211.85
  Q 258.23 211.85 258.23 212.23
  L 258.23 234.07
  Z"
/>
<path fill="#f09146" d="
  M 249.82 234.85
  L 245.36 236.58
  C 245.47 231.09 242.60 229.82 240.26 225.68
  C 238.44 222.45 238.80 219.50 238.09 216.16
  Q 237.98 215.65 238.47 215.45
  L 241.47 214.24
  Q 241.94 214.04 242.11 214.53
  C 243.38 218.29 242.35 222.17 245.31 225.28
  Q 249.06 229.22 249.82 234.85
  Z"
/>
<path fill="#f09146" d="
  M 266.63 236.55
  L 262.06 234.83
  Q 265.17 232.10 265.62 228.07
  Q 266.07 223.99 266.09 223.94
  C 267.07 220.13 269.71 218.24 271.48 215.09
  A 0.44 0.43 -64.1 0 1 272.02 214.90
  L 275.17 216.13
  Q 275.81 216.38 275.44 216.96
  C 275.01 217.65 274.71 218.54 274.17 219.13
  C 271.79 221.75 270.40 223.49 270.15 227.32
  Q 269.82 232.40 266.63 236.55
  Z"
/>
<path fill="#f09146" d="
  M 242.13 239.01
  Q 240.14 240.46 239.00 242.19
  L 223.49 226.65
  Q 223.21 226.37 223.49 226.08
  L 226.06 223.51
  A 0.41 0.40 44.5 0 1 226.63 223.51
  L 242.13 239.01
  Z"
/>
<path fill="#f09146" d="
  M 273.13 241.96
  L 269.83 238.99
  L 285.31 223.54
  A 0.45 0.45 0.0 0 1 285.94 223.54
  L 288.49 226.05
  Q 288.78 226.34 288.49 226.63
  L 273.13 241.96
  Z"
/>
<path fill="#ffe15a" d="
  M 253.77 234.09
  L 258.23 234.07
  L 262.06 234.83
  L 266.63 236.55
  L 269.83 238.99
  L 273.13 241.96
  L 275.34 245.27
  L 277.57 249.72
  Q 277.39 249.74 277.32 250.05
  Q 277.28 250.22 277.33 250.44
  Q 277.77 252.10 277.84 253.77
  L 277.94 258.24
  L 277.32 262.32
  L 275.50 266.69
  L 273.08 269.87
  L 269.93 273.10
  L 266.69 275.43
  Q 264.14 276.15 262.64 277.49
  Q 260.77 277.28 258.23 277.95
  L 253.76 277.91
  L 249.83 277.17
  L 245.31 275.23
  Q 243.51 274.33 242.16 272.99
  Q 240.16 271.60 239.02 269.83
  L 236.65 266.63
  L 234.83 262.18
  L 234.16 258.23
  L 234.11 253.79
  L 234.85 249.82
  L 236.50 245.42
  L 239.00 242.19
  Q 240.14 240.46 242.13 239.01
  L 245.36 236.58
  L 249.82 234.85
  L 253.77 234.09
  Z"
/>
<path fill="#f09146" d="
  M 236.50 245.42
  L 234.85 249.82
  Q 230.04 249.26 227.57 247.17
  C 224.97 244.96 223.15 243.07 219.43 243.03
  Q 216.99 243.00 214.48 242.13
  A 0.47 0.47 0.0 0 1 214.21 241.51
  L 215.47 238.46
  Q 215.69 237.92 216.24 238.09
  C 218.82 238.85 221.42 238.45 223.98 239.44
  Q 226.51 240.41 230.28 243.71
  Q 232.22 245.41 236.50 245.42
  Z"
/>
<path fill="#f09146" d="
  M 277.57 249.72
  L 275.34 245.27
  C 278.25 245.50 280.93 244.63 283.08 242.55
  C 285.32 240.39 288.60 238.78 291.76 238.68
  Q 293.81 238.61 295.70 238.09
  Q 296.31 237.93 296.55 238.51
  L 297.77 241.46
  Q 297.98 241.97 297.46 242.14
  Q 295.03 242.96 292.53 243.01
  C 289.08 243.07 287.28 244.73 284.86 246.86
  Q 282.41 249.02 277.57 249.72
  Z"
/>
<path fill="#f09146" d="
  M 234.11 253.79
  L 234.16 258.23
  L 212.29 258.24
  A 0.45 0.44 -90.0 0 1 211.85 257.79
  L 211.86 254.21
  Q 211.86 253.77 212.30 253.77
  L 234.11 253.79
  Z"
/>
<path fill="#f09146" d="
  M 277.84 253.77
  L 299.70 253.77
  Q 300.19 253.77 300.18 254.26
  L 300.14 257.74
  Q 300.13 258.24 299.63 258.24
  L 277.94 258.24
  L 277.84 253.77
  Z"
/>
<path fill="#f09146" d="
  M 234.83 262.18
  L 236.65 266.63
  Q 232.89 269.51 229.75 269.82
  C 226.71 270.12 223.84 270.05 221.41 272.34
  Q 219.29 274.34 216.51 275.65
  A 0.11 0.11 0.0 0 1 216.37 275.59
  L 214.90 272.14
  Q 214.81 271.94 214.97 271.78
  Q 221.62 265.44 228.51 265.57
  Q 231.60 265.63 234.83 262.18
  Z"
/>
<path fill="#f09146" d="
  M 277.32 262.32
  Q 280.24 265.20 283.97 265.63
  Q 287.98 266.08 288.02 266.09
  C 291.43 266.94 294.05 269.51 296.85 271.53
  Q 297.21 271.79 297.04 272.21
  L 295.87 275.14
  Q 295.58 275.84 294.94 275.43
  C 294.18 274.95 293.20 274.58 292.56 273.96
  C 289.89 271.38 288.18 270.43 284.17 270.08
  Q 279.37 269.67 275.50 266.69
  L 277.32 262.32
  Z"
/>
<path fill="#f09146" d="
  M 239.02 269.83
  Q 240.16 271.60 242.16 272.99
  L 226.55 288.59
  Q 226.36 288.78 226.17 288.59
  L 223.41 285.84
  Q 223.21 285.64 223.41 285.44
  L 239.02 269.83
  Z"
/>
<path fill="#f09146" d="
  M 273.08 269.87
  L 288.35 285.19
  A 0.64 0.64 0.0 0 1 288.34 286.10
  L 286.07 288.34
  Q 285.62 288.77 285.18 288.33
  L 269.93 273.10
  L 273.08 269.87
  Z"
/>
<path fill="#f09146" d="
  M 249.83 277.17
  Q 249.20 282.15 246.84 284.82
  C 244.85 287.08 243.14 289.02 243.07 292.19
  Q 243.01 295.05 241.95 297.82
  A 0.14 0.14 0.0 0 1 241.76 297.90
  L 238.24 296.46
  Q 238.05 296.38 238.08 296.18
  C 238.60 292.78 238.62 289.01 240.36 285.93
  Q 240.63 285.46 243.08 282.49
  Q 245.61 279.42 245.31 275.23
  L 249.83 277.17
  Z"
/>
<path fill="#f09146" d="
  M 266.69 275.43
  Q 269.72 279.40 269.73 281.75
  Q 269.75 284.51 270.48 287.20
  C 271.31 290.27 274.02 292.13 275.44 295.00
  A 0.64 0.63 65.6 0 1 275.12 295.86
  L 272.24 297.04
  Q 271.68 297.27 271.38 296.74
  C 269.78 293.94 267.46 292.16 266.35 288.96
  Q 266.02 288.03 265.69 284.48
  Q 265.33 280.62 262.64 277.49
  Q 264.14 276.15 266.69 275.43
  Z"
/>
<path fill="#f09146" d="
  M 258.23 277.95
  L 258.24 299.63
  Q 258.24 300.12 257.75 300.13
  L 254.25 300.17
  Q 253.75 300.18 253.75 299.68
  L 253.76 277.91
  L 258.23 277.95
  Z"
/>
<path fill="#82afff" d="
  M 512.00 311.73
  L 512.00 415.49
  Q 510.44 423.72 502.75 423.72
  Q 256.00 423.73 9.25 423.72
  Q 1.46 423.72 0.00 415.37
  L 0.00 311.73
  L 512.00 311.73
  Z"
/>
</svg>
