<?xml version="1.0" encoding="UTF-8" standalone="no"?>
<!DOCTYPE svg PUBLIC "-//W3C//DTD SVG 1.1//EN" "http://www.w3.org/Graphics/SVG/1.1/DTD/svg11.dtd">
<svg xmlns="http://www.w3.org/2000/svg" version="1.1" viewBox="0.00 0.00 1200.00 840.00">
<path fill="#009b3a" d="
  M 0.00 0.00
  L 1200.00 0.00
  L 1200.00 840.00
  L 0.00 840.00
  L 0.00 0.00
  Z
  M 102.53 419.68
  A 0.38 0.38 0.0 0 0 102.53 420.32
  L 599.83 737.87
  A 0.38 0.38 0.0 0 0 600.23 737.87
  L 1097.54 420.32
  A 0.38 0.38 0.0 0 0 1097.54 419.68
  L 600.24 102.13
  A 0.38 0.38 0.0 0 0 599.84 102.13
  L 102.53 419.68
  Z"
/>
<path fill="#fedf00" d="
  M 102.53 419.68
  L 599.84 102.13
  A 0.38 0.38 0.0 0 1 600.24 102.13
  L 1097.54 419.68
  A 0.38 0.38 0.0 0 1 1097.54 420.32
  L 600.23 737.87
  A 0.38 0.38 0.0 0 1 599.83 737.87
  L 102.53 420.32
  A 0.38 0.38 0.0 0 1 102.53 419.68
  Z
  M 407.87 335.06
  Q 401.41 350.39 396.92 366.58
  Q 396.87 366.77 396.98 366.94
  Q 396.78 367.04 396.74 367.20
  C 382.57 422.69 391.12 481.38 421.14 529.99
  C 449.57 576.03 494.62 609.53 547.03 623.17
  C 601.57 637.37 660.85 629.02 708.66 599.66
  Q 770.98 561.37 797.20 492.45
  Q 798.02 490.30 800.45 482.54
  Q 805.49 466.01 807.90 449.38
  Q 816.57 385.37 789.35 329.15
  C 750.85 249.62 667.33 202.24 579.31 211.09
  Q 536.34 215.42 500.02 235.31
  Q 437.70 269.44 407.87 335.06
  Z"
/>
<path fill="#002776" d="
  M 807.90 449.38
  Q 743.99 395.75 668.20 365.83
  Q 543.19 316.48 407.87 335.06
  Q 437.70 269.44 500.02 235.31
  Q 536.34 215.42 579.31 211.09
  C 667.33 202.24 750.85 249.62 789.35 329.15
  Q 816.57 385.37 807.90 449.38
  Z
  M 667.41 352.11
  A 0.34 0.34 0.0 0 1 667.07 351.87
  L 665.48 346.58
  A 0.34 0.34 0.0 0 0 664.82 346.58
  L 663.23 351.87
  A 0.34 0.34 0.0 0 1 662.89 352.11
  L 657.36 352.00
  A 0.34 0.34 0.0 0 0 657.16 352.62
  L 661.70 355.77
  A 0.34 0.34 0.0 0 1 661.83 356.16
  L 660.01 361.39
  A 0.34 0.34 0.0 0 0 660.54 361.77
  L 664.94 358.43
  A 0.34 0.34 0.0 0 1 665.36 358.43
  L 669.76 361.77
  A 0.34 0.34 0.0 0 0 670.29 361.39
  L 668.47 356.16
  A 0.34 0.34 0.0 0 1 668.60 355.77
  L 673.14 352.62
  A 0.34 0.34 0.0 0 0 672.94 352.00
  L 667.41 352.11
  Z"
/>
<path fill="#ffffff" d="
  M 807.90 449.38
  Q 805.49 466.01 800.45 482.54
  Q 694.31 388.41 554.90 365.78
  Q 544.93 364.16 535.08 363.07
  Q 466.21 355.41 397.76 367.02
  Q 397.36 367.08 396.98 366.94
  Q 396.87 366.77 396.92 366.58
  Q 401.41 350.39 407.87 335.06
  Q 543.19 316.48 668.20 365.83
  Q 743.99 395.75 807.90 449.38
  Z
  M 462.19 335.64
  L 462.56 354.84
  A 0.41 0.41 0.0 0 0 462.97 355.24
  L 471.74 355.07
  A 8.80 8.60 -1.1 0 0 480.38 346.31
  L 480.32 343.49
  A 8.80 8.60 -1.1 0 0 471.36 335.06
  L 462.59 335.23
  A 0.41 0.41 0.0 0 0 462.19 335.64
  Z
  M 491.91 339.18
  A 0.37 0.37 0.0 0 1 492.30 338.82
  L 505.26 339.31
  A 0.37 0.37 0.0 0 0 505.64 338.95
  L 505.75 335.96
  A 0.37 0.37 0.0 0 0 505.39 335.58
  L 488.98 334.99
  A 0.37 0.37 0.0 0 0 488.60 335.35
  L 487.95 354.61
  A 0.37 0.37 0.0 0 0 488.31 354.99
  L 505.59 355.61
  A 0.37 0.37 0.0 0 0 505.98 355.24
  L 506.02 352.23
  A 0.37 0.37 0.0 0 0 505.67 351.86
  L 491.84 351.42
  A 0.37 0.37 0.0 0 1 491.48 351.04
  L 491.65 346.61
  A 0.37 0.37 0.0 0 1 492.03 346.25
  L 502.72 346.64
  A 0.37 0.37 0.0 0 0 503.10 346.29
  L 503.23 343.61
  A 0.37 0.37 0.0 0 0 502.88 343.23
  L 492.13 342.83
  A 0.37 0.37 0.0 0 1 491.78 342.45
  L 491.91 339.18
  Z
  M 451.83 347.22
  C 456.46 342.98 453.74 335.79 447.47 336.09
  Q 442.37 336.34 436.68 336.80
  Q 436.08 336.85 436.12 337.44
  L 437.16 356.43
  Q 437.18 356.78 437.53 356.76
  L 440.46 356.64
  Q 440.88 356.62 440.85 356.19
  L 440.42 349.48
  Q 440.39 349.10 440.77 349.08
  L 447.78 348.66
  A 1.10 1.09 68.5 0 1 448.71 349.07
  Q 450.55 351.42 450.60 355.40
  A 0.39 0.39 0.0 0 0 451.00 355.78
  L 453.77 355.71
  Q 454.00 355.71 454.01 355.48
  Q 454.22 350.74 451.80 347.69
  Q 451.59 347.44 451.83 347.22
  Z
  M 518.16 343.99
  L 520.58 356.05
  Q 520.70 356.66 521.32 356.73
  L 523.26 356.96
  Q 523.83 357.03 524.03 356.49
  L 528.30 345.46
  Q 528.90 343.91 528.79 345.57
  Q 528.40 351.29 527.81 357.07
  A 0.32 0.31 5.1 0 0 528.11 357.42
  L 530.83 357.56
  Q 531.24 357.58 531.28 357.17
  L 532.91 338.33
  Q 532.97 337.69 532.33 337.63
  L 528.63 337.33
  Q 528.00 337.27 527.77 337.87
  L 523.14 349.76
  Q 522.81 350.61 522.64 349.72
  L 520.14 337.09
  Q 520.05 336.60 519.54 336.55
  L 515.72 336.18
  Q 515.05 336.12 514.99 336.79
  L 513.33 355.70
  Q 513.29 356.10 513.69 356.12
  L 516.31 356.31
  A 0.41 0.41 0.0 0 0 516.75 355.94
  L 517.78 344.01
  Q 517.90 342.70 518.16 343.99
  Z
  M 420.8838 358.5658
  A 9.96 8.97 83.0 0 0 428.5731 347.5868
  A 9.96 8.97 83.0 0 0 418.4562 338.7942
  A 9.96 8.97 83.0 0 0 410.7669 349.7732
  A 9.96 8.97 83.0 0 0 420.8838 358.5658
  Z
  M 560.55 347.26
  A 0.35 0.35 0.0 0 1 560.95 346.98
  L 571.33 348.80
  A 0.35 0.35 0.0 0 0 571.74 348.51
  L 572.17 345.79
  A 0.35 0.35 0.0 0 0 571.88 345.39
  L 558.14 343.03
  A 0.35 0.35 0.0 0 0 557.74 343.31
  L 554.80 360.37
  A 0.35 0.35 0.0 0 0 555.08 360.77
  L 569.18 363.20
  A 0.35 0.35 0.0 0 0 569.59 362.91
  L 570.03 360.24
  A 0.35 0.35 0.0 0 0 569.75 359.84
  L 559.05 357.95
  A 0.35 0.35 0.0 0 1 558.77 357.55
  L 559.41 353.78
  A 0.35 0.35 0.0 0 1 559.82 353.49
  L 568.48 354.97
  A 0.35 0.35 0.0 0 0 568.89 354.67
  L 569.27 351.97
  A 0.35 0.35 0.0 0 0 568.98 351.57
  L 560.38 350.13
  A 0.35 0.35 0.0 0 1 560.09 349.72
  L 560.55 347.26
  Z
  M 598.74 362.08
  C 601.78 362.79 605.53 364.36 608.51 363.96
  C 615.53 363.02 615.50 353.32 608.31 351.53
  Q 603.23 350.26 598.46 348.99
  A 0.47 0.46 15.1 0 0 597.89 349.31
  L 592.83 367.80
  Q 592.71 368.26 593.17 368.37
  L 595.98 369.02
  Q 596.33 369.10 596.41 368.76
  L 598.03 362.51
  Q 598.17 361.94 598.74 362.08
  Z
  M 623.77 368.99
  L 630.00 370.98
  A 1.46 1.44 -85.8 0 1 630.99 372.14
  Q 631.48 375.25 630.28 378.34
  A 0.47 0.47 0.0 0 0 630.58 378.96
  L 632.98 379.70
  Q 633.40 379.84 633.57 379.43
  Q 635.17 375.47 634.28 371.71
  Q 634.16 371.21 634.65 371.03
  C 640.73 368.80 639.92 361.04 633.99 359.05
  Q 629.37 357.50 623.93 355.87
  Q 623.54 355.76 623.41 356.15
  L 617.43 374.25
  Q 617.26 374.75 617.77 374.91
  L 620.45 375.75
  Q 620.79 375.86 620.90 375.52
  L 622.81 369.48
  Q 623.04 368.75 623.77 368.99
  Z
  M 649.8421 385.6725
  A 9.97 8.97 110.6 0 0 661.7465 379.4960
  A 9.97 8.97 110.6 0 0 656.8579 367.0075
  A 9.97 8.97 110.6 0 0 644.9535 373.1840
  A 9.97 8.97 110.6 0 0 649.8421 385.6725
  Z
  M 679.83 395.98
  L 679.35 396.85
  Q 678.90 397.66 679.76 398.03
  L 680.74 398.44
  Q 681.56 398.79 681.94 397.98
  L 685.66 390.04
  Q 685.94 389.46 685.34 389.23
  L 679.00 386.78
  A 0.39 0.38 20.3 0 0 678.50 387.00
  L 677.66 389.16
  Q 677.60 389.34 677.77 389.41
  L 680.05 390.26
  Q 680.74 390.52 680.14 390.95
  Q 677.97 392.52 675.70 392.04
  C 668.97 390.61 672.03 378.91 678.94 380.08
  Q 681.96 380.59 682.69 384.17
  Q 682.80 384.69 683.29 384.90
  L 685.94 386.03
  Q 686.54 386.28 686.54 385.63
  C 686.53 377.99 678.82 373.19 672.46 378.23
  C 664.65 384.41 668.32 398.28 679.41 395.43
  Q 680.26 395.21 679.83 395.98
  Z
  M 706.05 401.07
  C 711.83 399.51 713.35 392.20 707.81 389.31
  Q 702.73 386.66 697.88 384.35
  A 0.40 0.40 0.0 0 0 697.35 384.53
  L 688.56 401.53
  A 0.40 0.39 -62.8 0 0 688.73 402.07
  L 691.23 403.41
  A 0.49 0.48 27.1 0 0 691.89 403.20
  L 694.81 397.30
  Q 694.99 396.93 695.37 397.12
  L 701.45 400.17
  A 1.30 1.29 -85.2 0 1 702.11 400.96
  C 702.73 403.02 701.61 405.89 700.60 407.68
  A 0.28 0.27 -61.6 0 0 700.71 408.06
  L 703.18 409.37
  Q 703.41 409.49 703.55 409.28
  Q 705.99 405.63 705.59 401.73
  Q 705.54 401.20 706.05 401.07
  Z
  M 720.45 404.68
  A 0.49 0.49 0.0 0 1 720.26 404.01
  L 721.77 401.33
  A 0.49 0.49 0.0 0 1 722.44 401.15
  L 733.49 407.48
  A 0.49 0.49 0.0 0 0 734.16 407.29
  L 735.53 404.90
  A 0.49 0.49 0.0 0 0 735.34 404.23
  L 721.28 396.26
  A 0.49 0.49 0.0 0 0 720.61 396.45
  L 711.24 413.00
  A 0.49 0.49 0.0 0 0 711.43 413.67
  L 726.26 422.08
  A 0.49 0.49 0.0 0 0 726.93 421.89
  L 728.25 419.49
  A 0.49 0.49 0.0 0 0 728.07 418.83
  L 716.23 412.12
  A 0.49 0.49 0.0 0 1 716.04 411.45
  L 718.10 407.83
  A 0.49 0.49 0.0 0 1 718.77 407.64
  L 727.91 412.81
  A 0.49 0.49 0.0 0 0 728.59 412.62
  L 729.74 410.45
  A 0.49 0.49 0.0 0 0 729.54 409.80
  L 720.45 404.68
  Z
  M 746.09 429.42
  C 743.75 429.86 740.72 427.06 739.86 425.34
  Q 739.63 424.89 739.77 424.40
  L 739.98 423.70
  Q 740.12 423.23 739.71 422.96
  L 736.83 421.09
  A 0.48 0.48 0.0 0 0 736.14 421.27
  C 732.93 427.46 744.50 435.87 749.94 432.18
  C 756.04 428.05 748.28 421.53 745.28 418.72
  A 1.93 1.93 0.0 0 1 745.16 416.03
  C 746.97 414.01 752.66 417.96 751.56 420.78
  Q 751.36 421.29 751.82 421.58
  L 754.33 423.21
  Q 755.12 423.72 755.45 422.84
  Q 757.01 418.77 753.47 415.70
  C 750.84 413.42 746.21 410.54 742.73 412.42
  C 739.65 414.09 739.25 417.79 741.61 420.42
  Q 744.36 423.49 747.09 426.35
  A 1.84 1.83 -27.0 0 1 746.09 429.42
  Z
  M 768.66 442.74
  A 1.79 1.79 0.0 0 1 766.33 443.91
  C 763.98 443.06 760.41 440.79 761.40 437.84
  Q 761.56 437.36 761.15 437.06
  L 758.50 435.19
  Q 757.94 434.79 757.62 435.40
  C 754.95 440.54 761.07 445.34 765.32 447.16
  C 771.03 449.59 775.93 443.84 771.71 438.66
  Q 769.40 435.84 766.89 433.06
  A 1.81 1.79 -46.4 0 1 766.84 430.70
  C 768.78 428.35 772.54 432.21 773.27 433.84
  Q 773.47 434.30 773.34 434.77
  L 773.12 435.60
  Q 772.96 436.20 773.48 436.55
  L 776.15 438.36
  A 0.41 0.40 -59.6 0 0 776.74 438.20
  Q 778.85 433.93 775.13 430.43
  C 771.90 427.38 764.88 423.21 762.14 429.59
  C 759.89 434.82 769.68 439.25 768.66 442.74
  Z
  M 781.9335 460.4026
  A 9.97 8.97 128.5 0 0 795.1600 458.1840
  A 9.97 8.97 128.5 0 0 794.3465 444.7974
  A 9.97 8.97 128.5 0 0 781.1200 447.0160
  A 9.97 8.97 128.5 0 0 781.9335 460.4026
  Z"
/>
<path fill="#009b3a" d="
  M 462.19 335.64
  A 0.41 0.41 0.0 0 1 462.59 335.23
  L 471.36 335.06
  A 8.80 8.60 -1.1 0 1 480.32 343.49
  L 480.38 346.31
  A 8.80 8.60 -1.1 0 1 471.74 355.07
  L 462.97 355.24
  A 0.41 0.41 0.0 0 1 462.56 354.84
  L 462.19 335.64
  Z
  M 465.97 339.19
  L 466.18 351.14
  A 0.35 0.35 0.0 0 0 466.53 351.49
  L 471.38 351.40
  A 5.68 5.64 -1.0 0 0 476.96 345.66
  L 476.94 344.29
  A 5.68 5.64 -1.0 0 0 471.16 338.75
  L 466.31 338.83
  A 0.35 0.35 0.0 0 0 465.97 339.19
  Z"
/>
<path fill="#009b3a" d="
  M 491.91 339.18
  L 491.78 342.45
  A 0.37 0.37 0.0 0 0 492.13 342.83
  L 502.88 343.23
  A 0.37 0.37 0.0 0 1 503.23 343.61
  L 503.10 346.29
  A 0.37 0.37 0.0 0 1 502.72 346.64
  L 492.03 346.25
  A 0.37 0.37 0.0 0 0 491.65 346.61
  L 491.48 351.04
  A 0.37 0.37 0.0 0 0 491.84 351.42
  L 505.67 351.86
  A 0.37 0.37 0.0 0 1 506.02 352.23
  L 505.98 355.24
  A 0.37 0.37 0.0 0 1 505.59 355.61
  L 488.31 354.99
  A 0.37 0.37 0.0 0 1 487.95 354.61
  L 488.60 335.35
  A 0.37 0.37 0.0 0 1 488.98 334.99
  L 505.39 335.58
  A 0.37 0.37 0.0 0 1 505.75 335.96
  L 505.64 338.95
  A 0.37 0.37 0.0 0 1 505.26 339.31
  L 492.30 338.82
  A 0.37 0.37 0.0 0 0 491.91 339.18
  Z"
/>
<path fill="#009b3a" d="
  M 451.80 347.69
  Q 454.22 350.74 454.01 355.48
  Q 454.00 355.71 453.77 355.71
  L 451.00 355.78
  A 0.39 0.39 0.0 0 1 450.60 355.40
  Q 450.55 351.42 448.71 349.07
  A 1.10 1.09 68.5 0 0 447.78 348.66
  L 440.77 349.08
  Q 440.39 349.10 440.42 349.48
  L 440.85 356.19
  Q 440.88 356.62 440.46 356.64
  L 437.53 356.76
  Q 437.18 356.78 437.16 356.43
  L 436.12 337.44
  Q 436.08 336.85 436.68 336.80
  Q 442.37 336.34 447.47 336.09
  C 453.74 335.79 456.46 342.98 451.83 347.22
  Q 451.59 347.44 451.80 347.69
  Z
  M 439.76 340.71
  L 440.06 345.02
  A 0.42 0.42 0.0 0 0 440.51 345.41
  L 447.40 344.93
  A 2.95 2.43 -4.0 0 0 450.18 342.30
  L 450.16 342.00
  A 2.95 2.43 -4.0 0 0 447.04 339.78
  L 440.15 340.27
  A 0.42 0.42 0.0 0 0 439.76 340.71
  Z"
/>
<path fill="#009b3a" d="
  M 517.78 344.01
  L 516.75 355.94
  A 0.41 0.41 0.0 0 1 516.31 356.31
  L 513.69 356.12
  Q 513.29 356.10 513.33 355.70
  L 514.99 336.79
  Q 515.05 336.12 515.72 336.18
  L 519.54 336.55
  Q 520.05 336.60 520.14 337.09
  L 522.64 349.72
  Q 522.81 350.61 523.14 349.76
  L 527.77 337.87
  Q 528.00 337.27 528.63 337.33
  L 532.33 337.63
  Q 532.97 337.69 532.91 338.33
  L 531.28 357.17
  Q 531.24 357.58 530.83 357.56
  L 528.11 357.42
  A 0.32 0.31 5.1 0 1 527.81 357.07
  Q 528.40 351.29 528.79 345.57
  Q 528.90 343.91 528.30 345.46
  L 524.03 356.49
  Q 523.83 357.03 523.26 356.96
  L 521.32 356.73
  Q 520.70 356.66 520.58 356.05
  L 518.16 343.99
  Q 517.90 342.70 517.78 344.01
  Z"
/>
<path fill="#009b3a" d="
  M 420.8838 358.5658
  A 9.96 8.97 83.0 0 1 410.7669 349.7732
  A 9.96 8.97 83.0 0 1 418.4562 338.7942
  A 9.96 8.97 83.0 0 1 428.5731 347.5868
  A 9.96 8.97 83.0 0 1 420.8838 358.5658
  Z
  M 420.4450 354.9119
  A 6.27 5.27 82.9 0 0 424.8996 348.0386
  A 6.27 5.27 82.9 0 0 418.8950 342.4681
  A 6.27 5.27 82.9 0 0 414.4404 349.3414
  A 6.27 5.27 82.9 0 0 420.4450 354.9119
  Z"
/>
<path fill="#ffffff" d="
  M 465.97 339.19
  A 0.35 0.35 0.0 0 1 466.31 338.83
  L 471.16 338.75
  A 5.68 5.64 -1.0 0 1 476.94 344.29
  L 476.96 345.66
  A 5.68 5.64 -1.0 0 1 471.38 351.40
  L 466.53 351.49
  A 0.35 0.35 0.0 0 1 466.18 351.14
  L 465.97 339.19
  Z"
/>
<path fill="#ffffff" d="
  M 439.76 340.71
  A 0.42 0.42 0.0 0 1 440.15 340.27
  L 447.04 339.78
  A 2.95 2.43 -4.0 0 1 450.16 342.00
  L 450.18 342.30
  A 2.95 2.43 -4.0 0 1 447.40 344.93
  L 440.51 345.41
  A 0.42 0.42 0.0 0 1 440.06 345.02
  L 439.76 340.71
  Z"
/>
<ellipse fill="#ffffff" cx="0.00" cy="0.00" transform="translate(419.67,348.69) rotate(82.9)" rx="6.27" ry="5.27"/>
<path fill="#009b3a" d="
  M 560.55 347.26
  L 560.09 349.72
  A 0.35 0.35 0.0 0 0 560.38 350.13
  L 568.98 351.57
  A 0.35 0.35 0.0 0 1 569.27 351.97
  L 568.89 354.67
  A 0.35 0.35 0.0 0 1 568.48 354.97
  L 559.82 353.49
  A 0.35 0.35 0.0 0 0 559.41 353.78
  L 558.77 357.55
  A 0.35 0.35 0.0 0 0 559.05 357.95
  L 569.75 359.84
  A 0.35 0.35 0.0 0 1 570.03 360.24
  L 569.59 362.91
  A 0.35 0.35 0.0 0 1 569.18 363.20
  L 555.08 360.77
  A 0.35 0.35 0.0 0 1 554.80 360.37
  L 557.74 343.31
  A 0.35 0.35 0.0 0 1 558.14 343.03
  L 571.88 345.39
  A 0.35 0.35 0.0 0 1 572.17 345.79
  L 571.74 348.51
  A 0.35 0.35 0.0 0 1 571.33 348.80
  L 560.95 346.98
  A 0.35 0.35 0.0 0 0 560.55 347.26
  Z"
/>
<path fill="#ffffff" d="
  M 667.41 352.11
  L 672.94 352.00
  A 0.34 0.34 0.0 0 1 673.14 352.62
  L 668.60 355.77
  A 0.34 0.34 0.0 0 0 668.47 356.16
  L 670.29 361.39
  A 0.34 0.34 0.0 0 1 669.76 361.77
  L 665.36 358.43
  A 0.34 0.34 0.0 0 0 664.94 358.43
  L 660.54 361.77
  A 0.34 0.34 0.0 0 1 660.01 361.39
  L 661.83 356.16
  A 0.34 0.34 0.0 0 0 661.70 355.77
  L 657.16 352.62
  A 0.34 0.34 0.0 0 1 657.36 352.00
  L 662.89 352.11
  A 0.34 0.34 0.0 0 0 663.23 351.87
  L 664.82 346.58
  A 0.34 0.34 0.0 0 1 665.48 346.58
  L 667.07 351.87
  A 0.34 0.34 0.0 0 0 667.41 352.11
  Z"
/>
<path fill="#009b3a" d="
  M 598.03 362.51
  L 596.41 368.76
  Q 596.33 369.10 595.98 369.02
  L 593.17 368.37
  Q 592.71 368.26 592.83 367.80
  L 597.89 349.31
  A 0.47 0.46 15.1 0 1 598.46 348.99
  Q 603.23 350.26 608.31 351.53
  C 615.50 353.32 615.53 363.02 608.51 363.96
  C 605.53 364.36 601.78 362.79 598.74 362.08
  Q 598.17 361.94 598.03 362.51
  Z
  M 600.24 353.86
  L 599.21 357.83
  A 0.56 0.56 0.0 0 0 599.61 358.51
  L 606.16 360.20
  A 2.96 2.50 14.5 0 0 609.65 358.52
  L 609.70 358.31
  A 2.96 2.50 14.5 0 0 607.46 355.15
  L 600.92 353.46
  A 0.56 0.56 0.0 0 0 600.24 353.86
  Z"
/>
<path fill="#ffffff" d="
  M 600.24 353.86
  A 0.56 0.56 0.0 0 1 600.92 353.46
  L 607.46 355.15
  A 2.96 2.50 14.5 0 1 609.70 358.31
  L 609.65 358.52
  A 2.96 2.50 14.5 0 1 606.16 360.20
  L 599.61 358.51
  A 0.56 0.56 0.0 0 1 599.21 357.83
  L 600.24 353.86
  Z"
/>
<path fill="#009b3a" d="
  M 622.81 369.48
  L 620.90 375.52
  Q 620.79 375.86 620.45 375.75
  L 617.77 374.91
  Q 617.26 374.75 617.43 374.25
  L 623.41 356.15
  Q 623.54 355.76 623.93 355.87
  Q 629.37 357.50 633.99 359.05
  C 639.92 361.04 640.73 368.80 634.65 371.03
  Q 634.16 371.21 634.28 371.71
  Q 635.17 375.47 633.57 379.43
  Q 633.40 379.84 632.98 379.70
  L 630.58 378.96
  A 0.47 0.47 0.0 0 1 630.28 378.34
  Q 631.48 375.25 630.99 372.14
  A 1.46 1.44 -85.8 0 0 630.00 370.98
  L 623.77 368.99
  Q 623.04 368.75 622.81 369.48
  Z
  M 625.56 360.74
  L 624.28 364.80
  A 0.45 0.45 0.0 0 0 624.57 365.37
  L 631.30 367.49
  A 2.73 2.50 17.5 0 0 634.66 365.93
  L 634.71 365.77
  A 2.73 2.50 17.5 0 0 632.86 362.57
  L 626.12 360.45
  A 0.45 0.45 0.0 0 0 625.56 360.74
  Z"
/>
<path fill="#002776" d="
  M 800.45 482.54
  Q 798.02 490.30 797.20 492.45
  Q 770.98 561.37 708.66 599.66
  C 660.85 629.02 601.57 637.37 547.03 623.17
  C 494.62 609.53 449.57 576.03 421.14 529.99
  C 391.12 481.38 382.57 422.69 396.74 367.20
  Q 396.78 367.04 396.98 366.94
  Q 397.36 367.08 397.76 367.02
  Q 466.21 355.41 535.08 363.07
  Q 544.93 364.16 554.90 365.78
  Q 694.31 388.41 800.45 482.54
  Z
  M 430.81 379.57
  A 0.34 0.34 0.0 0 1 430.47 379.33
  L 428.89 373.99
  A 0.34 0.34 0.0 0 0 428.23 373.99
  L 426.65 379.33
  A 0.34 0.34 0.0 0 1 426.31 379.57
  L 420.74 379.43
  A 0.34 0.34 0.0 0 0 420.54 380.05
  L 425.13 383.21
  A 0.34 0.34 0.0 0 1 425.26 383.60
  L 423.40 388.85
  A 0.34 0.34 0.0 0 0 423.93 389.24
  L 428.35 385.85
  A 0.34 0.34 0.0 0 1 428.77 385.85
  L 433.19 389.24
  A 0.34 0.34 0.0 0 0 433.72 388.85
  L 431.86 383.60
  A 0.34 0.34 0.0 0 1 431.99 383.21
  L 436.58 380.05
  A 0.34 0.34 0.0 0 0 436.38 379.43
  L 430.81 379.57
  Z
  M 658.73 407.62
  A 0.32 0.32 0.0 0 1 658.41 407.39
  L 657.46 404.10
  A 0.32 0.32 0.0 0 0 656.84 404.10
  L 655.89 407.39
  A 0.32 0.32 0.0 0 1 655.57 407.62
  L 652.14 407.51
  A 0.32 0.32 0.0 0 0 651.95 408.09
  L 654.79 410.02
  A 0.32 0.32 0.0 0 1 654.91 410.39
  L 653.75 413.62
  A 0.32 0.32 0.0 0 0 654.25 413.98
  L 656.95 411.88
  A 0.32 0.32 0.0 0 1 657.35 411.88
  L 660.05 413.98
  A 0.32 0.32 0.0 0 0 660.55 413.62
  L 659.39 410.39
  A 0.32 0.32 0.0 0 1 659.51 410.02
  L 662.35 408.09
  A 0.32 0.32 0.0 0 0 662.16 407.51
  L 658.73 407.62
  Z
  M 521.92 426.26
  A 0.32 0.32 0.0 0 1 521.61 426.03
  L 520.29 421.67
  A 0.32 0.32 0.0 0 0 519.68 421.67
  L 518.38 426.04
  A 0.32 0.32 0.0 0 1 518.07 426.26
  L 513.52 426.17
  A 0.32 0.32 0.0 0 0 513.33 426.75
  L 517.08 429.33
  A 0.32 0.32 0.0 0 1 517.20 429.70
  L 515.70 433.99
  A 0.32 0.32 0.0 0 0 516.20 434.35
  L 519.81 431.59
  A 0.32 0.32 0.0 0 1 520.20 431.59
  L 523.82 434.34
  A 0.32 0.32 0.0 0 0 524.32 433.98
  L 522.80 429.69
  A 0.32 0.32 0.0 0 1 522.92 429.32
  L 526.66 426.73
  A 0.32 0.32 0.0 0 0 526.47 426.14
  L 521.92 426.26
  Z
  M 601.92 451.40
  A 0.32 0.32 0.0 0 1 601.61 451.17
  L 600.30 446.81
  A 0.32 0.32 0.0 0 0 599.68 446.81
  L 598.37 451.17
  A 0.32 0.32 0.0 0 1 598.06 451.40
  L 593.50 451.30
  A 0.32 0.32 0.0 0 0 593.31 451.88
  L 597.06 454.48
  A 0.32 0.32 0.0 0 1 597.18 454.85
  L 595.67 459.15
  A 0.32 0.32 0.0 0 0 596.17 459.51
  L 599.80 456.75
  A 0.32 0.32 0.0 0 1 600.18 456.75
  L 603.81 459.51
  A 0.32 0.32 0.0 0 0 604.31 459.15
  L 602.80 454.85
  A 0.32 0.32 0.0 0 1 602.92 454.48
  L 606.67 451.88
  A 0.32 0.32 0.0 0 0 606.48 451.30
  L 601.92 451.40
  Z
  M 468.95 456.30
  A 0.32 0.32 0.0 0 1 468.64 456.08
  L 468.00 454.06
  A 0.32 0.32 0.0 0 0 467.39 454.06
  L 466.76 456.09
  A 0.32 0.32 0.0 0 1 466.45 456.31
  L 464.34 456.30
  A 0.32 0.32 0.0 0 0 464.15 456.88
  L 465.88 458.10
  A 0.32 0.32 0.0 0 1 466.00 458.47
  L 465.34 460.48
  A 0.32 0.32 0.0 0 0 465.83 460.83
  L 467.53 459.56
  A 0.32 0.32 0.0 0 1 467.91 459.56
  L 469.62 460.81
  A 0.32 0.32 0.0 0 0 470.11 460.45
  L 469.43 458.45
  A 0.32 0.32 0.0 0 1 469.54 458.08
  L 471.26 456.85
  A 0.32 0.32 0.0 0 0 471.07 456.27
  L 468.95 456.30
  Z
  M 449.40 467.89
  A 0.34 0.34 0.0 0 1 449.07 467.64
  L 447.49 462.25
  A 0.34 0.34 0.0 0 0 446.83 462.25
  L 445.25 467.64
  A 0.34 0.34 0.0 0 1 444.92 467.89
  L 439.30 467.72
  A 0.34 0.34 0.0 0 0 439.10 468.34
  L 443.74 471.51
  A 0.34 0.34 0.0 0 1 443.87 471.91
  L 441.98 477.20
  A 0.34 0.34 0.0 0 0 442.51 477.58
  L 446.95 474.15
  A 0.34 0.34 0.0 0 1 447.37 474.15
  L 451.81 477.58
  A 0.34 0.34 0.0 0 0 452.34 477.20
  L 450.45 471.91
  A 0.34 0.34 0.0 0 1 450.58 471.51
  L 455.22 468.34
  A 0.34 0.34 0.0 0 0 455.02 467.72
  L 449.40 467.89
  Z
  M 626.23 470.29
  A 0.32 0.32 0.0 0 1 625.92 470.06
  L 624.60 465.74
  A 0.32 0.32 0.0 0 0 623.99 465.74
  L 622.69 470.07
  A 0.32 0.32 0.0 0 1 622.38 470.29
  L 617.87 470.21
  A 0.32 0.32 0.0 0 0 617.68 470.79
  L 621.39 473.36
  A 0.32 0.32 0.0 0 1 621.51 473.73
  L 620.04 477.99
  A 0.32 0.32 0.0 0 0 620.53 478.35
  L 624.12 475.62
  A 0.32 0.32 0.0 0 1 624.51 475.62
  L 628.11 478.34
  A 0.32 0.32 0.0 0 0 628.60 477.98
  L 627.11 473.72
  A 0.32 0.32 0.0 0 1 627.23 473.35
  L 630.93 470.77
  A 0.32 0.32 0.0 0 0 630.74 470.19
  L 626.23 470.29
  Z
  M 580.42 470.75
  A 0.32 0.32 0.0 0 1 580.11 470.52
  L 579.15 467.22
  A 0.32 0.32 0.0 0 0 578.53 467.23
  L 577.59 470.52
  A 0.32 0.32 0.0 0 1 577.27 470.76
  L 573.84 470.65
  A 0.32 0.32 0.0 0 0 573.65 471.23
  L 576.50 473.15
  A 0.32 0.32 0.0 0 1 576.62 473.53
  L 575.46 476.76
  A 0.32 0.32 0.0 0 0 575.95 477.12
  L 578.66 475.00
  A 0.32 0.32 0.0 0 1 579.05 475.00
  L 581.76 477.11
  A 0.32 0.32 0.0 0 0 582.26 476.74
  L 581.09 473.52
  A 0.32 0.32 0.0 0 1 581.21 473.14
  L 584.05 471.22
  A 0.32 0.32 0.0 0 0 583.85 470.63
  L 580.42 470.75
  Z
  M 423.37 487.13
  A 0.33 0.33 0.0 0 1 423.05 486.90
  L 421.76 482.60
  A 0.33 0.33 0.0 0 0 421.12 482.60
  L 419.83 486.90
  A 0.33 0.33 0.0 0 1 419.51 487.13
  L 415.02 487.03
  A 0.33 0.33 0.0 0 0 414.83 487.63
  L 418.51 490.19
  A 0.33 0.33 0.0 0 1 418.64 490.57
  L 417.16 494.81
  A 0.33 0.33 0.0 0 0 417.67 495.18
  L 421.24 492.46
  A 0.33 0.33 0.0 0 1 421.64 492.46
  L 425.21 495.18
  A 0.33 0.33 0.0 0 0 425.72 494.81
  L 424.24 490.57
  A 0.33 0.33 0.0 0 1 424.37 490.19
  L 428.05 487.63
  A 0.33 0.33 0.0 0 0 427.86 487.03
  L 423.37 487.13
  Z
  M 590.65 485.83
  A 0.31 0.31 0.0 0 1 590.34 485.60
  L 589.73 483.48
  A 0.31 0.31 0.0 0 0 589.14 483.48
  L 588.53 485.60
  A 0.31 0.31 0.0 0 1 588.22 485.82
  L 586.01 485.74
  A 0.31 0.31 0.0 0 0 585.83 486.31
  L 587.66 487.54
  A 0.31 0.31 0.0 0 1 587.78 487.91
  L 587.01 489.98
  A 0.31 0.31 0.0 0 0 587.49 490.33
  L 589.24 488.97
  A 0.31 0.31 0.0 0 1 589.62 488.97
  L 591.35 490.34
  A 0.31 0.31 0.0 0 0 591.84 489.99
  L 591.08 487.91
  A 0.31 0.31 0.0 0 1 591.20 487.55
  L 593.04 486.32
  A 0.31 0.31 0.0 0 0 592.85 485.75
  L 590.65 485.83
  Z
  M 492.77 489.13
  A 0.32 0.32 0.0 0 1 492.46 488.90
  L 491.14 484.58
  A 0.32 0.32 0.0 0 0 490.53 484.58
  L 489.23 488.91
  A 0.32 0.32 0.0 0 1 488.92 489.13
  L 484.41 489.05
  A 0.32 0.32 0.0 0 0 484.22 489.63
  L 487.93 492.20
  A 0.32 0.32 0.0 0 1 488.05 492.57
  L 486.58 496.83
  A 0.32 0.32 0.0 0 0 487.07 497.19
  L 490.66 494.46
  A 0.32 0.32 0.0 0 1 491.05 494.46
  L 494.65 497.18
  A 0.32 0.32 0.0 0 0 495.14 496.82
  L 493.65 492.56
  A 0.32 0.32 0.0 0 1 493.77 492.19
  L 497.47 489.61
  A 0.32 0.32 0.0 0 0 497.28 489.03
  L 492.77 489.13
  Z
  M 749.39 491.02
  A 0.33 0.33 0.0 0 1 749.06 490.78
  L 747.47 485.45
  A 0.33 0.33 0.0 0 0 746.83 485.45
  L 745.24 490.78
  A 0.33 0.33 0.0 0 1 744.91 491.02
  L 739.34 490.89
  A 0.33 0.33 0.0 0 0 739.15 491.49
  L 743.73 494.66
  A 0.33 0.33 0.0 0 1 743.85 495.04
  L 742.01 500.30
  A 0.33 0.33 0.0 0 0 742.52 500.67
  L 746.95 497.29
  A 0.33 0.33 0.0 0 1 747.35 497.29
  L 751.78 500.67
  A 0.33 0.33 0.0 0 0 752.29 500.30
  L 750.45 495.04
  A 0.33 0.33 0.0 0 1 750.57 494.66
  L 755.15 491.49
  A 0.33 0.33 0.0 0 0 754.96 490.89
  L 749.39 491.02
  Z
  M 777.87 493.92
  A 0.32 0.32 0.0 0 1 777.55 493.69
  L 776.61 490.35
  A 0.32 0.32 0.0 0 0 775.99 490.35
  L 775.05 493.69
  A 0.32 0.32 0.0 0 1 774.73 493.92
  L 771.26 493.79
  A 0.32 0.32 0.0 0 0 771.07 494.38
  L 773.95 496.31
  A 0.32 0.32 0.0 0 1 774.07 496.68
  L 772.88 499.93
  A 0.32 0.32 0.0 0 0 773.38 500.30
  L 776.10 498.16
  A 0.32 0.32 0.0 0 1 776.50 498.16
  L 779.22 500.30
  A 0.32 0.32 0.0 0 0 779.72 499.93
  L 778.53 496.68
  A 0.32 0.32 0.0 0 1 778.65 496.31
  L 781.53 494.38
  A 0.32 0.32 0.0 0 0 781.34 493.79
  L 777.87 493.92
  Z
  M 757.61 510.05
  A 0.31 0.31 0.0 0 1 757.30 509.83
  L 755.99 505.52
  A 0.31 0.31 0.0 0 0 755.40 505.52
  L 754.11 509.84
  A 0.31 0.31 0.0 0 1 753.81 510.06
  L 749.30 509.97
  A 0.31 0.31 0.0 0 0 749.12 510.53
  L 752.83 513.10
  A 0.31 0.31 0.0 0 1 752.94 513.45
  L 751.46 517.71
  A 0.31 0.31 0.0 0 0 751.94 518.06
  L 755.53 515.32
  A 0.31 0.31 0.0 0 1 755.90 515.32
  L 759.50 518.05
  A 0.31 0.31 0.0 0 0 759.98 517.70
  L 758.48 513.44
  A 0.31 0.31 0.0 0 1 758.60 513.09
  L 762.30 510.51
  A 0.31 0.31 0.0 0 0 762.11 509.94
  L 757.61 510.05
  Z
  M 602.26 511.57
  A 0.34 0.34 0.0 0 1 601.93 511.33
  L 600.34 505.99
  A 0.34 0.34 0.0 0 0 599.68 505.99
  L 598.09 511.33
  A 0.34 0.34 0.0 0 1 597.76 511.57
  L 592.19 511.44
  A 0.34 0.34 0.0 0 0 591.99 512.06
  L 596.57 515.22
  A 0.34 0.34 0.0 0 1 596.70 515.61
  L 594.85 520.87
  A 0.34 0.34 0.0 0 0 595.38 521.25
  L 599.80 517.87
  A 0.34 0.34 0.0 0 1 600.22 517.87
  L 604.64 521.25
  A 0.34 0.34 0.0 0 0 605.17 520.87
  L 603.32 515.61
  A 0.34 0.34 0.0 0 1 603.45 515.22
  L 608.03 512.06
  A 0.34 0.34 0.0 0 0 607.83 511.44
  L 602.26 511.57
  Z
  M 486.16 510.39
  A 0.32 0.32 0.0 0 1 485.85 510.16
  L 484.87 506.93
  A 0.32 0.32 0.0 0 0 484.25 506.94
  L 483.28 510.17
  A 0.32 0.32 0.0 0 1 482.97 510.40
  L 479.60 510.33
  A 0.32 0.32 0.0 0 0 479.41 510.91
  L 482.18 512.84
  A 0.32 0.32 0.0 0 1 482.30 513.20
  L 481.20 516.39
  A 0.32 0.32 0.0 0 0 481.70 516.75
  L 484.38 514.71
  A 0.32 0.32 0.0 0 1 484.77 514.71
  L 487.46 516.74
  A 0.32 0.32 0.0 0 0 487.95 516.38
  L 486.84 513.20
  A 0.32 0.32 0.0 0 1 486.96 512.83
  L 489.73 510.90
  A 0.32 0.32 0.0 0 0 489.54 510.31
  L 486.16 510.39
  Z
  M 744.77 526.85
  A 0.32 0.32 0.0 0 1 744.46 526.62
  L 743.15 522.24
  A 0.32 0.32 0.0 0 0 742.54 522.24
  L 741.26 526.63
  A 0.32 0.32 0.0 0 1 740.94 526.86
  L 736.37 526.74
  A 0.32 0.32 0.0 0 0 736.18 527.33
  L 739.96 529.90
  A 0.32 0.32 0.0 0 1 740.08 530.27
  L 738.55 534.58
  A 0.32 0.32 0.0 0 0 739.05 534.94
  L 742.67 532.15
  A 0.32 0.32 0.0 0 1 743.06 532.15
  L 746.69 534.93
  A 0.32 0.32 0.0 0 0 747.18 534.57
  L 745.65 530.26
  A 0.32 0.32 0.0 0 1 745.77 529.89
  L 749.53 527.30
  A 0.32 0.32 0.0 0 0 749.34 526.72
  L 744.77 526.85
  Z
  M 517.94 528.72
  A 0.33 0.33 0.0 0 1 517.61 528.48
  L 516.02 523.15
  A 0.33 0.33 0.0 0 0 515.38 523.15
  L 513.79 528.48
  A 0.33 0.33 0.0 0 1 513.46 528.72
  L 507.89 528.59
  A 0.33 0.33 0.0 0 0 507.70 529.19
  L 512.28 532.36
  A 0.33 0.33 0.0 0 1 512.40 532.74
  L 510.56 538.00
  A 0.33 0.33 0.0 0 0 511.07 538.37
  L 515.50 534.99
  A 0.33 0.33 0.0 0 1 515.90 534.99
  L 520.33 538.37
  A 0.33 0.33 0.0 0 0 520.84 538.00
  L 519.00 532.74
  A 0.33 0.33 0.0 0 1 519.12 532.36
  L 523.70 529.19
  A 0.33 0.33 0.0 0 0 523.51 528.59
  L 517.94 528.72
  Z
  M 705.87 533.92
  A 0.32 0.32 0.0 0 1 705.55 533.69
  L 704.61 530.35
  A 0.32 0.32 0.0 0 0 703.99 530.35
  L 703.05 533.69
  A 0.32 0.32 0.0 0 1 702.73 533.92
  L 699.26 533.79
  A 0.32 0.32 0.0 0 0 699.07 534.38
  L 701.95 536.31
  A 0.32 0.32 0.0 0 1 702.07 536.68
  L 700.88 539.93
  A 0.32 0.32 0.0 0 0 701.38 540.30
  L 704.10 538.16
  A 0.32 0.32 0.0 0 1 704.50 538.16
  L 707.22 540.30
  A 0.32 0.32 0.0 0 0 707.72 539.93
  L 706.53 536.68
  A 0.32 0.32 0.0 0 1 706.65 536.31
  L 709.53 534.38
  A 0.32 0.32 0.0 0 0 709.34 533.79
  L 705.87 533.92
  Z
  M 647.87 535.92
  A 0.32 0.32 0.0 0 1 647.55 535.69
  L 646.61 532.35
  A 0.32 0.32 0.0 0 0 645.99 532.35
  L 645.05 535.69
  A 0.32 0.32 0.0 0 1 644.73 535.92
  L 641.26 535.79
  A 0.32 0.32 0.0 0 0 641.07 536.38
  L 643.95 538.31
  A 0.32 0.32 0.0 0 1 644.07 538.68
  L 642.88 541.93
  A 0.32 0.32 0.0 0 0 643.38 542.30
  L 646.10 540.16
  A 0.32 0.32 0.0 0 1 646.50 540.16
  L 649.22 542.30
  A 0.32 0.32 0.0 0 0 649.72 541.93
  L 648.53 538.68
  A 0.32 0.32 0.0 0 1 648.65 538.31
  L 651.53 536.38
  A 0.32 0.32 0.0 0 0 651.34 535.79
  L 647.87 535.92
  Z
  M 727.59 537.91
  A 0.32 0.32 0.0 0 1 727.27 537.68
  L 726.33 534.34
  A 0.32 0.32 0.0 0 0 725.71 534.34
  L 724.77 537.68
  A 0.32 0.32 0.0 0 1 724.45 537.91
  L 720.98 537.78
  A 0.32 0.32 0.0 0 0 720.79 538.37
  L 723.67 540.30
  A 0.32 0.32 0.0 0 1 723.79 540.67
  L 722.60 543.92
  A 0.32 0.32 0.0 0 0 723.10 544.29
  L 725.82 542.15
  A 0.32 0.32 0.0 0 1 726.22 542.15
  L 728.94 544.29
  A 0.32 0.32 0.0 0 0 729.44 543.92
  L 728.25 540.67
  A 0.32 0.32 0.0 0 1 728.37 540.30
  L 731.25 538.37
  A 0.32 0.32 0.0 0 0 731.06 537.78
  L 727.59 537.91
  Z
  M 682.41 541.08
  A 0.32 0.32 0.0 0 1 682.09 540.85
  L 681.15 537.59
  A 0.32 0.32 0.0 0 0 680.53 537.59
  L 679.60 540.85
  A 0.32 0.32 0.0 0 1 679.28 541.08
  L 675.89 540.97
  A 0.32 0.32 0.0 0 0 675.70 541.56
  L 678.51 543.46
  A 0.32 0.32 0.0 0 1 678.64 543.83
  L 677.49 547.02
  A 0.32 0.32 0.0 0 0 677.98 547.38
  L 680.66 545.29
  A 0.32 0.32 0.0 0 1 681.05 545.29
  L 683.73 547.37
  A 0.32 0.32 0.0 0 0 684.23 547.01
  L 683.07 543.82
  A 0.32 0.32 0.0 0 1 683.19 543.45
  L 686.00 541.54
  A 0.32 0.32 0.0 0 0 685.80 540.96
  L 682.41 541.08
  Z
  M 707.05 554.07
  A 0.32 0.32 0.0 0 1 706.73 553.84
  L 705.46 549.48
  A 0.32 0.32 0.0 0 0 704.85 549.48
  L 703.56 553.83
  A 0.32 0.32 0.0 0 1 703.24 554.06
  L 698.71 553.92
  A 0.32 0.32 0.0 0 0 698.52 554.51
  L 702.25 557.08
  A 0.32 0.32 0.0 0 1 702.37 557.45
  L 700.85 561.72
  A 0.32 0.32 0.0 0 0 701.34 562.08
  L 704.94 559.32
  A 0.32 0.32 0.0 0 1 705.33 559.32
  L 708.92 562.09
  A 0.32 0.32 0.0 0 0 709.42 561.73
  L 707.90 557.46
  A 0.32 0.32 0.0 0 1 708.02 557.09
  L 711.77 554.53
  A 0.32 0.32 0.0 0 0 711.58 553.95
  L 707.05 554.07
  Z
  M 664.76 559.12
  A 0.31 0.31 0.0 0 1 664.46 558.90
  L 663.12 554.55
  A 0.31 0.31 0.0 0 0 662.53 554.56
  L 661.22 558.91
  A 0.31 0.31 0.0 0 1 660.92 559.13
  L 656.38 559.06
  A 0.31 0.31 0.0 0 0 656.19 559.62
  L 659.93 562.21
  A 0.31 0.31 0.0 0 1 660.05 562.57
  L 658.58 566.87
  A 0.31 0.31 0.0 0 0 659.06 567.22
  L 662.67 564.46
  A 0.31 0.31 0.0 0 1 663.05 564.46
  L 666.68 567.19
  A 0.31 0.31 0.0 0 0 667.16 566.84
  L 665.66 562.55
  A 0.31 0.31 0.0 0 1 665.77 562.19
  L 669.49 559.58
  A 0.31 0.31 0.0 0 0 669.31 559.01
  L 664.76 559.12
  Z
  M 706.43 575.61
  A 0.32 0.32 0.0 0 1 706.12 575.38
  L 705.16 572.09
  A 0.32 0.32 0.0 0 0 704.54 572.09
  L 703.60 575.38
  A 0.32 0.32 0.0 0 1 703.28 575.62
  L 699.86 575.51
  A 0.32 0.32 0.0 0 0 699.67 576.10
  L 702.51 578.01
  A 0.32 0.32 0.0 0 1 702.63 578.39
  L 701.47 581.61
  A 0.32 0.32 0.0 0 0 701.97 581.97
  L 704.67 579.86
  A 0.32 0.32 0.0 0 1 705.06 579.86
  L 707.77 581.96
  A 0.32 0.32 0.0 0 0 708.26 581.60
  L 707.10 578.38
  A 0.32 0.32 0.0 0 1 707.22 578.00
  L 710.05 576.08
  A 0.32 0.32 0.0 0 0 709.86 575.49
  L 706.43 575.61
  Z
  M 601.69 583.97
  L 602.00 583.81
  Q 602.62 583.50 601.99 583.20
  L 600.41 582.46
  Q 599.89 582.21 599.43 582.55
  Q 598.76 583.05 597.97 583.21
  Q 597.34 583.34 597.89 583.68
  Q 598.95 584.34 598.50 585.55
  Q 598.14 586.50 599.07 586.09
  Q 600.02 585.66 600.97 586.13
  Q 601.78 586.54 601.57 585.65
  Q 601.40 584.94 601.50 584.22
  Q 601.53 584.05 601.69 583.97
  Z"
/>
<path fill="#ffffff" d="
  M 625.56 360.74
  A 0.45 0.45 0.0 0 1 626.12 360.45
  L 632.86 362.57
  A 2.73 2.50 17.5 0 1 634.71 365.77
  L 634.66 365.93
  A 2.73 2.50 17.5 0 1 631.30 367.49
  L 624.57 365.37
  A 0.45 0.45 0.0 0 1 624.28 364.80
  L 625.56 360.74
  Z"
/>
<path fill="#009b3a" d="
  M 649.8421 385.6725
  A 9.97 8.97 110.6 0 1 644.9535 373.1840
  A 9.97 8.97 110.6 0 1 656.8579 367.0075
  A 9.97 8.97 110.6 0 1 661.7465 379.4960
  A 9.97 8.97 110.6 0 1 649.8421 385.6725
  Z
  M 651.1542 382.2129
  A 6.27 5.27 110.5 0 0 658.2863 378.1856
  A 6.27 5.27 110.5 0 0 655.5458 370.4671
  A 6.27 5.27 110.5 0 0 648.4137 374.4944
  A 6.27 5.27 110.5 0 0 651.1542 382.2129
  Z"
/>
<ellipse fill="#ffffff" cx="0.00" cy="0.00" transform="translate(653.35,376.34) rotate(110.5)" rx="6.27" ry="5.27"/>
<path fill="#ffffff" d="
  M 430.81 379.57
  L 436.38 379.43
  A 0.34 0.34 0.0 0 1 436.58 380.05
  L 431.99 383.21
  A 0.34 0.34 0.0 0 0 431.86 383.60
  L 433.72 388.85
  A 0.34 0.34 0.0 0 1 433.19 389.24
  L 428.77 385.85
  A 0.34 0.34 0.0 0 0 428.35 385.85
  L 423.93 389.24
  A 0.34 0.34 0.0 0 1 423.40 388.85
  L 425.26 383.60
  A 0.34 0.34 0.0 0 0 425.13 383.21
  L 420.54 380.05
  A 0.34 0.34 0.0 0 1 420.74 379.43
  L 426.31 379.57
  A 0.34 0.34 0.0 0 0 426.65 379.33
  L 428.23 373.99
  A 0.34 0.34 0.0 0 1 428.89 373.99
  L 430.47 379.33
  A 0.34 0.34 0.0 0 0 430.81 379.57
  Z"
/>
<path fill="#009b3a" d="
  M 679.41 395.43
  C 668.32 398.28 664.65 384.41 672.46 378.23
  C 678.82 373.19 686.53 377.99 686.54 385.63
  Q 686.54 386.28 685.94 386.03
  L 683.29 384.90
  Q 682.80 384.69 682.69 384.17
  Q 681.96 380.59 678.94 380.08
  C 672.03 378.91 668.97 390.61 675.70 392.04
  Q 677.97 392.52 680.14 390.95
  Q 680.74 390.52 680.05 390.26
  L 677.77 389.41
  Q 677.60 389.34 677.66 389.16
  L 678.50 387.00
  A 0.39 0.38 20.3 0 1 679.00 386.78
  L 685.34 389.23
  Q 685.94 389.46 685.66 390.04
  L 681.94 397.98
  Q 681.56 398.79 680.74 398.44
  L 679.76 398.03
  Q 678.90 397.66 679.35 396.85
  L 679.83 395.98
  Q 680.26 395.21 679.41 395.43
  Z"
/>
<path fill="#009b3a" d="
  M 705.59 401.73
  Q 705.99 405.63 703.55 409.28
  Q 703.41 409.49 703.18 409.37
  L 700.71 408.06
  A 0.28 0.27 -61.6 0 1 700.60 407.68
  C 701.61 405.89 702.73 403.02 702.11 400.96
  A 1.30 1.29 -85.2 0 0 701.45 400.17
  L 695.37 397.12
  Q 694.99 396.93 694.81 397.30
  L 691.89 403.20
  A 0.49 0.48 27.1 0 1 691.23 403.41
  L 688.73 402.07
  A 0.40 0.39 -62.8 0 1 688.56 401.53
  L 697.35 384.53
  A 0.40 0.40 0.0 0 1 697.88 384.35
  Q 702.73 386.66 707.81 389.31
  C 713.35 392.20 711.83 399.51 706.05 401.07
  Q 705.54 401.20 705.59 401.73
  Z
  M 698.76 389.38
  L 696.82 393.24
  A 0.42 0.42 0.0 0 0 697.01 393.80
  L 703.38 396.99
  A 2.70 2.47 26.6 0 0 706.90 395.99
  L 707.00 395.79
  A 2.70 2.47 26.6 0 0 705.69 392.38
  L 699.32 389.19
  A 0.42 0.42 0.0 0 0 698.76 389.38
  Z"
/>
<path fill="#ffffff" d="
  M 698.76 389.38
  A 0.42 0.42 0.0 0 1 699.32 389.19
  L 705.69 392.38
  A 2.70 2.47 26.6 0 1 707.00 395.79
  L 706.90 395.99
  A 2.70 2.47 26.6 0 1 703.38 396.99
  L 697.01 393.80
  A 0.42 0.42 0.0 0 1 696.82 393.24
  L 698.76 389.38
  Z"
/>
<path fill="#009b3a" d="
  M 720.45 404.68
  L 729.54 409.80
  A 0.49 0.49 0.0 0 1 729.74 410.45
  L 728.59 412.62
  A 0.49 0.49 0.0 0 1 727.91 412.81
  L 718.77 407.64
  A 0.49 0.49 0.0 0 0 718.10 407.83
  L 716.04 411.45
  A 0.49 0.49 0.0 0 0 716.23 412.12
  L 728.07 418.83
  A 0.49 0.49 0.0 0 1 728.25 419.49
  L 726.93 421.89
  A 0.49 0.49 0.0 0 1 726.26 422.08
  L 711.43 413.67
  A 0.49 0.49 0.0 0 1 711.24 413.00
  L 720.61 396.45
  A 0.49 0.49 0.0 0 1 721.28 396.26
  L 735.34 404.23
  A 0.49 0.49 0.0 0 1 735.53 404.90
  L 734.16 407.29
  A 0.49 0.49 0.0 0 1 733.49 407.48
  L 722.44 401.15
  A 0.49 0.49 0.0 0 0 721.77 401.33
  L 720.26 404.01
  A 0.49 0.49 0.0 0 0 720.45 404.68
  Z"
/>
<path fill="#ffffff" d="
  M 658.73 407.62
  L 662.16 407.51
  A 0.32 0.32 0.0 0 1 662.35 408.09
  L 659.51 410.02
  A 0.32 0.32 0.0 0 0 659.39 410.39
  L 660.55 413.62
  A 0.32 0.32 0.0 0 1 660.05 413.98
  L 657.35 411.88
  A 0.32 0.32 0.0 0 0 656.95 411.88
  L 654.25 413.98
  A 0.32 0.32 0.0 0 1 653.75 413.62
  L 654.91 410.39
  A 0.32 0.32 0.0 0 0 654.79 410.02
  L 651.95 408.09
  A 0.32 0.32 0.0 0 1 652.14 407.51
  L 655.57 407.62
  A 0.32 0.32 0.0 0 0 655.89 407.39
  L 656.84 404.10
  A 0.32 0.32 0.0 0 1 657.46 404.10
  L 658.41 407.39
  A 0.32 0.32 0.0 0 0 658.73 407.62
  Z"
/>
<path fill="#009b3a" d="
  M 746.09 429.42
  A 1.84 1.83 -27.0 0 0 747.09 426.35
  Q 744.36 423.49 741.61 420.42
  C 739.25 417.79 739.65 414.09 742.73 412.42
  C 746.21 410.54 750.84 413.42 753.47 415.70
  Q 757.01 418.77 755.45 422.84
  Q 755.12 423.72 754.33 423.21
  L 751.82 421.58
  Q 751.36 421.29 751.56 420.78
  C 752.66 417.96 746.97 414.01 745.16 416.03
  A 1.93 1.93 0.0 0 0 745.28 418.72
  C 748.28 421.53 756.04 428.05 749.94 432.18
  C 744.50 435.87 732.93 427.46 736.14 421.27
  A 0.48 0.48 0.0 0 1 736.83 421.09
  L 739.71 422.96
  Q 740.12 423.23 739.98 423.70
  L 739.77 424.40
  Q 739.63 424.89 739.86 425.34
  C 740.72 427.06 743.75 429.86 746.09 429.42
  Z"
/>
<path fill="#ffffff" d="
  M 521.92 426.26
  L 526.47 426.14
  A 0.32 0.32 0.0 0 1 526.66 426.73
  L 522.92 429.32
  A 0.32 0.32 0.0 0 0 522.80 429.69
  L 524.32 433.98
  A 0.32 0.32 0.0 0 1 523.82 434.34
  L 520.20 431.59
  A 0.32 0.32 0.0 0 0 519.81 431.59
  L 516.20 434.35
  A 0.32 0.32 0.0 0 1 515.70 433.99
  L 517.20 429.70
  A 0.32 0.32 0.0 0 0 517.08 429.33
  L 513.33 426.75
  A 0.32 0.32 0.0 0 1 513.52 426.17
  L 518.07 426.26
  A 0.32 0.32 0.0 0 0 518.38 426.04
  L 519.68 421.67
  A 0.32 0.32 0.0 0 1 520.29 421.67
  L 521.61 426.03
  A 0.32 0.32 0.0 0 0 521.92 426.26
  Z"
/>
<path fill="#009b3a" d="
  M 768.66 442.74
  C 769.68 439.25 759.89 434.82 762.14 429.59
  C 764.88 423.21 771.90 427.38 775.13 430.43
  Q 778.85 433.93 776.74 438.20
  A 0.41 0.40 -59.6 0 1 776.15 438.36
  L 773.48 436.55
  Q 772.96 436.20 773.12 435.60
  L 773.34 434.77
  Q 773.47 434.30 773.27 433.84
  C 772.54 432.21 768.78 428.35 766.84 430.70
  A 1.81 1.79 -46.4 0 0 766.89 433.06
  Q 769.40 435.84 771.71 438.66
  C 775.93 443.84 771.03 449.59 765.32 447.16
  C 761.07 445.34 754.95 440.54 757.62 435.40
  Q 757.94 434.79 758.50 435.19
  L 761.15 437.06
  Q 761.56 437.36 761.40 437.84
  C 760.41 440.79 763.98 443.06 766.33 443.91
  A 1.79 1.79 0.0 0 0 768.66 442.74
  Z"
/>
<path fill="#009b3a" d="
  M 781.9335 460.4026
  A 9.97 8.97 128.5 0 1 781.1200 447.0160
  A 9.97 8.97 128.5 0 1 794.3465 444.7974
  A 9.97 8.97 128.5 0 1 795.1600 458.1840
  A 9.97 8.97 128.5 0 1 781.9335 460.4026
  Z
  M 784.2368 457.5170
  A 6.27 5.27 128.5 0 0 792.2643 455.8907
  A 6.27 5.27 128.5 0 0 792.0432 447.7030
  A 6.27 5.27 128.5 0 0 784.0157 449.3293
  A 6.27 5.27 128.5 0 0 784.2368 457.5170
  Z"
/>
<path fill="#ffffff" d="
  M 601.92 451.40
  L 606.48 451.30
  A 0.32 0.32 0.0 0 1 606.67 451.88
  L 602.92 454.48
  A 0.32 0.32 0.0 0 0 602.80 454.85
  L 604.31 459.15
  A 0.32 0.32 0.0 0 1 603.81 459.51
  L 600.18 456.75
  A 0.32 0.32 0.0 0 0 599.80 456.75
  L 596.17 459.51
  A 0.32 0.32 0.0 0 1 595.67 459.15
  L 597.18 454.85
  A 0.32 0.32 0.0 0 0 597.06 454.48
  L 593.31 451.88
  A 0.32 0.32 0.0 0 1 593.50 451.30
  L 598.06 451.40
  A 0.32 0.32 0.0 0 0 598.37 451.17
  L 599.68 446.81
  A 0.32 0.32 0.0 0 1 600.30 446.81
  L 601.61 451.17
  A 0.32 0.32 0.0 0 0 601.92 451.40
  Z"
/>
<ellipse fill="#ffffff" cx="0.00" cy="0.00" transform="translate(788.14,452.61) rotate(128.5)" rx="6.27" ry="5.27"/>
<path fill="#ffffff" d="
  M 468.95 456.30
  L 471.07 456.27
  A 0.32 0.32 0.0 0 1 471.26 456.85
  L 469.54 458.08
  A 0.32 0.32 0.0 0 0 469.43 458.45
  L 470.11 460.45
  A 0.32 0.32 0.0 0 1 469.62 460.81
  L 467.91 459.56
  A 0.32 0.32 0.0 0 0 467.53 459.56
  L 465.83 460.83
  A 0.32 0.32 0.0 0 1 465.34 460.48
  L 466.00 458.47
  A 0.32 0.32 0.0 0 0 465.88 458.10
  L 464.15 456.88
  A 0.32 0.32 0.0 0 1 464.34 456.30
  L 466.45 456.31
  A 0.32 0.32 0.0 0 0 466.76 456.09
  L 467.39 454.06
  A 0.32 0.32 0.0 0 1 468.00 454.06
  L 468.64 456.08
  A 0.32 0.32 0.0 0 0 468.95 456.30
  Z"
/>
<path fill="#ffffff" d="
  M 449.40 467.89
  L 455.02 467.72
  A 0.34 0.34 0.0 0 1 455.22 468.34
  L 450.58 471.51
  A 0.34 0.34 0.0 0 0 450.45 471.91
  L 452.34 477.20
  A 0.34 0.34 0.0 0 1 451.81 477.58
  L 447.37 474.15
  A 0.34 0.34 0.0 0 0 446.95 474.15
  L 442.51 477.58
  A 0.34 0.34 0.0 0 1 441.98 477.20
  L 443.87 471.91
  A 0.34 0.34 0.0 0 0 443.74 471.51
  L 439.10 468.34
  A 0.34 0.34 0.0 0 1 439.30 467.72
  L 444.92 467.89
  A 0.34 0.34 0.0 0 0 445.25 467.64
  L 446.83 462.25
  A 0.34 0.34 0.0 0 1 447.49 462.25
  L 449.07 467.64
  A 0.34 0.34 0.0 0 0 449.40 467.89
  Z"
/>
<path fill="#ffffff" d="
  M 626.23 470.29
  L 630.74 470.19
  A 0.32 0.32 0.0 0 1 630.93 470.77
  L 627.23 473.35
  A 0.32 0.32 0.0 0 0 627.11 473.72
  L 628.60 477.98
  A 0.32 0.32 0.0 0 1 628.11 478.34
  L 624.51 475.62
  A 0.32 0.32 0.0 0 0 624.12 475.62
  L 620.53 478.35
  A 0.32 0.32 0.0 0 1 620.04 477.99
  L 621.51 473.73
  A 0.32 0.32 0.0 0 0 621.39 473.36
  L 617.68 470.79
  A 0.32 0.32 0.0 0 1 617.87 470.21
  L 622.38 470.29
  A 0.32 0.32 0.0 0 0 622.69 470.07
  L 623.99 465.74
  A 0.32 0.32 0.0 0 1 624.60 465.74
  L 625.92 470.06
  A 0.32 0.32 0.0 0 0 626.23 470.29
  Z"
/>
<path fill="#ffffff" d="
  M 580.42 470.75
  L 583.85 470.63
  A 0.32 0.32 0.0 0 1 584.05 471.22
  L 581.21 473.14
  A 0.32 0.32 0.0 0 0 581.09 473.52
  L 582.26 476.74
  A 0.32 0.32 0.0 0 1 581.76 477.11
  L 579.05 475.00
  A 0.32 0.32 0.0 0 0 578.66 475.00
  L 575.95 477.12
  A 0.32 0.32 0.0 0 1 575.46 476.76
  L 576.62 473.53
  A 0.32 0.32 0.0 0 0 576.50 473.15
  L 573.65 471.23
  A 0.32 0.32 0.0 0 1 573.84 470.65
  L 577.27 470.76
  A 0.32 0.32 0.0 0 0 577.59 470.52
  L 578.53 467.23
  A 0.32 0.32 0.0 0 1 579.15 467.22
  L 580.11 470.52
  A 0.32 0.32 0.0 0 0 580.42 470.75
  Z"
/>
<path fill="#ffffff" d="
  M 423.37 487.13
  L 427.86 487.03
  A 0.33 0.33 0.0 0 1 428.05 487.63
  L 424.37 490.19
  A 0.33 0.33 0.0 0 0 424.24 490.57
  L 425.72 494.81
  A 0.33 0.33 0.0 0 1 425.21 495.18
  L 421.64 492.46
  A 0.33 0.33 0.0 0 0 421.24 492.46
  L 417.67 495.18
  A 0.33 0.33 0.0 0 1 417.16 494.81
  L 418.64 490.57
  A 0.33 0.33 0.0 0 0 418.51 490.19
  L 414.83 487.63
  A 0.33 0.33 0.0 0 1 415.02 487.03
  L 419.51 487.13
  A 0.33 0.33 0.0 0 0 419.83 486.90
  L 421.12 482.60
  A 0.33 0.33 0.0 0 1 421.76 482.60
  L 423.05 486.90
  A 0.33 0.33 0.0 0 0 423.37 487.13
  Z"
/>
<path fill="#ffffff" d="
  M 590.65 485.83
  L 592.85 485.75
  A 0.31 0.31 0.0 0 1 593.04 486.32
  L 591.20 487.55
  A 0.31 0.31 0.0 0 0 591.08 487.91
  L 591.84 489.99
  A 0.31 0.31 0.0 0 1 591.35 490.34
  L 589.62 488.97
  A 0.31 0.31 0.0 0 0 589.24 488.97
  L 587.49 490.33
  A 0.31 0.31 0.0 0 1 587.01 489.98
  L 587.78 487.91
  A 0.31 0.31 0.0 0 0 587.66 487.54
  L 585.83 486.31
  A 0.31 0.31 0.0 0 1 586.01 485.74
  L 588.22 485.82
  A 0.31 0.31 0.0 0 0 588.53 485.60
  L 589.14 483.48
  A 0.31 0.31 0.0 0 1 589.73 483.48
  L 590.34 485.60
  A 0.31 0.31 0.0 0 0 590.65 485.83
  Z"
/>
<path fill="#ffffff" d="
  M 492.77 489.13
  L 497.28 489.03
  A 0.32 0.32 0.0 0 1 497.47 489.61
  L 493.77 492.19
  A 0.32 0.32 0.0 0 0 493.65 492.56
  L 495.14 496.82
  A 0.32 0.32 0.0 0 1 494.65 497.18
  L 491.05 494.46
  A 0.32 0.32 0.0 0 0 490.66 494.46
  L 487.07 497.19
  A 0.32 0.32 0.0 0 1 486.58 496.83
  L 488.05 492.57
  A 0.32 0.32 0.0 0 0 487.93 492.20
  L 484.22 489.63
  A 0.32 0.32 0.0 0 1 484.41 489.05
  L 488.92 489.13
  A 0.32 0.32 0.0 0 0 489.23 488.91
  L 490.53 484.58
  A 0.32 0.32 0.0 0 1 491.14 484.58
  L 492.46 488.90
  A 0.32 0.32 0.0 0 0 492.77 489.13
  Z"
/>
<path fill="#ffffff" d="
  M 749.39 491.02
  L 754.96 490.89
  A 0.33 0.33 0.0 0 1 755.15 491.49
  L 750.57 494.66
  A 0.33 0.33 0.0 0 0 750.45 495.04
  L 752.29 500.30
  A 0.33 0.33 0.0 0 1 751.78 500.67
  L 747.35 497.29
  A 0.33 0.33 0.0 0 0 746.95 497.29
  L 742.52 500.67
  A 0.33 0.33 0.0 0 1 742.01 500.30
  L 743.85 495.04
  A 0.33 0.33 0.0 0 0 743.73 494.66
  L 739.15 491.49
  A 0.33 0.33 0.0 0 1 739.34 490.89
  L 744.91 491.02
  A 0.33 0.33 0.0 0 0 745.24 490.78
  L 746.83 485.45
  A 0.33 0.33 0.0 0 1 747.47 485.45
  L 749.06 490.78
  A 0.33 0.33 0.0 0 0 749.39 491.02
  Z"
/>
<path fill="#ffffff" d="
  M 777.87 493.92
  L 781.34 493.79
  A 0.32 0.32 0.0 0 1 781.53 494.38
  L 778.65 496.31
  A 0.32 0.32 0.0 0 0 778.53 496.68
  L 779.72 499.93
  A 0.32 0.32 0.0 0 1 779.22 500.30
  L 776.50 498.16
  A 0.32 0.32 0.0 0 0 776.10 498.16
  L 773.38 500.30
  A 0.32 0.32 0.0 0 1 772.88 499.93
  L 774.07 496.68
  A 0.32 0.32 0.0 0 0 773.95 496.31
  L 771.07 494.38
  A 0.32 0.32 0.0 0 1 771.26 493.79
  L 774.73 493.92
  A 0.32 0.32 0.0 0 0 775.05 493.69
  L 775.99 490.35
  A 0.32 0.32 0.0 0 1 776.61 490.35
  L 777.55 493.69
  A 0.32 0.32 0.0 0 0 777.87 493.92
  Z"
/>
<path fill="#ffffff" d="
  M 757.61 510.05
  L 762.11 509.94
  A 0.31 0.31 0.0 0 1 762.30 510.51
  L 758.60 513.09
  A 0.31 0.31 0.0 0 0 758.48 513.44
  L 759.98 517.70
  A 0.31 0.31 0.0 0 1 759.50 518.05
  L 755.90 515.32
  A 0.31 0.31 0.0 0 0 755.53 515.32
  L 751.94 518.06
  A 0.31 0.31 0.0 0 1 751.46 517.71
  L 752.94 513.45
  A 0.31 0.31 0.0 0 0 752.83 513.10
  L 749.12 510.53
  A 0.31 0.31 0.0 0 1 749.30 509.97
  L 753.81 510.06
  A 0.31 0.31 0.0 0 0 754.11 509.84
  L 755.40 505.52
  A 0.31 0.31 0.0 0 1 755.99 505.52
  L 757.30 509.83
  A 0.31 0.31 0.0 0 0 757.61 510.05
  Z"
/>
<path fill="#ffffff" d="
  M 602.26 511.57
  L 607.83 511.44
  A 0.34 0.34 0.0 0 1 608.03 512.06
  L 603.45 515.22
  A 0.34 0.34 0.0 0 0 603.32 515.61
  L 605.17 520.87
  A 0.34 0.34 0.0 0 1 604.64 521.25
  L 600.22 517.87
  A 0.34 0.34 0.0 0 0 599.80 517.87
  L 595.38 521.25
  A 0.34 0.34 0.0 0 1 594.85 520.87
  L 596.70 515.61
  A 0.34 0.34 0.0 0 0 596.57 515.22
  L 591.99 512.06
  A 0.34 0.34 0.0 0 1 592.19 511.44
  L 597.76 511.57
  A 0.34 0.34 0.0 0 0 598.09 511.33
  L 599.68 505.99
  A 0.34 0.34 0.0 0 1 600.34 505.99
  L 601.93 511.33
  A 0.34 0.34 0.0 0 0 602.26 511.57
  Z"
/>
<path fill="#ffffff" d="
  M 486.16 510.39
  L 489.54 510.31
  A 0.32 0.32 0.0 0 1 489.73 510.90
  L 486.96 512.83
  A 0.32 0.32 0.0 0 0 486.84 513.20
  L 487.95 516.38
  A 0.32 0.32 0.0 0 1 487.46 516.74
  L 484.77 514.71
  A 0.32 0.32 0.0 0 0 484.38 514.71
  L 481.70 516.75
  A 0.32 0.32 0.0 0 1 481.20 516.39
  L 482.30 513.20
  A 0.32 0.32 0.0 0 0 482.18 512.84
  L 479.41 510.91
  A 0.32 0.32 0.0 0 1 479.60 510.33
  L 482.97 510.40
  A 0.32 0.32 0.0 0 0 483.28 510.17
  L 484.25 506.94
  A 0.32 0.32 0.0 0 1 484.87 506.93
  L 485.85 510.16
  A 0.32 0.32 0.0 0 0 486.16 510.39
  Z"
/>
<path fill="#ffffff" d="
  M 744.77 526.85
  L 749.34 526.72
  A 0.32 0.32 0.0 0 1 749.53 527.30
  L 745.77 529.89
  A 0.32 0.32 0.0 0 0 745.65 530.26
  L 747.18 534.57
  A 0.32 0.32 0.0 0 1 746.69 534.93
  L 743.06 532.15
  A 0.32 0.32 0.0 0 0 742.67 532.15
  L 739.05 534.94
  A 0.32 0.32 0.0 0 1 738.55 534.58
  L 740.08 530.27
  A 0.32 0.32 0.0 0 0 739.96 529.90
  L 736.18 527.33
  A 0.32 0.32 0.0 0 1 736.37 526.74
  L 740.94 526.86
  A 0.32 0.32 0.0 0 0 741.26 526.63
  L 742.54 522.24
  A 0.32 0.32 0.0 0 1 743.15 522.24
  L 744.46 526.62
  A 0.32 0.32 0.0 0 0 744.77 526.85
  Z"
/>
<path fill="#ffffff" d="
  M 517.94 528.72
  L 523.51 528.59
  A 0.33 0.33 0.0 0 1 523.70 529.19
  L 519.12 532.36
  A 0.33 0.33 0.0 0 0 519.00 532.74
  L 520.84 538.00
  A 0.33 0.33 0.0 0 1 520.33 538.37
  L 515.90 534.99
  A 0.33 0.33 0.0 0 0 515.50 534.99
  L 511.07 538.37
  A 0.33 0.33 0.0 0 1 510.56 538.00
  L 512.40 532.74
  A 0.33 0.33 0.0 0 0 512.28 532.36
  L 507.70 529.19
  A 0.33 0.33 0.0 0 1 507.89 528.59
  L 513.46 528.72
  A 0.33 0.33 0.0 0 0 513.79 528.48
  L 515.38 523.15
  A 0.33 0.33 0.0 0 1 516.02 523.15
  L 517.61 528.48
  A 0.33 0.33 0.0 0 0 517.94 528.72
  Z"
/>
<path fill="#ffffff" d="
  M 705.87 533.92
  L 709.34 533.79
  A 0.32 0.32 0.0 0 1 709.53 534.38
  L 706.65 536.31
  A 0.32 0.32 0.0 0 0 706.53 536.68
  L 707.72 539.93
  A 0.32 0.32 0.0 0 1 707.22 540.30
  L 704.50 538.16
  A 0.32 0.32 0.0 0 0 704.10 538.16
  L 701.38 540.30
  A 0.32 0.32 0.0 0 1 700.88 539.93
  L 702.07 536.68
  A 0.32 0.32 0.0 0 0 701.95 536.31
  L 699.07 534.38
  A 0.32 0.32 0.0 0 1 699.26 533.79
  L 702.73 533.92
  A 0.32 0.32 0.0 0 0 703.05 533.69
  L 703.99 530.35
  A 0.32 0.32 0.0 0 1 704.61 530.35
  L 705.55 533.69
  A 0.32 0.32 0.0 0 0 705.87 533.92
  Z"
/>
<path fill="#ffffff" d="
  M 647.87 535.92
  L 651.34 535.79
  A 0.32 0.32 0.0 0 1 651.53 536.38
  L 648.65 538.31
  A 0.32 0.32 0.0 0 0 648.53 538.68
  L 649.72 541.93
  A 0.32 0.32 0.0 0 1 649.22 542.30
  L 646.50 540.16
  A 0.32 0.32 0.0 0 0 646.10 540.16
  L 643.38 542.30
  A 0.32 0.32 0.0 0 1 642.88 541.93
  L 644.07 538.68
  A 0.32 0.32 0.0 0 0 643.95 538.31
  L 641.07 536.38
  A 0.32 0.32 0.0 0 1 641.26 535.79
  L 644.73 535.92
  A 0.32 0.32 0.0 0 0 645.05 535.69
  L 645.99 532.35
  A 0.32 0.32 0.0 0 1 646.61 532.35
  L 647.55 535.69
  A 0.32 0.32 0.0 0 0 647.87 535.92
  Z"
/>
<path fill="#ffffff" d="
  M 727.59 537.91
  L 731.06 537.78
  A 0.32 0.32 0.0 0 1 731.25 538.37
  L 728.37 540.30
  A 0.32 0.32 0.0 0 0 728.25 540.67
  L 729.44 543.92
  A 0.32 0.32 0.0 0 1 728.94 544.29
  L 726.22 542.15
  A 0.32 0.32 0.0 0 0 725.82 542.15
  L 723.10 544.29
  A 0.32 0.32 0.0 0 1 722.60 543.92
  L 723.79 540.67
  A 0.32 0.32 0.0 0 0 723.67 540.30
  L 720.79 538.37
  A 0.32 0.32 0.0 0 1 720.98 537.78
  L 724.45 537.91
  A 0.32 0.32 0.0 0 0 724.77 537.68
  L 725.71 534.34
  A 0.32 0.32 0.0 0 1 726.33 534.34
  L 727.27 537.68
  A 0.32 0.32 0.0 0 0 727.59 537.91
  Z"
/>
<path fill="#ffffff" d="
  M 682.41 541.08
  L 685.80 540.96
  A 0.32 0.32 0.0 0 1 686.00 541.54
  L 683.19 543.45
  A 0.32 0.32 0.0 0 0 683.07 543.82
  L 684.23 547.01
  A 0.32 0.32 0.0 0 1 683.73 547.37
  L 681.05 545.29
  A 0.32 0.32 0.0 0 0 680.66 545.29
  L 677.98 547.38
  A 0.32 0.32 0.0 0 1 677.49 547.02
  L 678.64 543.83
  A 0.32 0.32 0.0 0 0 678.51 543.46
  L 675.70 541.56
  A 0.32 0.32 0.0 0 1 675.89 540.97
  L 679.28 541.08
  A 0.32 0.32 0.0 0 0 679.60 540.85
  L 680.53 537.59
  A 0.32 0.32 0.0 0 1 681.15 537.59
  L 682.09 540.85
  A 0.32 0.32 0.0 0 0 682.41 541.08
  Z"
/>
<path fill="#ffffff" d="
  M 707.05 554.07
  L 711.58 553.95
  A 0.32 0.32 0.0 0 1 711.77 554.53
  L 708.02 557.09
  A 0.32 0.32 0.0 0 0 707.90 557.46
  L 709.42 561.73
  A 0.32 0.32 0.0 0 1 708.92 562.09
  L 705.33 559.32
  A 0.32 0.32 0.0 0 0 704.94 559.32
  L 701.34 562.08
  A 0.32 0.32 0.0 0 1 700.85 561.72
  L 702.37 557.45
  A 0.32 0.32 0.0 0 0 702.25 557.08
  L 698.52 554.51
  A 0.32 0.32 0.0 0 1 698.71 553.92
  L 703.24 554.06
  A 0.32 0.32 0.0 0 0 703.56 553.83
  L 704.85 549.48
  A 0.32 0.32 0.0 0 1 705.46 549.48
  L 706.73 553.84
  A 0.32 0.32 0.0 0 0 707.05 554.07
  Z"
/>
<path fill="#ffffff" d="
  M 664.76 559.12
  L 669.31 559.01
  A 0.31 0.31 0.0 0 1 669.49 559.58
  L 665.77 562.19
  A 0.31 0.31 0.0 0 0 665.66 562.55
  L 667.16 566.84
  A 0.31 0.31 0.0 0 1 666.68 567.19
  L 663.05 564.46
  A 0.31 0.31 0.0 0 0 662.67 564.46
  L 659.06 567.22
  A 0.31 0.31 0.0 0 1 658.58 566.87
  L 660.05 562.57
  A 0.31 0.31 0.0 0 0 659.93 562.21
  L 656.19 559.62
  A 0.31 0.31 0.0 0 1 656.38 559.06
  L 660.92 559.13
  A 0.31 0.31 0.0 0 0 661.22 558.91
  L 662.53 554.56
  A 0.31 0.31 0.0 0 1 663.12 554.55
  L 664.46 558.90
  A 0.31 0.31 0.0 0 0 664.76 559.12
  Z"
/>
<path fill="#ffffff" d="
  M 706.43 575.61
  L 709.86 575.49
  A 0.32 0.32 0.0 0 1 710.05 576.08
  L 707.22 578.00
  A 0.32 0.32 0.0 0 0 707.10 578.38
  L 708.26 581.60
  A 0.32 0.32 0.0 0 1 707.77 581.96
  L 705.06 579.86
  A 0.32 0.32 0.0 0 0 704.67 579.86
  L 701.97 581.97
  A 0.32 0.32 0.0 0 1 701.47 581.61
  L 702.63 578.39
  A 0.32 0.32 0.0 0 0 702.51 578.01
  L 699.67 576.10
  A 0.32 0.32 0.0 0 1 699.86 575.51
  L 703.28 575.62
  A 0.32 0.32 0.0 0 0 703.60 575.38
  L 704.54 572.09
  A 0.32 0.32 0.0 0 1 705.16 572.09
  L 706.12 575.38
  A 0.32 0.32 0.0 0 0 706.43 575.61
  Z"
/>
<path fill="#ffffff" d="
  M 601.50 584.22
  Q 601.40 584.94 601.57 585.65
  Q 601.78 586.54 600.97 586.13
  Q 600.02 585.66 599.07 586.09
  Q 598.14 586.50 598.50 585.55
  Q 598.95 584.34 597.89 583.68
  Q 597.34 583.34 597.97 583.21
  Q 598.76 583.05 599.43 582.55
  Q 599.89 582.21 600.41 582.46
  L 601.99 583.20
  Q 602.62 583.50 602.00 583.81
  L 601.69 583.97
  Q 601.53 584.05 601.50 584.22
  Z"
/>
</svg>
