<?xml version="1.0" encoding="UTF-8" standalone="no"?>
<!DOCTYPE svg PUBLIC "-//W3C//DTD SVG 1.1//EN" "http://www.w3.org/Graphics/SVG/1.1/DTD/svg11.dtd">
<svg xmlns="http://www.w3.org/2000/svg" version="1.1" viewBox="0.00 0.00 512.00 512.00">
<path fill="#41479b" d="
  M 159.68 88.22
  Q 164.75 89.35 166.67 93.19
  Q 167.73 95.33 167.73 100.97
  Q 167.75 173.49 167.71 246.00
  Q 167.70 253.63 160.82 255.72
  C 159.75 255.70 158.69 255.99 157.72 255.99
  Q 83.61 256.01 9.50 255.98
  Q 3.21 255.98 0.00 249.54
  L 0.00 95.25
  Q 1.40 90.85 5.05 89.12
  Q 7.14 88.13 12.35 88.11
  Q 86.05 87.94 159.68 88.22
  Z
  M 71.34 159.75
  Q 58.63 159.75 46.31 159.97
  C 44.49 160.00 42.56 160.60 42.14 162.64
  Q 41.63 165.09 43.64 166.59
  Q 53.96 174.27 64.42 181.93
  A 0.61 0.60 -63.8 0 1 64.64 182.59
  Q 61.02 193.92 57.38 205.50
  C 56.48 208.36 56.07 211.09 59.46 212.08
  C 60.57 212.41 61.86 211.71 62.74 211.10
  Q 73.43 203.65 83.61 196.26
  A 0.44 0.42 44.2 0 1 84.10 196.26
  Q 94.50 203.70 104.93 211.15
  Q 108.22 213.50 110.54 210.46
  C 111.12 209.70 111.16 208.23 110.89 207.36
  Q 107.19 195.36 103.13 182.76
  Q 102.95 182.20 103.42 181.86
  Q 113.57 174.38 123.83 166.79
  C 126.99 164.46 126.09 160.15 121.94 160.03
  Q 110.75 159.70 96.31 159.77
  Q 95.71 159.77 95.52 159.20
  Q 91.16 146.21 87.61 135.58
  C 87.10 134.04 86.09 132.24 84.25 132.17
  Q 81.32 132.04 80.28 135.09
  Q 76.29 146.90 72.24 159.09
  Q 72.03 159.75 71.34 159.75
  Z"
/>
<path fill="#f5f5f5" d="
  M 159.68 88.22
  Q 331.01 88.32 502.25 88.27
  Q 510.50 88.27 512.00 96.63
  L 512.00 255.99
  L 160.82 255.72
  Q 167.70 253.63 167.71 246.00
  Q 167.75 173.49 167.73 100.97
  Q 167.73 95.33 166.67 93.19
  Q 164.75 89.35 159.68 88.22
  Z"
/>
<path fill="#f5f5f5" d="
  M 72.24 159.09
  Q 76.29 146.90 80.28 135.09
  Q 81.32 132.04 84.25 132.17
  C 86.09 132.24 87.10 134.04 87.61 135.58
  Q 91.16 146.21 95.52 159.20
  Q 95.71 159.77 96.31 159.77
  Q 110.75 159.70 121.94 160.03
  C 126.09 160.15 126.99 164.46 123.83 166.79
  Q 113.57 174.38 103.42 181.86
  Q 102.95 182.20 103.13 182.76
  Q 107.19 195.36 110.89 207.36
  C 111.16 208.23 111.12 209.70 110.54 210.46
  Q 108.22 213.50 104.93 211.15
  Q 94.50 203.70 84.10 196.26
  A 0.44 0.42 44.2 0 0 83.61 196.26
  Q 73.43 203.65 62.74 211.10
  C 61.86 211.71 60.57 212.41 59.46 212.08
  C 56.07 211.09 56.48 208.36 57.38 205.50
  Q 61.02 193.92 64.64 182.59
  A 0.61 0.60 -63.8 0 0 64.42 181.93
  Q 53.96 174.27 43.64 166.59
  Q 41.63 165.09 42.14 162.64
  C 42.56 160.60 44.49 160.00 46.31 159.97
  Q 58.63 159.75 71.34 159.75
  Q 72.03 159.75 72.24 159.09
  Z"
/>
<path fill="#ff4b55" d="
  M 0.00 249.54
  Q 3.21 255.98 9.50 255.98
  Q 83.61 256.01 157.72 255.99
  C 158.69 255.99 159.75 255.70 160.82 255.72
  L 512.00 255.99
  L 512.00 415.50
  Q 510.44 423.73 502.75 423.73
  Q 256.37 423.73 10.00 423.73
  Q 1.50 423.73 0.00 415.37
  L 0.00 249.54
  Z"
/>
</svg>
