<?xml version="1.0" encoding="UTF-8" standalone="no"?>
<!DOCTYPE svg PUBLIC "-//W3C//DTD SVG 1.1//EN" "http://www.w3.org/Graphics/SVG/1.1/DTD/svg11.dtd">
<svg xmlns="http://www.w3.org/2000/svg" version="1.1" viewBox="0.00 0.00 512.00 512.00">
<path fill="#0052b4" d="
  M 512.00 88.08
  L 512.00 423.93
  L 0.00 423.93
  L 0.00 88.09
  L 512.00 88.08
  Z
  M 262.13 162.80
  A 0.30 0.30 0.0 0 1 261.84 162.59
  L 256.29 145.04
  A 0.30 0.30 0.0 0 0 255.71 145.04
  L 250.16 162.59
  A 0.30 0.30 0.0 0 1 249.87 162.80
  L 231.47 162.66
  A 0.30 0.30 0.0 0 0 231.29 163.20
  L 246.26 173.91
  A 0.30 0.30 0.0 0 1 246.37 174.25
  L 240.55 191.70
  A 0.30 0.30 0.0 0 0 241.02 192.04
  L 255.82 181.11
  A 0.30 0.30 0.0 0 1 256.18 181.11
  L 270.98 192.04
  A 0.30 0.30 0.0 0 0 271.45 191.70
  L 265.63 174.25
  A 0.30 0.30 0.0 0 1 265.74 173.91
  L 280.71 163.20
  A 0.30 0.30 0.0 0 0 280.53 162.66
  L 262.13 162.80
  Z
  M 204.71 191.29
  A 0.35 0.35 0.0 0 1 204.52 190.92
  L 207.48 172.99
  A 0.35 0.35 0.0 0 0 206.89 172.69
  L 194.12 185.62
  A 0.35 0.35 0.0 0 1 193.71 185.69
  L 177.57 177.33
  A 0.35 0.35 0.0 0 0 177.09 177.81
  L 185.45 193.95
  A 0.35 0.35 0.0 0 1 185.38 194.36
  L 172.45 207.13
  A 0.35 0.35 0.0 0 0 172.75 207.72
  L 190.68 204.76
  A 0.35 0.35 0.0 0 1 191.05 204.95
  L 199.20 221.20
  A 0.35 0.35 0.0 0 0 199.86 221.09
  L 202.59 203.13
  A 0.35 0.35 0.0 0 1 202.89 202.83
  L 220.85 200.10
  A 0.35 0.35 0.0 0 0 220.96 199.44
  L 204.71 191.29
  Z
  M 326.60 194.33
  A 0.31 0.31 0.0 0 1 326.54 193.96
  L 334.98 177.69
  A 0.31 0.31 0.0 0 0 334.56 177.27
  L 318.29 185.71
  A 0.31 0.31 0.0 0 1 317.92 185.65
  L 305.05 172.60
  A 0.31 0.31 0.0 0 0 304.53 172.87
  L 307.52 190.95
  A 0.31 0.31 0.0 0 1 307.35 191.28
  L 290.96 199.49
  A 0.31 0.31 0.0 0 0 291.06 200.07
  L 309.18 202.81
  A 0.31 0.31 0.0 0 1 309.44 203.07
  L 312.18 221.19
  A 0.31 0.31 0.0 0 0 312.76 221.29
  L 320.97 204.90
  A 0.31 0.31 0.0 0 1 321.30 204.73
  L 339.38 207.72
  A 0.31 0.31 0.0 0 0 339.65 207.20
  L 326.60 194.33
  Z
  M 174.02 246.40
  A 0.39 0.39 0.0 0 1 173.57 246.25
  L 163.05 231.40
  A 0.39 0.39 0.0 0 0 162.34 231.63
  L 162.56 249.83
  A 0.39 0.39 0.0 0 1 162.28 250.21
  L 144.90 255.63
  A 0.39 0.39 0.0 0 0 144.90 256.37
  L 162.28 261.79
  A 0.39 0.39 0.0 0 1 162.56 262.17
  L 162.34 280.37
  A 0.39 0.39 0.0 0 0 163.05 280.60
  L 173.57 265.75
  A 0.39 0.39 0.0 0 1 174.02 265.60
  L 191.26 271.43
  A 0.39 0.39 0.0 0 0 191.70 270.83
  L 180.82 256.23
  A 0.39 0.39 0.0 0 1 180.82 255.77
  L 191.70 241.17
  A 0.39 0.39 0.0 0 0 191.26 240.57
  L 174.02 246.40
  Z
  M 349.83 250.22
  A 0.49 0.49 0.0 0 1 349.48 249.75
  L 349.72 231.83
  A 0.49 0.49 0.0 0 0 348.83 231.55
  L 338.50 246.18
  A 0.49 0.49 0.0 0 1 337.94 246.36
  L 320.98 240.60
  A 0.49 0.49 0.0 0 0 320.43 241.35
  L 331.15 255.71
  A 0.49 0.49 0.0 0 1 331.15 256.29
  L 320.43 270.65
  A 0.49 0.49 0.0 0 0 320.98 271.40
  L 337.94 265.64
  A 0.49 0.49 0.0 0 1 338.50 265.82
  L 348.83 280.45
  A 0.49 0.49 0.0 0 0 349.72 280.17
  L 349.48 262.25
  A 0.49 0.49 0.0 0 1 349.83 261.78
  L 366.94 256.47
  A 0.49 0.49 0.0 0 0 366.94 255.53
  L 349.83 250.22
  Z
  M 202.86 309.16
  A 0.31 0.31 0.0 0 1 202.60 308.90
  L 199.84 290.79
  A 0.31 0.31 0.0 0 0 199.26 290.70
  L 191.04 307.07
  A 0.31 0.31 0.0 0 1 190.71 307.24
  L 172.64 304.26
  A 0.31 0.31 0.0 0 0 172.37 304.79
  L 185.40 317.66
  A 0.31 0.31 0.0 0 1 185.46 318.03
  L 177.04 334.30
  A 0.31 0.31 0.0 0 0 177.46 334.72
  L 193.73 326.30
  A 0.31 0.31 0.0 0 1 194.10 326.36
  L 206.97 339.39
  A 0.31 0.31 0.0 0 0 207.50 339.12
  L 204.52 321.05
  A 0.31 0.31 0.0 0 1 204.69 320.72
  L 221.06 312.50
  A 0.31 0.31 0.0 0 0 220.97 311.92
  L 202.86 309.16
  Z
  M 321.32 307.26
  A 0.36 0.36 0.0 0 1 320.94 307.07
  L 312.82 290.85
  A 0.36 0.36 0.0 0 0 312.15 290.96
  L 309.43 308.89
  A 0.36 0.36 0.0 0 1 309.13 309.19
  L 291.20 311.91
  A 0.36 0.36 0.0 0 0 291.09 312.58
  L 307.31 320.70
  A 0.36 0.36 0.0 0 1 307.50 321.08
  L 304.54 338.97
  A 0.36 0.36 0.0 0 0 305.15 339.29
  L 317.89 326.38
  A 0.36 0.36 0.0 0 1 318.31 326.31
  L 334.41 334.65
  A 0.36 0.36 0.0 0 0 334.89 334.17
  L 326.55 318.07
  A 0.36 0.36 0.0 0 1 326.62 317.65
  L 339.53 304.91
  A 0.36 0.36 0.0 0 0 339.21 304.30
  L 321.32 307.26
  Z
  M 265.78 338.12
  A 0.39 0.39 0.0 0 1 265.63 337.68
  L 271.46 320.42
  A 0.39 0.39 0.0 0 0 270.86 319.98
  L 256.24 330.86
  A 0.39 0.39 0.0 0 1 255.78 330.86
  L 241.16 319.98
  A 0.39 0.39 0.0 0 0 240.56 320.42
  L 246.39 337.68
  A 0.39 0.39 0.0 0 1 246.24 338.12
  L 231.39 348.66
  A 0.39 0.39 0.0 0 0 231.62 349.37
  L 249.83 349.16
  A 0.39 0.39 0.0 0 1 250.21 349.43
  L 255.64 366.82
  A 0.39 0.39 0.0 0 0 256.38 366.82
  L 261.81 349.43
  A 0.39 0.39 0.0 0 1 262.19 349.16
  L 280.40 349.37
  A 0.39 0.39 0.0 0 0 280.63 348.66
  L 265.78 338.12
  Z"
/>
<path fill="#ffda44" d="
  M 262.13 162.80
  L 280.53 162.66
  A 0.30 0.30 0.0 0 1 280.71 163.20
  L 265.74 173.91
  A 0.30 0.30 0.0 0 0 265.63 174.25
  L 271.45 191.70
  A 0.30 0.30 0.0 0 1 270.98 192.04
  L 256.18 181.11
  A 0.30 0.30 0.0 0 0 255.82 181.11
  L 241.02 192.04
  A 0.30 0.30 0.0 0 1 240.55 191.70
  L 246.37 174.25
  A 0.30 0.30 0.0 0 0 246.26 173.91
  L 231.29 163.20
  A 0.30 0.30 0.0 0 1 231.47 162.66
  L 249.87 162.80
  A 0.30 0.30 0.0 0 0 250.16 162.59
  L 255.71 145.04
  A 0.30 0.30 0.0 0 1 256.29 145.04
  L 261.84 162.59
  A 0.30 0.30 0.0 0 0 262.13 162.80
  Z"
/>
<path fill="#ffda44" d="
  M 204.71 191.29
  L 220.96 199.44
  A 0.35 0.35 0.0 0 1 220.85 200.10
  L 202.89 202.83
  A 0.35 0.35 0.0 0 0 202.59 203.13
  L 199.86 221.09
  A 0.35 0.35 0.0 0 1 199.20 221.20
  L 191.05 204.95
  A 0.35 0.35 0.0 0 0 190.68 204.76
  L 172.75 207.72
  A 0.35 0.35 0.0 0 1 172.45 207.13
  L 185.38 194.36
  A 0.35 0.35 0.0 0 0 185.45 193.95
  L 177.09 177.81
  A 0.35 0.35 0.0 0 1 177.57 177.33
  L 193.71 185.69
  A 0.35 0.35 0.0 0 0 194.12 185.62
  L 206.89 172.69
  A 0.35 0.35 0.0 0 1 207.48 172.99
  L 204.52 190.92
  A 0.35 0.35 0.0 0 0 204.71 191.29
  Z"
/>
<path fill="#ffda44" d="
  M 326.60 194.33
  L 339.65 207.20
  A 0.31 0.31 0.0 0 1 339.38 207.72
  L 321.30 204.73
  A 0.31 0.31 0.0 0 0 320.97 204.90
  L 312.76 221.29
  A 0.31 0.31 0.0 0 1 312.18 221.19
  L 309.44 203.07
  A 0.31 0.31 0.0 0 0 309.18 202.81
  L 291.06 200.07
  A 0.31 0.31 0.0 0 1 290.96 199.49
  L 307.35 191.28
  A 0.31 0.31 0.0 0 0 307.52 190.95
  L 304.53 172.87
  A 0.31 0.31 0.0 0 1 305.05 172.60
  L 317.92 185.65
  A 0.31 0.31 0.0 0 0 318.29 185.71
  L 334.56 177.27
  A 0.31 0.31 0.0 0 1 334.98 177.69
  L 326.54 193.96
  A 0.31 0.31 0.0 0 0 326.60 194.33
  Z"
/>
<path fill="#ffda44" d="
  M 174.02 246.40
  L 191.26 240.57
  A 0.39 0.39 0.0 0 1 191.70 241.17
  L 180.82 255.77
  A 0.39 0.39 0.0 0 0 180.82 256.23
  L 191.70 270.83
  A 0.39 0.39 0.0 0 1 191.26 271.43
  L 174.02 265.60
  A 0.39 0.39 0.0 0 0 173.57 265.75
  L 163.05 280.60
  A 0.39 0.39 0.0 0 1 162.34 280.37
  L 162.56 262.17
  A 0.39 0.39 0.0 0 0 162.28 261.79
  L 144.90 256.37
  A 0.39 0.39 0.0 0 1 144.90 255.63
  L 162.28 250.21
  A 0.39 0.39 0.0 0 0 162.56 249.83
  L 162.34 231.63
  A 0.39 0.39 0.0 0 1 163.05 231.40
  L 173.57 246.25
  A 0.39 0.39 0.0 0 0 174.02 246.40
  Z"
/>
<path fill="#ffda44" d="
  M 349.83 250.22
  L 366.94 255.53
  A 0.49 0.49 0.0 0 1 366.94 256.47
  L 349.83 261.78
  A 0.49 0.49 0.0 0 0 349.48 262.25
  L 349.72 280.17
  A 0.49 0.49 0.0 0 1 348.83 280.45
  L 338.50 265.82
  A 0.49 0.49 0.0 0 0 337.94 265.64
  L 320.98 271.40
  A 0.49 0.49 0.0 0 1 320.43 270.65
  L 331.15 256.29
  A 0.49 0.49 0.0 0 0 331.15 255.71
  L 320.43 241.35
  A 0.49 0.49 0.0 0 1 320.98 240.60
  L 337.94 246.36
  A 0.49 0.49 0.0 0 0 338.50 246.18
  L 348.83 231.55
  A 0.49 0.49 0.0 0 1 349.72 231.83
  L 349.48 249.75
  A 0.49 0.49 0.0 0 0 349.83 250.22
  Z"
/>
<path fill="#ffda44" d="
  M 202.86 309.16
  L 220.97 311.92
  A 0.31 0.31 0.0 0 1 221.06 312.50
  L 204.69 320.72
  A 0.31 0.31 0.0 0 0 204.52 321.05
  L 207.50 339.12
  A 0.31 0.31 0.0 0 1 206.97 339.39
  L 194.10 326.36
  A 0.31 0.31 0.0 0 0 193.73 326.30
  L 177.46 334.72
  A 0.31 0.31 0.0 0 1 177.04 334.30
  L 185.46 318.03
  A 0.31 0.31 0.0 0 0 185.40 317.66
  L 172.37 304.79
  A 0.31 0.31 0.0 0 1 172.64 304.26
  L 190.71 307.24
  A 0.31 0.31 0.0 0 0 191.04 307.07
  L 199.26 290.70
  A 0.31 0.31 0.0 0 1 199.84 290.79
  L 202.60 308.90
  A 0.31 0.31 0.0 0 0 202.86 309.16
  Z"
/>
<path fill="#ffda44" d="
  M 321.32 307.26
  L 339.21 304.30
  A 0.36 0.36 0.0 0 1 339.53 304.91
  L 326.62 317.65
  A 0.36 0.36 0.0 0 0 326.55 318.07
  L 334.89 334.17
  A 0.36 0.36 0.0 0 1 334.41 334.65
  L 318.31 326.31
  A 0.36 0.36 0.0 0 0 317.89 326.38
  L 305.15 339.29
  A 0.36 0.36 0.0 0 1 304.54 338.97
  L 307.50 321.08
  A 0.36 0.36 0.0 0 0 307.31 320.70
  L 291.09 312.58
  A 0.36 0.36 0.0 0 1 291.20 311.91
  L 309.13 309.19
  A 0.36 0.36 0.0 0 0 309.43 308.89
  L 312.15 290.96
  A 0.36 0.36 0.0 0 1 312.82 290.85
  L 320.94 307.07
  A 0.36 0.36 0.0 0 0 321.32 307.26
  Z"
/>
<path fill="#ffda44" d="
  M 265.78 338.12
  L 280.63 348.66
  A 0.39 0.39 0.0 0 1 280.40 349.37
  L 262.19 349.16
  A 0.39 0.39 0.0 0 0 261.81 349.43
  L 256.38 366.82
  A 0.39 0.39 0.0 0 1 255.64 366.82
  L 250.21 349.43
  A 0.39 0.39 0.0 0 0 249.83 349.16
  L 231.62 349.37
  A 0.39 0.39 0.0 0 1 231.39 348.66
  L 246.24 338.12
  A 0.39 0.39 0.0 0 0 246.39 337.68
  L 240.56 320.42
  A 0.39 0.39 0.0 0 1 241.16 319.98
  L 255.78 330.86
  A 0.39 0.39 0.0 0 0 256.24 330.86
  L 270.86 319.98
  A 0.39 0.39 0.0 0 1 271.46 320.42
  L 265.63 337.68
  A 0.39 0.39 0.0 0 0 265.78 338.12
  Z"
/>
</svg>
