<?xml version="1.0" encoding="UTF-8" standalone="no"?>
<!DOCTYPE svg PUBLIC "-//W3C//DTD SVG 1.1//EN" "http://www.w3.org/Graphics/SVG/1.1/DTD/svg11.dtd">
<svg xmlns="http://www.w3.org/2000/svg" version="1.1" viewBox="0.00 0.00 512.00 512.00">
<path fill="#41479b" d="
  M 170.73 88.28
  L 170.73 423.72
  Q 89.85 423.74 9.50 423.73
  Q 1.46 423.73 0.00 415.39
  L 0.00 96.49
  Q 0.99 91.16 5.08 89.27
  Q 7.19 88.30 13.05 88.29
  Q 91.90 88.25 170.73 88.28
  Z"
/>
<path fill="#f5f5f5" d="
  M 170.73 88.28
  L 341.08 88.28
  L 341.08 423.72
  L 170.73 423.72
  L 170.73 88.28
  Z"
/>
<path fill="#ff4b55" d="
  M 341.08 88.28
  Q 421.52 88.28 502.25 88.27
  Q 510.53 88.27 512.00 96.62
  L 512.00 415.50
  Q 510.99 420.84 506.91 422.72
  Q 504.81 423.69 498.94 423.69
  Q 420.26 423.76 341.08 423.72
  L 341.08 88.28
  Z"
/>
</svg>
