<?xml version="1.0" encoding="UTF-8" standalone="no"?>
<!DOCTYPE svg PUBLIC "-//W3C//DTD SVG 1.1//EN" "http://www.w3.org/Graphics/SVG/1.1/DTD/svg11.dtd">
<svg xmlns="http://www.w3.org/2000/svg" version="1.1" viewBox="0.00 0.00 512.00 512.00">
<path fill="#41479b" d="
  M 229.67 88.07
  Q 238.41 89.88 238.33 97.76
  Q 238.25 105.83 238.39 114.08
  L 238.36 139.84
  L 238.38 165.70
  L 238.42 191.50
  L 238.40 217.26
  L 238.40 243.07
  Q 238.26 251.34 238.29 259.25
  Q 238.32 265.47 232.97 268.09
  A 0.40 0.40 0.0 0 0 233.05 268.84
  L 233.46 268.94
  Q 121.85 269.02 10.25 268.98
  Q 2.80 268.98 0.00 262.33
  L 0.00 95.24
  Q 2.23 88.05 10.00 88.05
  Q 119.89 87.97 229.67 88.07
  Z
  M 74.87 114.43
  A 0.76 0.76 0.0 0 1 74.17 113.92
  L 72.31 108.62
  A 0.76 0.76 0.0 0 0 70.87 108.62
  L 69.01 113.92
  A 0.76 0.76 0.0 0 1 68.31 114.43
  L 62.69 114.56
  A 0.76 0.76 0.0 0 0 62.25 115.93
  L 66.71 119.34
  A 0.76 0.76 0.0 0 1 66.98 120.16
  L 65.37 125.55
  A 0.76 0.76 0.0 0 0 66.53 126.39
  L 71.16 123.20
  A 0.76 0.76 0.0 0 1 72.02 123.20
  L 76.65 126.39
  A 0.76 0.76 0.0 0 0 77.81 125.55
  L 76.20 120.16
  A 0.76 0.76 0.0 0 1 76.47 119.34
  L 80.93 115.93
  A 0.76 0.76 0.0 0 0 80.49 114.56
  L 74.87 114.43
  Z
  M 122.47 114.42
  A 0.76 0.76 0.0 0 1 121.77 113.91
  L 119.90 108.62
  A 0.76 0.76 0.0 0 0 118.46 108.62
  L 116.59 113.91
  A 0.76 0.76 0.0 0 1 115.89 114.42
  L 110.28 114.56
  A 0.76 0.76 0.0 0 0 109.84 115.93
  L 114.29 119.34
  A 0.76 0.76 0.0 0 1 114.56 120.16
  L 112.96 125.55
  A 0.76 0.76 0.0 0 0 114.12 126.39
  L 118.75 123.21
  A 0.76 0.76 0.0 0 1 119.61 123.21
  L 124.24 126.39
  A 0.76 0.76 0.0 0 0 125.40 125.55
  L 123.80 120.16
  A 0.76 0.76 0.0 0 1 124.07 119.34
  L 128.52 115.93
  A 0.76 0.76 0.0 0 0 128.08 114.56
  L 122.47 114.42
  Z
  M 170.04 114.43
  A 0.76 0.76 0.0 0 1 169.34 113.92
  L 167.48 108.62
  A 0.76 0.76 0.0 0 0 166.04 108.62
  L 164.18 113.92
  A 0.76 0.76 0.0 0 1 163.48 114.43
  L 157.87 114.57
  A 0.76 0.76 0.0 0 0 157.42 115.93
  L 161.88 119.34
  A 0.76 0.76 0.0 0 1 162.15 120.16
  L 160.55 125.54
  A 0.76 0.76 0.0 0 0 161.71 126.39
  L 166.33 123.20
  A 0.76 0.76 0.0 0 1 167.19 123.20
  L 171.81 126.39
  A 0.76 0.76 0.0 0 0 172.97 125.54
  L 171.37 120.16
  A 0.76 0.76 0.0 0 1 171.64 119.34
  L 176.10 115.93
  A 0.76 0.76 0.0 0 0 175.65 114.57
  L 170.04 114.43
  Z
  M 217.62 114.43
  A 0.76 0.76 0.0 0 1 216.92 113.92
  L 215.06 108.62
  A 0.76 0.76 0.0 0 0 213.62 108.62
  L 211.76 113.92
  A 0.76 0.76 0.0 0 1 211.06 114.43
  L 205.45 114.57
  A 0.76 0.76 0.0 0 0 205.00 115.93
  L 209.46 119.34
  A 0.76 0.76 0.0 0 1 209.73 120.16
  L 208.13 125.54
  A 0.76 0.76 0.0 0 0 209.29 126.39
  L 213.91 123.20
  A 0.76 0.76 0.0 0 1 214.77 123.20
  L 219.39 126.39
  A 0.76 0.76 0.0 0 0 220.55 125.54
  L 218.95 120.16
  A 0.76 0.76 0.0 0 1 219.22 119.34
  L 223.68 115.93
  A 0.76 0.76 0.0 0 0 223.23 114.57
  L 217.62 114.43
  Z
  M 27.29 114.45
  A 0.78 0.78 0.0 0 1 26.57 113.93
  L 24.74 108.61
  A 0.78 0.78 0.0 0 0 23.26 108.61
  L 21.43 113.93
  A 0.78 0.78 0.0 0 1 20.71 114.45
  L 15.09 114.55
  A 0.78 0.78 0.0 0 0 14.63 115.95
  L 19.12 119.33
  A 0.78 0.78 0.0 0 1 19.40 120.19
  L 17.76 125.56
  A 0.78 0.78 0.0 0 0 18.95 126.43
  L 23.55 123.20
  A 0.78 0.78 0.0 0 1 24.45 123.20
  L 29.05 126.43
  A 0.78 0.78 0.0 0 0 30.24 125.56
  L 28.60 120.19
  A 0.78 0.78 0.0 0 1 28.88 119.33
  L 33.37 115.95
  A 0.78 0.78 0.0 0 0 32.91 114.55
  L 27.29 114.45
  Z
  M 51.07 129.47
  A 0.76 0.76 0.0 0 1 50.37 128.96
  L 48.51 123.63
  A 0.76 0.76 0.0 0 0 47.07 123.63
  L 45.21 128.96
  A 0.76 0.76 0.0 0 1 44.51 129.47
  L 38.88 129.59
  A 0.76 0.76 0.0 0 0 38.43 130.95
  L 42.92 134.37
  A 0.76 0.76 0.0 0 1 43.19 135.19
  L 41.56 140.59
  A 0.76 0.76 0.0 0 0 42.72 141.43
  L 47.36 138.22
  A 0.76 0.76 0.0 0 1 48.22 138.22
  L 52.86 141.43
  A 0.76 0.76 0.0 0 0 54.02 140.59
  L 52.39 135.19
  A 0.76 0.76 0.0 0 1 52.66 134.37
  L 57.15 130.95
  A 0.76 0.76 0.0 0 0 56.70 129.59
  L 51.07 129.47
  Z
  M 98.64 129.45
  A 0.76 0.76 0.0 0 1 97.95 128.95
  L 96.07 123.65
  A 0.76 0.76 0.0 0 0 94.64 123.65
  L 92.78 128.96
  A 0.76 0.76 0.0 0 1 92.08 129.46
  L 86.46 129.61
  A 0.76 0.76 0.0 0 0 86.02 130.97
  L 90.49 134.38
  A 0.76 0.76 0.0 0 1 90.76 135.20
  L 89.16 140.59
  A 0.76 0.76 0.0 0 0 90.33 141.43
  L 94.95 138.23
  A 0.76 0.76 0.0 0 1 95.81 138.23
  L 100.44 141.41
  A 0.76 0.76 0.0 0 0 101.60 140.57
  L 99.98 135.18
  A 0.76 0.76 0.0 0 1 100.25 134.36
  L 104.71 130.94
  A 0.76 0.76 0.0 0 0 104.26 129.58
  L 98.64 129.45
  Z
  M 193.84 129.46
  A 0.76 0.76 0.0 0 1 193.14 128.95
  L 191.28 123.65
  A 0.76 0.76 0.0 0 0 189.84 123.65
  L 187.98 128.95
  A 0.76 0.76 0.0 0 1 187.28 129.46
  L 181.67 129.60
  A 0.76 0.76 0.0 0 0 181.22 130.96
  L 185.68 134.37
  A 0.76 0.76 0.0 0 1 185.95 135.19
  L 184.35 140.57
  A 0.76 0.76 0.0 0 0 185.51 141.42
  L 190.13 138.23
  A 0.76 0.76 0.0 0 1 190.99 138.23
  L 195.61 141.42
  A 0.76 0.76 0.0 0 0 196.77 140.57
  L 195.17 135.19
  A 0.76 0.76 0.0 0 1 195.44 134.37
  L 199.90 130.96
  A 0.76 0.76 0.0 0 0 199.45 129.60
  L 193.84 129.46
  Z
  M 146.26 129.48
  A 0.78 0.78 0.0 0 1 145.54 128.96
  L 143.71 123.65
  A 0.78 0.78 0.0 0 0 142.23 123.65
  L 140.40 128.96
  A 0.78 0.78 0.0 0 1 139.68 129.48
  L 134.07 129.58
  A 0.78 0.78 0.0 0 0 133.61 130.98
  L 138.09 134.36
  A 0.78 0.78 0.0 0 1 138.37 135.22
  L 136.73 140.58
  A 0.78 0.78 0.0 0 0 137.92 141.45
  L 142.52 138.23
  A 0.78 0.78 0.0 0 1 143.42 138.23
  L 148.02 141.45
  A 0.78 0.78 0.0 0 0 149.21 140.58
  L 147.57 135.22
  A 0.78 0.78 0.0 0 1 147.85 134.36
  L 152.33 130.98
  A 0.78 0.78 0.0 0 0 151.87 129.58
  L 146.26 129.48
  Z
  M 27.31 145.06
  A 0.78 0.78 0.0 0 1 26.60 144.54
  L 24.74 139.28
  A 0.78 0.78 0.0 0 0 23.26 139.28
  L 21.40 144.54
  A 0.78 0.78 0.0 0 1 20.69 145.06
  L 15.11 145.20
  A 0.78 0.78 0.0 0 0 14.66 146.60
  L 19.09 149.99
  A 0.78 0.78 0.0 0 1 19.36 150.83
  L 17.77 156.18
  A 0.78 0.78 0.0 0 0 18.96 157.04
  L 23.56 153.88
  A 0.78 0.78 0.0 0 1 24.44 153.88
  L 29.04 157.04
  A 0.78 0.78 0.0 0 0 30.23 156.18
  L 28.64 150.83
  A 0.78 0.78 0.0 0 1 28.91 149.99
  L 33.34 146.60
  A 0.78 0.78 0.0 0 0 32.89 145.20
  L 27.31 145.06
  Z
  M 74.87 145.08
  A 0.76 0.76 0.0 0 1 74.17 144.57
  L 72.31 139.25
  A 0.76 0.76 0.0 0 0 70.87 139.25
  L 69.01 144.57
  A 0.76 0.76 0.0 0 1 68.31 145.08
  L 62.68 145.20
  A 0.76 0.76 0.0 0 0 62.24 146.57
  L 66.72 149.98
  A 0.76 0.76 0.0 0 1 66.99 150.80
  L 65.37 156.19
  A 0.76 0.76 0.0 0 0 66.53 157.04
  L 71.16 153.83
  A 0.76 0.76 0.0 0 1 72.02 153.83
  L 76.65 157.04
  A 0.76 0.76 0.0 0 0 77.81 156.19
  L 76.19 150.80
  A 0.76 0.76 0.0 0 1 76.46 149.98
  L 80.94 146.57
  A 0.76 0.76 0.0 0 0 80.50 145.20
  L 74.87 145.08
  Z
  M 122.46 145.06
  A 0.76 0.76 0.0 0 1 121.76 144.56
  L 119.89 139.25
  A 0.76 0.76 0.0 0 0 118.45 139.25
  L 116.58 144.56
  A 0.76 0.76 0.0 0 1 115.88 145.06
  L 110.26 145.21
  A 0.76 0.76 0.0 0 0 109.81 146.57
  L 114.28 150.00
  A 0.76 0.76 0.0 0 1 114.54 150.82
  L 112.94 156.21
  A 0.76 0.76 0.0 0 0 114.10 157.05
  L 118.74 153.87
  A 0.76 0.76 0.0 0 1 119.60 153.87
  L 124.24 157.05
  A 0.76 0.76 0.0 0 0 125.40 156.21
  L 123.80 150.82
  A 0.76 0.76 0.0 0 1 124.06 150.00
  L 128.53 146.57
  A 0.76 0.76 0.0 0 0 128.08 145.21
  L 122.46 145.06
  Z
  M 170.04 145.08
  A 0.77 0.77 0.0 0 1 169.33 144.56
  L 167.49 139.28
  A 0.77 0.77 0.0 0 0 166.03 139.28
  L 164.19 144.56
  A 0.77 0.77 0.0 0 1 163.48 145.08
  L 157.88 145.20
  A 0.77 0.77 0.0 0 0 157.43 146.58
  L 161.88 149.97
  A 0.77 0.77 0.0 0 1 162.16 150.81
  L 160.55 156.17
  A 0.77 0.77 0.0 0 0 161.72 157.02
  L 166.32 153.83
  A 0.77 0.77 0.0 0 1 167.20 153.83
  L 171.80 157.02
  A 0.77 0.77 0.0 0 0 172.97 156.17
  L 171.36 150.81
  A 0.77 0.77 0.0 0 1 171.64 149.97
  L 176.09 146.58
  A 0.77 0.77 0.0 0 0 175.64 145.20
  L 170.04 145.08
  Z
  M 217.63 145.09
  A 0.78 0.78 0.0 0 1 216.91 144.56
  L 215.07 139.26
  A 0.78 0.78 0.0 0 0 213.60 139.27
  L 211.78 144.57
  A 0.78 0.78 0.0 0 1 211.05 145.10
  L 205.45 145.21
  A 0.78 0.78 0.0 0 0 204.99 146.61
  L 209.48 149.98
  A 0.78 0.78 0.0 0 1 209.75 150.83
  L 208.13 156.20
  A 0.78 0.78 0.0 0 0 209.32 157.06
  L 213.91 153.84
  A 0.78 0.78 0.0 0 1 214.81 153.84
  L 219.41 157.05
  A 0.78 0.78 0.0 0 0 220.60 156.18
  L 218.95 150.82
  A 0.78 0.78 0.0 0 1 219.23 149.97
  L 223.70 146.58
  A 0.78 0.78 0.0 0 0 223.24 145.18
  L 217.63 145.09
  Z
  M 51.07 160.11
  A 0.76 0.76 0.0 0 1 50.37 159.60
  L 48.51 154.30
  A 0.76 0.76 0.0 0 0 47.07 154.30
  L 45.21 159.60
  A 0.76 0.76 0.0 0 1 44.51 160.11
  L 38.89 160.24
  A 0.76 0.76 0.0 0 0 38.45 161.61
  L 42.91 165.02
  A 0.76 0.76 0.0 0 1 43.18 165.84
  L 41.57 171.23
  A 0.76 0.76 0.0 0 0 42.73 172.07
  L 47.36 168.88
  A 0.76 0.76 0.0 0 1 48.22 168.88
  L 52.85 172.07
  A 0.76 0.76 0.0 0 0 54.01 171.23
  L 52.40 165.84
  A 0.76 0.76 0.0 0 1 52.67 165.02
  L 57.13 161.61
  A 0.76 0.76 0.0 0 0 56.69 160.24
  L 51.07 160.11
  Z
  M 98.66 160.12
  A 0.78 0.78 0.0 0 1 97.94 159.60
  L 96.11 154.30
  A 0.78 0.78 0.0 0 0 94.63 154.30
  L 92.80 159.60
  A 0.78 0.78 0.0 0 1 92.08 160.12
  L 86.47 160.22
  A 0.78 0.78 0.0 0 0 86.02 161.63
  L 90.49 165.00
  A 0.78 0.78 0.0 0 1 90.77 165.85
  L 89.13 171.22
  A 0.78 0.78 0.0 0 0 90.33 172.09
  L 94.92 168.87
  A 0.78 0.78 0.0 0 1 95.82 168.87
  L 100.41 172.09
  A 0.78 0.78 0.0 0 0 101.61 171.22
  L 99.97 165.85
  A 0.78 0.78 0.0 0 1 100.25 165.00
  L 104.72 161.63
  A 0.78 0.78 0.0 0 0 104.27 160.22
  L 98.66 160.12
  Z
  M 146.25 160.11
  A 0.78 0.78 0.0 0 1 145.53 159.59
  L 143.70 154.29
  A 0.78 0.78 0.0 0 0 142.22 154.29
  L 140.39 159.59
  A 0.78 0.78 0.0 0 1 139.67 160.11
  L 134.06 160.22
  A 0.78 0.78 0.0 0 0 133.60 161.62
  L 138.08 165.01
  A 0.78 0.78 0.0 0 1 138.35 165.86
  L 136.72 171.22
  A 0.78 0.78 0.0 0 0 137.91 172.09
  L 142.51 168.88
  A 0.78 0.78 0.0 0 1 143.41 168.88
  L 148.01 172.09
  A 0.78 0.78 0.0 0 0 149.20 171.22
  L 147.57 165.86
  A 0.78 0.78 0.0 0 1 147.84 165.01
  L 152.32 161.62
  A 0.78 0.78 0.0 0 0 151.86 160.22
  L 146.25 160.11
  Z
  M 193.85 160.14
  A 0.78 0.78 0.0 0 1 193.12 159.61
  L 191.30 154.31
  A 0.78 0.78 0.0 0 0 189.82 154.31
  L 188.00 159.61
  A 0.78 0.78 0.0 0 1 187.27 160.14
  L 181.66 160.23
  A 0.78 0.78 0.0 0 0 181.21 161.64
  L 185.69 165.01
  A 0.78 0.78 0.0 0 1 185.97 165.86
  L 184.32 171.23
  A 0.78 0.78 0.0 0 0 185.52 172.09
  L 190.11 168.87
  A 0.78 0.78 0.0 0 1 191.01 168.87
  L 195.60 172.09
  A 0.78 0.78 0.0 0 0 196.80 171.23
  L 195.15 165.86
  A 0.78 0.78 0.0 0 1 195.43 165.01
  L 199.91 161.64
  A 0.78 0.78 0.0 0 0 199.46 160.23
  L 193.85 160.14
  Z
  M 122.46 175.73
  A 0.77 0.77 0.0 0 1 121.75 175.21
  L 119.90 169.94
  A 0.77 0.77 0.0 0 0 118.44 169.94
  L 116.59 175.21
  A 0.77 0.77 0.0 0 1 115.88 175.73
  L 110.29 175.86
  A 0.77 0.77 0.0 0 0 109.84 177.24
  L 114.29 180.64
  A 0.77 0.77 0.0 0 1 114.56 181.47
  L 112.96 186.83
  A 0.77 0.77 0.0 0 0 114.13 187.68
  L 118.73 184.50
  A 0.77 0.77 0.0 0 1 119.61 184.50
  L 124.21 187.68
  A 0.77 0.77 0.0 0 0 125.38 186.83
  L 123.78 181.47
  A 0.77 0.77 0.0 0 1 124.05 180.64
  L 128.50 177.24
  A 0.77 0.77 0.0 0 0 128.05 175.86
  L 122.46 175.73
  Z
  M 170.04 175.73
  A 0.76 0.76 0.0 0 1 169.34 175.22
  L 167.48 169.92
  A 0.76 0.76 0.0 0 0 166.04 169.92
  L 164.18 175.22
  A 0.76 0.76 0.0 0 1 163.48 175.73
  L 157.87 175.87
  A 0.76 0.76 0.0 0 0 157.42 177.23
  L 161.88 180.64
  A 0.76 0.76 0.0 0 1 162.15 181.46
  L 160.55 186.84
  A 0.76 0.76 0.0 0 0 161.71 187.69
  L 166.33 184.50
  A 0.76 0.76 0.0 0 1 167.19 184.50
  L 171.81 187.69
  A 0.76 0.76 0.0 0 0 172.97 186.84
  L 171.37 181.46
  A 0.76 0.76 0.0 0 1 171.64 180.64
  L 176.10 177.23
  A 0.76 0.76 0.0 0 0 175.65 175.87
  L 170.04 175.73
  Z
  M 217.62 175.73
  A 0.76 0.76 0.0 0 1 216.92 175.22
  L 215.06 169.92
  A 0.76 0.76 0.0 0 0 213.62 169.92
  L 211.76 175.22
  A 0.76 0.76 0.0 0 1 211.06 175.73
  L 205.44 175.86
  A 0.76 0.76 0.0 0 0 205.00 177.23
  L 209.46 180.64
  A 0.76 0.76 0.0 0 1 209.73 181.46
  L 208.12 186.85
  A 0.76 0.76 0.0 0 0 209.28 187.69
  L 213.91 184.50
  A 0.76 0.76 0.0 0 1 214.77 184.50
  L 219.40 187.69
  A 0.76 0.76 0.0 0 0 220.56 186.85
  L 218.95 181.46
  A 0.76 0.76 0.0 0 1 219.22 180.64
  L 223.68 177.23
  A 0.76 0.76 0.0 0 0 223.24 175.86
  L 217.62 175.73
  Z
  M 27.29 175.76
  A 0.78 0.78 0.0 0 1 26.56 175.23
  L 24.74 169.92
  A 0.78 0.78 0.0 0 0 23.26 169.92
  L 21.44 175.23
  A 0.78 0.78 0.0 0 1 20.71 175.76
  L 15.10 175.85
  A 0.78 0.78 0.0 0 0 14.64 177.25
  L 19.13 180.63
  A 0.78 0.78 0.0 0 1 19.41 181.48
  L 17.76 186.85
  A 0.78 0.78 0.0 0 0 18.95 187.72
  L 23.55 184.49
  A 0.78 0.78 0.0 0 1 24.45 184.49
  L 29.05 187.72
  A 0.78 0.78 0.0 0 0 30.24 186.85
  L 28.59 181.48
  A 0.78 0.78 0.0 0 1 28.87 180.63
  L 33.36 177.25
  A 0.78 0.78 0.0 0 0 32.90 175.85
  L 27.29 175.76
  Z
  M 74.92 175.75
  A 0.83 0.83 0.0 0 1 74.15 175.19
  L 72.37 170.05
  A 0.83 0.83 0.0 0 0 70.81 170.05
  L 69.03 175.19
  A 0.83 0.83 0.0 0 1 68.26 175.75
  L 62.83 175.85
  A 0.83 0.83 0.0 0 0 62.34 177.34
  L 66.68 180.61
  A 0.83 0.83 0.0 0 1 66.98 181.52
  L 65.39 186.72
  A 0.83 0.83 0.0 0 0 66.66 187.64
  L 71.11 184.52
  A 0.83 0.83 0.0 0 1 72.07 184.52
  L 76.52 187.64
  A 0.83 0.83 0.0 0 0 77.79 186.72
  L 76.20 181.52
  A 0.83 0.83 0.0 0 1 76.50 180.61
  L 80.84 177.34
  A 0.83 0.83 0.0 0 0 80.35 175.85
  L 74.92 175.75
  Z
  M 98.66 190.74
  A 0.76 0.76 0.0 0 1 97.96 190.23
  L 96.09 184.93
  A 0.76 0.76 0.0 0 0 94.65 184.93
  L 92.78 190.23
  A 0.76 0.76 0.0 0 1 92.08 190.74
  L 86.46 190.88
  A 0.76 0.76 0.0 0 0 86.02 192.25
  L 90.48 195.66
  A 0.76 0.76 0.0 0 1 90.75 196.48
  L 89.15 201.87
  A 0.76 0.76 0.0 0 0 90.31 202.72
  L 94.94 199.53
  A 0.76 0.76 0.0 0 1 95.80 199.53
  L 100.43 202.72
  A 0.76 0.76 0.0 0 0 101.59 201.87
  L 99.99 196.48
  A 0.76 0.76 0.0 0 1 100.26 195.66
  L 104.72 192.25
  A 0.76 0.76 0.0 0 0 104.28 190.88
  L 98.66 190.74
  Z
  M 51.10 190.75
  A 0.78 0.78 0.0 0 1 50.39 190.23
  L 48.53 184.97
  A 0.78 0.78 0.0 0 0 47.05 184.97
  L 45.19 190.23
  A 0.78 0.78 0.0 0 1 44.48 190.75
  L 38.90 190.89
  A 0.78 0.78 0.0 0 0 38.45 192.29
  L 42.88 195.68
  A 0.78 0.78 0.0 0 1 43.15 196.52
  L 41.56 201.87
  A 0.78 0.78 0.0 0 0 42.75 202.73
  L 47.35 199.57
  A 0.78 0.78 0.0 0 1 48.23 199.57
  L 52.83 202.73
  A 0.78 0.78 0.0 0 0 54.02 201.87
  L 52.43 196.52
  A 0.78 0.78 0.0 0 1 52.70 195.68
  L 57.13 192.29
  A 0.78 0.78 0.0 0 0 56.68 190.89
  L 51.10 190.75
  Z
  M 146.25 190.78
  A 0.78 0.78 0.0 0 1 145.53 190.26
  L 143.70 184.95
  A 0.78 0.78 0.0 0 0 142.22 184.95
  L 140.39 190.26
  A 0.78 0.78 0.0 0 1 139.67 190.78
  L 134.06 190.88
  A 0.78 0.78 0.0 0 0 133.60 192.28
  L 138.08 195.66
  A 0.78 0.78 0.0 0 1 138.36 196.52
  L 136.72 201.88
  A 0.78 0.78 0.0 0 0 137.91 202.75
  L 142.51 199.53
  A 0.78 0.78 0.0 0 1 143.41 199.53
  L 148.01 202.75
  A 0.78 0.78 0.0 0 0 149.20 201.88
  L 147.56 196.52
  A 0.78 0.78 0.0 0 1 147.84 195.66
  L 152.32 192.28
  A 0.78 0.78 0.0 0 0 151.86 190.88
  L 146.25 190.78
  Z
  M 193.88 190.78
  A 0.83 0.83 0.0 0 1 193.11 190.22
  L 191.33 185.09
  A 0.83 0.83 0.0 0 0 189.77 185.09
  L 187.99 190.22
  A 0.83 0.83 0.0 0 1 187.22 190.78
  L 181.79 190.88
  A 0.83 0.83 0.0 0 0 181.31 192.37
  L 185.64 195.64
  A 0.83 0.83 0.0 0 1 185.94 196.55
  L 184.35 201.75
  A 0.83 0.83 0.0 0 0 185.62 202.67
  L 190.07 199.55
  A 0.83 0.83 0.0 0 1 191.03 199.55
  L 195.48 202.67
  A 0.83 0.83 0.0 0 0 196.75 201.75
  L 195.16 196.55
  A 0.83 0.83 0.0 0 1 195.46 195.64
  L 199.79 192.37
  A 0.83 0.83 0.0 0 0 199.31 190.88
  L 193.88 190.78
  Z
  M 27.28 206.43
  A 0.78 0.78 0.0 0 1 26.56 205.90
  L 24.74 200.57
  A 0.78 0.78 0.0 0 0 23.26 200.57
  L 21.44 205.90
  A 0.78 0.78 0.0 0 1 20.72 206.43
  L 15.08 206.51
  A 0.78 0.78 0.0 0 0 14.63 207.91
  L 19.14 211.29
  A 0.78 0.78 0.0 0 1 19.42 212.14
  L 17.75 217.52
  A 0.78 0.78 0.0 0 0 18.95 218.39
  L 23.55 215.15
  A 0.78 0.78 0.0 0 1 24.45 215.15
  L 29.05 218.39
  A 0.78 0.78 0.0 0 0 30.25 217.52
  L 28.58 212.14
  A 0.78 0.78 0.0 0 1 28.86 211.29
  L 33.37 207.91
  A 0.78 0.78 0.0 0 0 32.92 206.51
  L 27.28 206.43
  Z
  M 74.89 206.37
  A 0.77 0.77 0.0 0 1 74.19 205.85
  L 72.32 200.59
  A 0.77 0.77 0.0 0 0 70.86 200.59
  L 68.99 205.85
  A 0.77 0.77 0.0 0 1 68.29 206.37
  L 62.70 206.52
  A 0.77 0.77 0.0 0 0 62.25 207.90
  L 66.68 211.31
  A 0.77 0.77 0.0 0 1 66.95 212.13
  L 65.37 217.49
  A 0.77 0.77 0.0 0 0 66.55 218.35
  L 71.15 215.19
  A 0.77 0.77 0.0 0 1 72.03 215.19
  L 76.63 218.35
  A 0.77 0.77 0.0 0 0 77.81 217.49
  L 76.23 212.13
  A 0.77 0.77 0.0 0 1 76.50 211.31
  L 80.93 207.90
  A 0.77 0.77 0.0 0 0 80.48 206.52
  L 74.89 206.37
  Z
  M 122.47 206.39
  A 0.76 0.76 0.0 0 1 121.77 205.88
  L 119.90 200.58
  A 0.76 0.76 0.0 0 0 118.46 200.58
  L 116.59 205.88
  A 0.76 0.76 0.0 0 1 115.89 206.39
  L 110.27 206.53
  A 0.76 0.76 0.0 0 0 109.83 207.90
  L 114.29 211.31
  A 0.76 0.76 0.0 0 1 114.56 212.13
  L 112.96 217.52
  A 0.76 0.76 0.0 0 0 114.12 218.37
  L 118.75 215.18
  A 0.76 0.76 0.0 0 1 119.61 215.18
  L 124.24 218.37
  A 0.76 0.76 0.0 0 0 125.40 217.52
  L 123.80 212.13
  A 0.76 0.76 0.0 0 1 124.07 211.31
  L 128.53 207.90
  A 0.76 0.76 0.0 0 0 128.09 206.53
  L 122.47 206.39
  Z
  M 170.04 206.38
  A 0.75 0.75 0.0 0 1 169.35 205.88
  L 167.47 200.57
  A 0.75 0.75 0.0 0 0 166.05 200.57
  L 164.17 205.88
  A 0.75 0.75 0.0 0 1 163.48 206.38
  L 157.84 206.53
  A 0.75 0.75 0.0 0 0 157.41 207.87
  L 161.88 211.31
  A 0.75 0.75 0.0 0 1 162.14 212.12
  L 160.54 217.52
  A 0.75 0.75 0.0 0 0 161.69 218.36
  L 166.34 215.16
  A 0.75 0.75 0.0 0 1 167.18 215.16
  L 171.83 218.36
  A 0.75 0.75 0.0 0 0 172.98 217.52
  L 171.38 212.12
  A 0.75 0.75 0.0 0 1 171.64 211.31
  L 176.11 207.87
  A 0.75 0.75 0.0 0 0 175.68 206.53
  L 170.04 206.38
  Z
  M 217.63 206.37
  A 0.76 0.76 0.0 0 1 216.93 205.87
  L 215.06 200.56
  A 0.76 0.76 0.0 0 0 213.62 200.56
  L 211.75 205.87
  A 0.76 0.76 0.0 0 1 211.05 206.37
  L 205.43 206.52
  A 0.76 0.76 0.0 0 0 204.98 207.88
  L 209.45 211.31
  A 0.76 0.76 0.0 0 1 209.71 212.13
  L 208.11 217.52
  A 0.76 0.76 0.0 0 0 209.27 218.36
  L 213.91 215.18
  A 0.76 0.76 0.0 0 1 214.77 215.18
  L 219.41 218.36
  A 0.76 0.76 0.0 0 0 220.57 217.52
  L 218.97 212.13
  A 0.76 0.76 0.0 0 1 219.23 211.31
  L 223.70 207.88
  A 0.76 0.76 0.0 0 0 223.25 206.52
  L 217.63 206.37
  Z
  M 51.08 221.39
  A 0.76 0.76 0.0 0 1 50.38 220.89
  L 48.51 215.60
  A 0.76 0.76 0.0 0 0 47.07 215.60
  L 45.20 220.89
  A 0.76 0.76 0.0 0 1 44.50 221.39
  L 38.90 221.55
  A 0.76 0.76 0.0 0 0 38.45 222.91
  L 42.90 226.33
  A 0.76 0.76 0.0 0 1 43.16 227.15
  L 41.58 232.52
  A 0.76 0.76 0.0 0 0 42.74 233.37
  L 47.36 230.19
  A 0.76 0.76 0.0 0 1 48.22 230.19
  L 52.84 233.37
  A 0.76 0.76 0.0 0 0 54.00 232.52
  L 52.42 227.15
  A 0.76 0.76 0.0 0 1 52.68 226.33
  L 57.13 222.91
  A 0.76 0.76 0.0 0 0 56.68 221.55
  L 51.08 221.39
  Z
  M 98.66 221.40
  A 0.77 0.77 0.0 0 1 97.96 220.89
  L 96.10 215.60
  A 0.77 0.77 0.0 0 0 94.64 215.60
  L 92.78 220.89
  A 0.77 0.77 0.0 0 1 92.08 221.40
  L 86.48 221.54
  A 0.77 0.77 0.0 0 0 86.03 222.92
  L 90.48 226.32
  A 0.77 0.77 0.0 0 1 90.75 227.15
  L 89.15 232.52
  A 0.77 0.77 0.0 0 0 90.32 233.37
  L 94.93 230.19
  A 0.77 0.77 0.0 0 1 95.81 230.19
  L 100.42 233.37
  A 0.77 0.77 0.0 0 0 101.59 232.52
  L 99.99 227.15
  A 0.77 0.77 0.0 0 1 100.26 226.32
  L 104.71 222.92
  A 0.77 0.77 0.0 0 0 104.26 221.54
  L 98.66 221.40
  Z
  M 146.26 221.40
  A 0.76 0.76 0.0 0 1 145.56 220.89
  L 143.69 215.60
  A 0.76 0.76 0.0 0 0 142.25 215.60
  L 140.38 220.89
  A 0.76 0.76 0.0 0 1 139.68 221.40
  L 134.07 221.54
  A 0.76 0.76 0.0 0 0 133.63 222.91
  L 138.08 226.32
  A 0.76 0.76 0.0 0 1 138.35 227.14
  L 136.75 232.53
  A 0.76 0.76 0.0 0 0 137.91 233.37
  L 142.54 230.19
  A 0.76 0.76 0.0 0 1 143.40 230.19
  L 148.03 233.37
  A 0.76 0.76 0.0 0 0 149.19 232.53
  L 147.59 227.14
  A 0.76 0.76 0.0 0 1 147.86 226.32
  L 152.31 222.91
  A 0.76 0.76 0.0 0 0 151.87 221.54
  L 146.26 221.40
  Z
  M 193.84 221.41
  A 0.76 0.76 0.0 0 1 193.15 220.91
  L 191.28 215.62
  A 0.76 0.76 0.0 0 0 189.84 215.62
  L 187.97 220.91
  A 0.76 0.76 0.0 0 1 187.28 221.41
  L 181.67 221.56
  A 0.76 0.76 0.0 0 0 181.23 222.92
  L 185.68 226.33
  A 0.76 0.76 0.0 0 1 185.94 227.15
  L 184.35 232.53
  A 0.76 0.76 0.0 0 0 185.51 233.37
  L 190.13 230.20
  A 0.76 0.76 0.0 0 1 190.99 230.20
  L 195.61 233.37
  A 0.76 0.76 0.0 0 0 196.77 232.53
  L 195.18 227.15
  A 0.76 0.76 0.0 0 1 195.44 226.33
  L 199.89 222.92
  A 0.76 0.76 0.0 0 0 199.45 221.56
  L 193.84 221.41
  Z
  M 27.32 237.01
  A 0.78 0.78 0.0 0 1 26.60 236.49
  L 24.74 231.22
  A 0.78 0.78 0.0 0 0 23.26 231.22
  L 21.40 236.49
  A 0.78 0.78 0.0 0 1 20.68 237.01
  L 15.09 237.15
  A 0.78 0.78 0.0 0 0 14.64 238.55
  L 19.08 241.96
  A 0.78 0.78 0.0 0 1 19.35 242.80
  L 17.76 248.16
  A 0.78 0.78 0.0 0 0 18.95 249.02
  L 23.56 245.85
  A 0.78 0.78 0.0 0 1 24.44 245.85
  L 29.05 249.02
  A 0.78 0.78 0.0 0 0 30.24 248.16
  L 28.65 242.80
  A 0.78 0.78 0.0 0 1 28.92 241.96
  L 33.36 238.55
  A 0.78 0.78 0.0 0 0 32.91 237.15
  L 27.32 237.01
  Z
  M 74.91 237.00
  A 0.78 0.78 0.0 0 1 74.19 236.48
  L 72.33 231.22
  A 0.78 0.78 0.0 0 0 70.85 231.22
  L 68.99 236.48
  A 0.78 0.78 0.0 0 1 68.27 237.00
  L 62.70 237.15
  A 0.78 0.78 0.0 0 0 62.24 238.55
  L 66.67 241.95
  A 0.78 0.78 0.0 0 1 66.94 242.78
  L 65.36 248.14
  A 0.78 0.78 0.0 0 0 66.55 249.00
  L 71.15 245.84
  A 0.78 0.78 0.0 0 1 72.03 245.84
  L 76.63 249.00
  A 0.78 0.78 0.0 0 0 77.82 248.14
  L 76.24 242.78
  A 0.78 0.78 0.0 0 1 76.51 241.95
  L 80.94 238.55
  A 0.78 0.78 0.0 0 0 80.48 237.15
  L 74.91 237.00
  Z
  M 122.51 237.04
  A 0.84 0.84 0.0 0 1 121.73 236.48
  L 119.96 231.37
  A 0.84 0.84 0.0 0 0 118.38 231.37
  L 116.61 236.48
  A 0.84 0.84 0.0 0 1 115.83 237.04
  L 110.43 237.14
  A 0.84 0.84 0.0 0 0 109.94 238.65
  L 114.25 241.91
  A 0.84 0.84 0.0 0 1 114.55 242.83
  L 112.97 248.00
  A 0.84 0.84 0.0 0 0 114.26 248.93
  L 118.69 245.84
  A 0.84 0.84 0.0 0 1 119.65 245.84
  L 124.08 248.93
  A 0.84 0.84 0.0 0 0 125.37 248.00
  L 123.79 242.83
  A 0.84 0.84 0.0 0 1 124.09 241.91
  L 128.40 238.65
  A 0.84 0.84 0.0 0 0 127.91 237.14
  L 122.51 237.04
  Z
  M 170.05 237.03
  A 0.78 0.78 0.0 0 1 169.33 236.51
  L 167.50 231.21
  A 0.78 0.78 0.0 0 0 166.02 231.21
  L 164.19 236.51
  A 0.78 0.78 0.0 0 1 163.47 237.03
  L 157.86 237.14
  A 0.78 0.78 0.0 0 0 157.40 238.54
  L 161.88 241.93
  A 0.78 0.78 0.0 0 1 162.15 242.78
  L 160.52 248.14
  A 0.78 0.78 0.0 0 0 161.71 249.01
  L 166.31 245.80
  A 0.78 0.78 0.0 0 1 167.21 245.80
  L 171.81 249.01
  A 0.78 0.78 0.0 0 0 173.00 248.14
  L 171.37 242.78
  A 0.78 0.78 0.0 0 1 171.64 241.93
  L 176.12 238.54
  A 0.78 0.78 0.0 0 0 175.66 237.14
  L 170.05 237.03
  Z
  M 217.65 237.01
  A 0.78 0.78 0.0 0 1 216.94 236.49
  L 215.07 231.24
  A 0.78 0.78 0.0 0 0 213.61 231.24
  L 211.74 236.49
  A 0.78 0.78 0.0 0 1 211.03 237.01
  L 205.45 237.16
  A 0.78 0.78 0.0 0 0 205.00 238.56
  L 209.42 241.96
  A 0.78 0.78 0.0 0 1 209.69 242.79
  L 208.11 248.14
  A 0.78 0.78 0.0 0 0 209.30 249.00
  L 213.90 245.85
  A 0.78 0.78 0.0 0 1 214.78 245.85
  L 219.38 249.00
  A 0.78 0.78 0.0 0 0 220.57 248.14
  L 218.99 242.79
  A 0.78 0.78 0.0 0 1 219.26 241.96
  L 223.68 238.56
  A 0.78 0.78 0.0 0 0 223.23 237.16
  L 217.65 237.01
  Z"
/>
<path fill="#ff4b55" d="
  M 229.67 88.07
  Q 365.64 88.11 501.50 88.09
  Q 509.68 88.09 512.00 95.35
  L 512.00 114.08
  L 238.39 114.08
  Q 238.25 105.83 238.33 97.76
  Q 238.41 89.88 229.67 88.07
  Z"
/>
<path fill="#f5f5f5" d="
  M 74.87 114.43
  L 80.49 114.56
  A 0.76 0.76 0.0 0 1 80.93 115.93
  L 76.47 119.34
  A 0.76 0.76 0.0 0 0 76.20 120.16
  L 77.81 125.55
  A 0.76 0.76 0.0 0 1 76.65 126.39
  L 72.02 123.20
  A 0.76 0.76 0.0 0 0 71.16 123.20
  L 66.53 126.39
  A 0.76 0.76 0.0 0 1 65.37 125.55
  L 66.98 120.16
  A 0.76 0.76 0.0 0 0 66.71 119.34
  L 62.25 115.93
  A 0.76 0.76 0.0 0 1 62.69 114.56
  L 68.31 114.43
  A 0.76 0.76 0.0 0 0 69.01 113.92
  L 70.87 108.62
  A 0.76 0.76 0.0 0 1 72.31 108.62
  L 74.17 113.92
  A 0.76 0.76 0.0 0 0 74.87 114.43
  Z"
/>
<path fill="#f5f5f5" d="
  M 122.47 114.42
  L 128.08 114.56
  A 0.76 0.76 0.0 0 1 128.52 115.93
  L 124.07 119.34
  A 0.76 0.76 0.0 0 0 123.80 120.16
  L 125.40 125.55
  A 0.76 0.76 0.0 0 1 124.24 126.39
  L 119.61 123.21
  A 0.76 0.76 0.0 0 0 118.75 123.21
  L 114.12 126.39
  A 0.76 0.76 0.0 0 1 112.96 125.55
  L 114.56 120.16
  A 0.76 0.76 0.0 0 0 114.29 119.34
  L 109.84 115.93
  A 0.76 0.76 0.0 0 1 110.28 114.56
  L 115.89 114.42
  A 0.76 0.76 0.0 0 0 116.59 113.91
  L 118.46 108.62
  A 0.76 0.76 0.0 0 1 119.90 108.62
  L 121.77 113.91
  A 0.76 0.76 0.0 0 0 122.47 114.42
  Z"
/>
<path fill="#f5f5f5" d="
  M 170.04 114.43
  L 175.65 114.57
  A 0.76 0.76 0.0 0 1 176.10 115.93
  L 171.64 119.34
  A 0.76 0.76 0.0 0 0 171.37 120.16
  L 172.97 125.54
  A 0.76 0.76 0.0 0 1 171.81 126.39
  L 167.19 123.20
  A 0.76 0.76 0.0 0 0 166.33 123.20
  L 161.71 126.39
  A 0.76 0.76 0.0 0 1 160.55 125.54
  L 162.15 120.16
  A 0.76 0.76 0.0 0 0 161.88 119.34
  L 157.42 115.93
  A 0.76 0.76 0.0 0 1 157.87 114.57
  L 163.48 114.43
  A 0.76 0.76 0.0 0 0 164.18 113.92
  L 166.04 108.62
  A 0.76 0.76 0.0 0 1 167.48 108.62
  L 169.34 113.92
  A 0.76 0.76 0.0 0 0 170.04 114.43
  Z"
/>
<path fill="#f5f5f5" d="
  M 217.62 114.43
  L 223.23 114.57
  A 0.76 0.76 0.0 0 1 223.68 115.93
  L 219.22 119.34
  A 0.76 0.76 0.0 0 0 218.95 120.16
  L 220.55 125.54
  A 0.76 0.76 0.0 0 1 219.39 126.39
  L 214.77 123.20
  A 0.76 0.76 0.0 0 0 213.91 123.20
  L 209.29 126.39
  A 0.76 0.76 0.0 0 1 208.13 125.54
  L 209.73 120.16
  A 0.76 0.76 0.0 0 0 209.46 119.34
  L 205.00 115.93
  A 0.76 0.76 0.0 0 1 205.45 114.57
  L 211.06 114.43
  A 0.76 0.76 0.0 0 0 211.76 113.92
  L 213.62 108.62
  A 0.76 0.76 0.0 0 1 215.06 108.62
  L 216.92 113.92
  A 0.76 0.76 0.0 0 0 217.62 114.43
  Z"
/>
<path fill="#f5f5f5" d="
  M 27.29 114.45
  L 32.91 114.55
  A 0.78 0.78 0.0 0 1 33.37 115.95
  L 28.88 119.33
  A 0.78 0.78 0.0 0 0 28.60 120.19
  L 30.24 125.56
  A 0.78 0.78 0.0 0 1 29.05 126.43
  L 24.45 123.20
  A 0.78 0.78 0.0 0 0 23.55 123.20
  L 18.95 126.43
  A 0.78 0.78 0.0 0 1 17.76 125.56
  L 19.40 120.19
  A 0.78 0.78 0.0 0 0 19.12 119.33
  L 14.63 115.95
  A 0.78 0.78 0.0 0 1 15.09 114.55
  L 20.71 114.45
  A 0.78 0.78 0.0 0 0 21.43 113.93
  L 23.26 108.61
  A 0.78 0.78 0.0 0 1 24.74 108.61
  L 26.57 113.93
  A 0.78 0.78 0.0 0 0 27.29 114.45
  Z"
/>
<path fill="#f5f5f5" d="
  M 238.39 114.08
  L 512.00 114.08
  L 512.00 139.84
  L 238.36 139.84
  L 238.39 114.08
  Z"
/>
<path fill="#f5f5f5" d="
  M 51.07 129.47
  L 56.70 129.59
  A 0.76 0.76 0.0 0 1 57.15 130.95
  L 52.66 134.37
  A 0.76 0.76 0.0 0 0 52.39 135.19
  L 54.02 140.59
  A 0.76 0.76 0.0 0 1 52.86 141.43
  L 48.22 138.22
  A 0.76 0.76 0.0 0 0 47.36 138.22
  L 42.72 141.43
  A 0.76 0.76 0.0 0 1 41.56 140.59
  L 43.19 135.19
  A 0.76 0.76 0.0 0 0 42.92 134.37
  L 38.43 130.95
  A 0.76 0.76 0.0 0 1 38.88 129.59
  L 44.51 129.47
  A 0.76 0.76 0.0 0 0 45.21 128.96
  L 47.07 123.63
  A 0.76 0.76 0.0 0 1 48.51 123.63
  L 50.37 128.96
  A 0.76 0.76 0.0 0 0 51.07 129.47
  Z"
/>
<path fill="#f5f5f5" d="
  M 98.64 129.45
  L 104.26 129.58
  A 0.76 0.76 0.0 0 1 104.71 130.94
  L 100.25 134.36
  A 0.76 0.76 0.0 0 0 99.98 135.18
  L 101.60 140.57
  A 0.76 0.76 0.0 0 1 100.44 141.41
  L 95.81 138.23
  A 0.76 0.76 0.0 0 0 94.95 138.23
  L 90.33 141.43
  A 0.76 0.76 0.0 0 1 89.16 140.59
  L 90.76 135.20
  A 0.76 0.76 0.0 0 0 90.49 134.38
  L 86.02 130.97
  A 0.76 0.76 0.0 0 1 86.46 129.61
  L 92.08 129.46
  A 0.76 0.76 0.0 0 0 92.78 128.96
  L 94.64 123.65
  A 0.76 0.76 0.0 0 1 96.07 123.65
  L 97.95 128.95
  A 0.76 0.76 0.0 0 0 98.64 129.45
  Z"
/>
<path fill="#f5f5f5" d="
  M 193.84 129.46
  L 199.45 129.60
  A 0.76 0.76 0.0 0 1 199.90 130.96
  L 195.44 134.37
  A 0.76 0.76 0.0 0 0 195.17 135.19
  L 196.77 140.57
  A 0.76 0.76 0.0 0 1 195.61 141.42
  L 190.99 138.23
  A 0.76 0.76 0.0 0 0 190.13 138.23
  L 185.51 141.42
  A 0.76 0.76 0.0 0 1 184.35 140.57
  L 185.95 135.19
  A 0.76 0.76 0.0 0 0 185.68 134.37
  L 181.22 130.96
  A 0.76 0.76 0.0 0 1 181.67 129.60
  L 187.28 129.46
  A 0.76 0.76 0.0 0 0 187.98 128.95
  L 189.84 123.65
  A 0.76 0.76 0.0 0 1 191.28 123.65
  L 193.14 128.95
  A 0.76 0.76 0.0 0 0 193.84 129.46
  Z"
/>
<path fill="#f5f5f5" d="
  M 146.26 129.48
  L 151.87 129.58
  A 0.78 0.78 0.0 0 1 152.33 130.98
  L 147.85 134.36
  A 0.78 0.78 0.0 0 0 147.57 135.22
  L 149.21 140.58
  A 0.78 0.78 0.0 0 1 148.02 141.45
  L 143.42 138.23
  A 0.78 0.78 0.0 0 0 142.52 138.23
  L 137.92 141.45
  A 0.78 0.78 0.0 0 1 136.73 140.58
  L 138.37 135.22
  A 0.78 0.78 0.0 0 0 138.09 134.36
  L 133.61 130.98
  A 0.78 0.78 0.0 0 1 134.07 129.58
  L 139.68 129.48
  A 0.78 0.78 0.0 0 0 140.40 128.96
  L 142.23 123.65
  A 0.78 0.78 0.0 0 1 143.71 123.65
  L 145.54 128.96
  A 0.78 0.78 0.0 0 0 146.26 129.48
  Z"
/>
<path fill="#f5f5f5" d="
  M 27.31 145.06
  L 32.89 145.20
  A 0.78 0.78 0.0 0 1 33.34 146.60
  L 28.91 149.99
  A 0.78 0.78 0.0 0 0 28.64 150.83
  L 30.23 156.18
  A 0.78 0.78 0.0 0 1 29.04 157.04
  L 24.44 153.88
  A 0.78 0.78 0.0 0 0 23.56 153.88
  L 18.96 157.04
  A 0.78 0.78 0.0 0 1 17.77 156.18
  L 19.36 150.83
  A 0.78 0.78 0.0 0 0 19.09 149.99
  L 14.66 146.60
  A 0.78 0.78 0.0 0 1 15.11 145.20
  L 20.69 145.06
  A 0.78 0.78 0.0 0 0 21.40 144.54
  L 23.26 139.28
  A 0.78 0.78 0.0 0 1 24.74 139.28
  L 26.60 144.54
  A 0.78 0.78 0.0 0 0 27.31 145.06
  Z"
/>
<path fill="#f5f5f5" d="
  M 74.87 145.08
  L 80.50 145.20
  A 0.76 0.76 0.0 0 1 80.94 146.57
  L 76.46 149.98
  A 0.76 0.76 0.0 0 0 76.19 150.80
  L 77.81 156.19
  A 0.76 0.76 0.0 0 1 76.65 157.04
  L 72.02 153.83
  A 0.76 0.76 0.0 0 0 71.16 153.83
  L 66.53 157.04
  A 0.76 0.76 0.0 0 1 65.37 156.19
  L 66.99 150.80
  A 0.76 0.76 0.0 0 0 66.72 149.98
  L 62.24 146.57
  A 0.76 0.76 0.0 0 1 62.68 145.20
  L 68.31 145.08
  A 0.76 0.76 0.0 0 0 69.01 144.57
  L 70.87 139.25
  A 0.76 0.76 0.0 0 1 72.31 139.25
  L 74.17 144.57
  A 0.76 0.76 0.0 0 0 74.87 145.08
  Z"
/>
<path fill="#f5f5f5" d="
  M 122.46 145.06
  L 128.08 145.21
  A 0.76 0.76 0.0 0 1 128.53 146.57
  L 124.06 150.00
  A 0.76 0.76 0.0 0 0 123.80 150.82
  L 125.40 156.21
  A 0.76 0.76 0.0 0 1 124.24 157.05
  L 119.60 153.87
  A 0.76 0.76 0.0 0 0 118.74 153.87
  L 114.10 157.05
  A 0.76 0.76 0.0 0 1 112.94 156.21
  L 114.54 150.82
  A 0.76 0.76 0.0 0 0 114.28 150.00
  L 109.81 146.57
  A 0.76 0.76 0.0 0 1 110.26 145.21
  L 115.88 145.06
  A 0.76 0.76 0.0 0 0 116.58 144.56
  L 118.45 139.25
  A 0.76 0.76 0.0 0 1 119.89 139.25
  L 121.76 144.56
  A 0.76 0.76 0.0 0 0 122.46 145.06
  Z"
/>
<path fill="#f5f5f5" d="
  M 170.04 145.08
  L 175.64 145.20
  A 0.77 0.77 0.0 0 1 176.09 146.58
  L 171.64 149.97
  A 0.77 0.77 0.0 0 0 171.36 150.81
  L 172.97 156.17
  A 0.77 0.77 0.0 0 1 171.80 157.02
  L 167.20 153.83
  A 0.77 0.77 0.0 0 0 166.32 153.83
  L 161.72 157.02
  A 0.77 0.77 0.0 0 1 160.55 156.17
  L 162.16 150.81
  A 0.77 0.77 0.0 0 0 161.88 149.97
  L 157.43 146.58
  A 0.77 0.77 0.0 0 1 157.88 145.20
  L 163.48 145.08
  A 0.77 0.77 0.0 0 0 164.19 144.56
  L 166.03 139.28
  A 0.77 0.77 0.0 0 1 167.49 139.28
  L 169.33 144.56
  A 0.77 0.77 0.0 0 0 170.04 145.08
  Z"
/>
<path fill="#f5f5f5" d="
  M 217.63 145.09
  L 223.24 145.18
  A 0.78 0.78 0.0 0 1 223.70 146.58
  L 219.23 149.97
  A 0.78 0.78 0.0 0 0 218.95 150.82
  L 220.60 156.18
  A 0.78 0.78 0.0 0 1 219.41 157.05
  L 214.81 153.84
  A 0.78 0.78 0.0 0 0 213.91 153.84
  L 209.32 157.06
  A 0.78 0.78 0.0 0 1 208.13 156.20
  L 209.75 150.83
  A 0.78 0.78 0.0 0 0 209.48 149.98
  L 204.99 146.61
  A 0.78 0.78 0.0 0 1 205.45 145.21
  L 211.05 145.10
  A 0.78 0.78 0.0 0 0 211.78 144.57
  L 213.60 139.27
  A 0.78 0.78 0.0 0 1 215.07 139.26
  L 216.91 144.56
  A 0.78 0.78 0.0 0 0 217.63 145.09
  Z"
/>
<path fill="#ff4b55" d="
  M 238.36 139.84
  L 512.00 139.84
  L 512.00 165.70
  L 238.38 165.70
  L 238.36 139.84
  Z"
/>
<path fill="#f5f5f5" d="
  M 51.07 160.11
  L 56.69 160.24
  A 0.76 0.76 0.0 0 1 57.13 161.61
  L 52.67 165.02
  A 0.76 0.76 0.0 0 0 52.40 165.84
  L 54.01 171.23
  A 0.76 0.76 0.0 0 1 52.85 172.07
  L 48.22 168.88
  A 0.76 0.76 0.0 0 0 47.36 168.88
  L 42.73 172.07
  A 0.76 0.76 0.0 0 1 41.57 171.23
  L 43.18 165.84
  A 0.76 0.76 0.0 0 0 42.91 165.02
  L 38.45 161.61
  A 0.76 0.76 0.0 0 1 38.89 160.24
  L 44.51 160.11
  A 0.76 0.76 0.0 0 0 45.21 159.60
  L 47.07 154.30
  A 0.76 0.76 0.0 0 1 48.51 154.30
  L 50.37 159.60
  A 0.76 0.76 0.0 0 0 51.07 160.11
  Z"
/>
<path fill="#f5f5f5" d="
  M 98.66 160.12
  L 104.27 160.22
  A 0.78 0.78 0.0 0 1 104.72 161.63
  L 100.25 165.00
  A 0.78 0.78 0.0 0 0 99.97 165.85
  L 101.61 171.22
  A 0.78 0.78 0.0 0 1 100.41 172.09
  L 95.82 168.87
  A 0.78 0.78 0.0 0 0 94.92 168.87
  L 90.33 172.09
  A 0.78 0.78 0.0 0 1 89.13 171.22
  L 90.77 165.85
  A 0.78 0.78 0.0 0 0 90.49 165.00
  L 86.02 161.63
  A 0.78 0.78 0.0 0 1 86.47 160.22
  L 92.08 160.12
  A 0.78 0.78 0.0 0 0 92.80 159.60
  L 94.63 154.30
  A 0.78 0.78 0.0 0 1 96.11 154.30
  L 97.94 159.60
  A 0.78 0.78 0.0 0 0 98.66 160.12
  Z"
/>
<path fill="#f5f5f5" d="
  M 146.25 160.11
  L 151.86 160.22
  A 0.78 0.78 0.0 0 1 152.32 161.62
  L 147.84 165.01
  A 0.78 0.78 0.0 0 0 147.57 165.86
  L 149.20 171.22
  A 0.78 0.78 0.0 0 1 148.01 172.09
  L 143.41 168.88
  A 0.78 0.78 0.0 0 0 142.51 168.88
  L 137.91 172.09
  A 0.78 0.78 0.0 0 1 136.72 171.22
  L 138.35 165.86
  A 0.78 0.78 0.0 0 0 138.08 165.01
  L 133.60 161.62
  A 0.78 0.78 0.0 0 1 134.06 160.22
  L 139.67 160.11
  A 0.78 0.78 0.0 0 0 140.39 159.59
  L 142.22 154.29
  A 0.78 0.78 0.0 0 1 143.70 154.29
  L 145.53 159.59
  A 0.78 0.78 0.0 0 0 146.25 160.11
  Z"
/>
<path fill="#f5f5f5" d="
  M 193.85 160.14
  L 199.46 160.23
  A 0.78 0.78 0.0 0 1 199.91 161.64
  L 195.43 165.01
  A 0.78 0.78 0.0 0 0 195.15 165.86
  L 196.80 171.23
  A 0.78 0.78 0.0 0 1 195.60 172.09
  L 191.01 168.87
  A 0.78 0.78 0.0 0 0 190.11 168.87
  L 185.52 172.09
  A 0.78 0.78 0.0 0 1 184.32 171.23
  L 185.97 165.86
  A 0.78 0.78 0.0 0 0 185.69 165.01
  L 181.21 161.64
  A 0.78 0.78 0.0 0 1 181.66 160.23
  L 187.27 160.14
  A 0.78 0.78 0.0 0 0 188.00 159.61
  L 189.82 154.31
  A 0.78 0.78 0.0 0 1 191.30 154.31
  L 193.12 159.61
  A 0.78 0.78 0.0 0 0 193.85 160.14
  Z"
/>
<path fill="#f5f5f5" d="
  M 238.38 165.70
  L 512.00 165.70
  L 512.00 191.50
  L 238.42 191.50
  L 238.38 165.70
  Z"
/>
<path fill="#f5f5f5" d="
  M 122.46 175.73
  L 128.05 175.86
  A 0.77 0.77 0.0 0 1 128.50 177.24
  L 124.05 180.64
  A 0.77 0.77 0.0 0 0 123.78 181.47
  L 125.38 186.83
  A 0.77 0.77 0.0 0 1 124.21 187.68
  L 119.61 184.50
  A 0.77 0.77 0.0 0 0 118.73 184.50
  L 114.13 187.68
  A 0.77 0.77 0.0 0 1 112.96 186.83
  L 114.56 181.47
  A 0.77 0.77 0.0 0 0 114.29 180.64
  L 109.84 177.24
  A 0.77 0.77 0.0 0 1 110.29 175.86
  L 115.88 175.73
  A 0.77 0.77 0.0 0 0 116.59 175.21
  L 118.44 169.94
  A 0.77 0.77 0.0 0 1 119.90 169.94
  L 121.75 175.21
  A 0.77 0.77 0.0 0 0 122.46 175.73
  Z"
/>
<path fill="#f5f5f5" d="
  M 170.04 175.73
  L 175.65 175.87
  A 0.76 0.76 0.0 0 1 176.10 177.23
  L 171.64 180.64
  A 0.76 0.76 0.0 0 0 171.37 181.46
  L 172.97 186.84
  A 0.76 0.76 0.0 0 1 171.81 187.69
  L 167.19 184.50
  A 0.76 0.76 0.0 0 0 166.33 184.50
  L 161.71 187.69
  A 0.76 0.76 0.0 0 1 160.55 186.84
  L 162.15 181.46
  A 0.76 0.76 0.0 0 0 161.88 180.64
  L 157.42 177.23
  A 0.76 0.76 0.0 0 1 157.87 175.87
  L 163.48 175.73
  A 0.76 0.76 0.0 0 0 164.18 175.22
  L 166.04 169.92
  A 0.76 0.76 0.0 0 1 167.48 169.92
  L 169.34 175.22
  A 0.76 0.76 0.0 0 0 170.04 175.73
  Z"
/>
<path fill="#f5f5f5" d="
  M 217.62 175.73
  L 223.24 175.86
  A 0.76 0.76 0.0 0 1 223.68 177.23
  L 219.22 180.64
  A 0.76 0.76 0.0 0 0 218.95 181.46
  L 220.56 186.85
  A 0.76 0.76 0.0 0 1 219.40 187.69
  L 214.77 184.50
  A 0.76 0.76 0.0 0 0 213.91 184.50
  L 209.28 187.69
  A 0.76 0.76 0.0 0 1 208.12 186.85
  L 209.73 181.46
  A 0.76 0.76 0.0 0 0 209.46 180.64
  L 205.00 177.23
  A 0.76 0.76 0.0 0 1 205.44 175.86
  L 211.06 175.73
  A 0.76 0.76 0.0 0 0 211.76 175.22
  L 213.62 169.92
  A 0.76 0.76 0.0 0 1 215.06 169.92
  L 216.92 175.22
  A 0.76 0.76 0.0 0 0 217.62 175.73
  Z"
/>
<path fill="#f5f5f5" d="
  M 27.29 175.76
  L 32.90 175.85
  A 0.78 0.78 0.0 0 1 33.36 177.25
  L 28.87 180.63
  A 0.78 0.78 0.0 0 0 28.59 181.48
  L 30.24 186.85
  A 0.78 0.78 0.0 0 1 29.05 187.72
  L 24.45 184.49
  A 0.78 0.78 0.0 0 0 23.55 184.49
  L 18.95 187.72
  A 0.78 0.78 0.0 0 1 17.76 186.85
  L 19.41 181.48
  A 0.78 0.78 0.0 0 0 19.13 180.63
  L 14.64 177.25
  A 0.78 0.78 0.0 0 1 15.10 175.85
  L 20.71 175.76
  A 0.78 0.78 0.0 0 0 21.44 175.23
  L 23.26 169.92
  A 0.78 0.78 0.0 0 1 24.74 169.92
  L 26.56 175.23
  A 0.78 0.78 0.0 0 0 27.29 175.76
  Z"
/>
<path fill="#f5f5f5" d="
  M 74.92 175.75
  L 80.35 175.85
  A 0.83 0.83 0.0 0 1 80.84 177.34
  L 76.50 180.61
  A 0.83 0.83 0.0 0 0 76.20 181.52
  L 77.79 186.72
  A 0.83 0.83 0.0 0 1 76.52 187.64
  L 72.07 184.52
  A 0.83 0.83 0.0 0 0 71.11 184.52
  L 66.66 187.64
  A 0.83 0.83 0.0 0 1 65.39 186.72
  L 66.98 181.52
  A 0.83 0.83 0.0 0 0 66.68 180.61
  L 62.34 177.34
  A 0.83 0.83 0.0 0 1 62.83 175.85
  L 68.26 175.75
  A 0.83 0.83 0.0 0 0 69.03 175.19
  L 70.81 170.05
  A 0.83 0.83 0.0 0 1 72.37 170.05
  L 74.15 175.19
  A 0.83 0.83 0.0 0 0 74.92 175.75
  Z"
/>
<path fill="#f5f5f5" d="
  M 98.66 190.74
  L 104.28 190.88
  A 0.76 0.76 0.0 0 1 104.72 192.25
  L 100.26 195.66
  A 0.76 0.76 0.0 0 0 99.99 196.48
  L 101.59 201.87
  A 0.76 0.76 0.0 0 1 100.43 202.72
  L 95.80 199.53
  A 0.76 0.76 0.0 0 0 94.94 199.53
  L 90.31 202.72
  A 0.76 0.76 0.0 0 1 89.15 201.87
  L 90.75 196.48
  A 0.76 0.76 0.0 0 0 90.48 195.66
  L 86.02 192.25
  A 0.76 0.76 0.0 0 1 86.46 190.88
  L 92.08 190.74
  A 0.76 0.76 0.0 0 0 92.78 190.23
  L 94.65 184.93
  A 0.76 0.76 0.0 0 1 96.09 184.93
  L 97.96 190.23
  A 0.76 0.76 0.0 0 0 98.66 190.74
  Z"
/>
<path fill="#f5f5f5" d="
  M 51.10 190.75
  L 56.68 190.89
  A 0.78 0.78 0.0 0 1 57.13 192.29
  L 52.70 195.68
  A 0.78 0.78 0.0 0 0 52.43 196.52
  L 54.02 201.87
  A 0.78 0.78 0.0 0 1 52.83 202.73
  L 48.23 199.57
  A 0.78 0.78 0.0 0 0 47.35 199.57
  L 42.75 202.73
  A 0.78 0.78 0.0 0 1 41.56 201.87
  L 43.15 196.52
  A 0.78 0.78 0.0 0 0 42.88 195.68
  L 38.45 192.29
  A 0.78 0.78 0.0 0 1 38.90 190.89
  L 44.48 190.75
  A 0.78 0.78 0.0 0 0 45.19 190.23
  L 47.05 184.97
  A 0.78 0.78 0.0 0 1 48.53 184.97
  L 50.39 190.23
  A 0.78 0.78 0.0 0 0 51.10 190.75
  Z"
/>
<path fill="#f5f5f5" d="
  M 146.25 190.78
  L 151.86 190.88
  A 0.78 0.78 0.0 0 1 152.32 192.28
  L 147.84 195.66
  A 0.78 0.78 0.0 0 0 147.56 196.52
  L 149.20 201.88
  A 0.78 0.78 0.0 0 1 148.01 202.75
  L 143.41 199.53
  A 0.78 0.78 0.0 0 0 142.51 199.53
  L 137.91 202.75
  A 0.78 0.78 0.0 0 1 136.72 201.88
  L 138.36 196.52
  A 0.78 0.78 0.0 0 0 138.08 195.66
  L 133.60 192.28
  A 0.78 0.78 0.0 0 1 134.06 190.88
  L 139.67 190.78
  A 0.78 0.78 0.0 0 0 140.39 190.26
  L 142.22 184.95
  A 0.78 0.78 0.0 0 1 143.70 184.95
  L 145.53 190.26
  A 0.78 0.78 0.0 0 0 146.25 190.78
  Z"
/>
<path fill="#f5f5f5" d="
  M 193.88 190.78
  L 199.31 190.88
  A 0.83 0.83 0.0 0 1 199.79 192.37
  L 195.46 195.64
  A 0.83 0.83 0.0 0 0 195.16 196.55
  L 196.75 201.75
  A 0.83 0.83 0.0 0 1 195.48 202.67
  L 191.03 199.55
  A 0.83 0.83 0.0 0 0 190.07 199.55
  L 185.62 202.67
  A 0.83 0.83 0.0 0 1 184.35 201.75
  L 185.94 196.55
  A 0.83 0.83 0.0 0 0 185.64 195.64
  L 181.31 192.37
  A 0.83 0.83 0.0 0 1 181.79 190.88
  L 187.22 190.78
  A 0.83 0.83 0.0 0 0 187.99 190.22
  L 189.77 185.09
  A 0.83 0.83 0.0 0 1 191.33 185.09
  L 193.11 190.22
  A 0.83 0.83 0.0 0 0 193.88 190.78
  Z"
/>
<path fill="#ff4b55" d="
  M 238.42 191.50
  L 512.00 191.50
  L 512.00 217.26
  L 238.40 217.26
  L 238.42 191.50
  Z"
/>
<path fill="#f5f5f5" d="
  M 27.28 206.43
  L 32.92 206.51
  A 0.78 0.78 0.0 0 1 33.37 207.91
  L 28.86 211.29
  A 0.78 0.78 0.0 0 0 28.58 212.14
  L 30.25 217.52
  A 0.78 0.78 0.0 0 1 29.05 218.39
  L 24.45 215.15
  A 0.78 0.78 0.0 0 0 23.55 215.15
  L 18.95 218.39
  A 0.78 0.78 0.0 0 1 17.75 217.52
  L 19.42 212.14
  A 0.78 0.78 0.0 0 0 19.14 211.29
  L 14.63 207.91
  A 0.78 0.78 0.0 0 1 15.08 206.51
  L 20.72 206.43
  A 0.78 0.78 0.0 0 0 21.44 205.90
  L 23.26 200.57
  A 0.78 0.78 0.0 0 1 24.74 200.57
  L 26.56 205.90
  A 0.78 0.78 0.0 0 0 27.28 206.43
  Z"
/>
<path fill="#f5f5f5" d="
  M 74.89 206.37
  L 80.48 206.52
  A 0.77 0.77 0.0 0 1 80.93 207.90
  L 76.50 211.31
  A 0.77 0.77 0.0 0 0 76.23 212.13
  L 77.81 217.49
  A 0.77 0.77 0.0 0 1 76.63 218.35
  L 72.03 215.19
  A 0.77 0.77 0.0 0 0 71.15 215.19
  L 66.55 218.35
  A 0.77 0.77 0.0 0 1 65.37 217.49
  L 66.95 212.13
  A 0.77 0.77 0.0 0 0 66.68 211.31
  L 62.25 207.90
  A 0.77 0.77 0.0 0 1 62.70 206.52
  L 68.29 206.37
  A 0.77 0.77 0.0 0 0 68.99 205.85
  L 70.86 200.59
  A 0.77 0.77 0.0 0 1 72.32 200.59
  L 74.19 205.85
  A 0.77 0.77 0.0 0 0 74.89 206.37
  Z"
/>
<path fill="#f5f5f5" d="
  M 122.47 206.39
  L 128.09 206.53
  A 0.76 0.76 0.0 0 1 128.53 207.90
  L 124.07 211.31
  A 0.76 0.76 0.0 0 0 123.80 212.13
  L 125.40 217.52
  A 0.76 0.76 0.0 0 1 124.24 218.37
  L 119.61 215.18
  A 0.76 0.76 0.0 0 0 118.75 215.18
  L 114.12 218.37
  A 0.76 0.76 0.0 0 1 112.96 217.52
  L 114.56 212.13
  A 0.76 0.76 0.0 0 0 114.29 211.31
  L 109.83 207.90
  A 0.76 0.76 0.0 0 1 110.27 206.53
  L 115.89 206.39
  A 0.76 0.76 0.0 0 0 116.59 205.88
  L 118.46 200.58
  A 0.76 0.76 0.0 0 1 119.90 200.58
  L 121.77 205.88
  A 0.76 0.76 0.0 0 0 122.47 206.39
  Z"
/>
<path fill="#f5f5f5" d="
  M 170.04 206.38
  L 175.68 206.53
  A 0.75 0.75 0.0 0 1 176.11 207.87
  L 171.64 211.31
  A 0.75 0.75 0.0 0 0 171.38 212.12
  L 172.98 217.52
  A 0.75 0.75 0.0 0 1 171.83 218.36
  L 167.18 215.16
  A 0.75 0.75 0.0 0 0 166.34 215.16
  L 161.69 218.36
  A 0.75 0.75 0.0 0 1 160.54 217.52
  L 162.14 212.12
  A 0.75 0.75 0.0 0 0 161.88 211.31
  L 157.41 207.87
  A 0.75 0.75 0.0 0 1 157.84 206.53
  L 163.48 206.38
  A 0.75 0.75 0.0 0 0 164.17 205.88
  L 166.05 200.57
  A 0.75 0.75 0.0 0 1 167.47 200.57
  L 169.35 205.88
  A 0.75 0.75 0.0 0 0 170.04 206.38
  Z"
/>
<path fill="#f5f5f5" d="
  M 217.63 206.37
  L 223.25 206.52
  A 0.76 0.76 0.0 0 1 223.70 207.88
  L 219.23 211.31
  A 0.76 0.76 0.0 0 0 218.97 212.13
  L 220.57 217.52
  A 0.76 0.76 0.0 0 1 219.41 218.36
  L 214.77 215.18
  A 0.76 0.76 0.0 0 0 213.91 215.18
  L 209.27 218.36
  A 0.76 0.76 0.0 0 1 208.11 217.52
  L 209.71 212.13
  A 0.76 0.76 0.0 0 0 209.45 211.31
  L 204.98 207.88
  A 0.76 0.76 0.0 0 1 205.43 206.52
  L 211.05 206.37
  A 0.76 0.76 0.0 0 0 211.75 205.87
  L 213.62 200.56
  A 0.76 0.76 0.0 0 1 215.06 200.56
  L 216.93 205.87
  A 0.76 0.76 0.0 0 0 217.63 206.37
  Z"
/>
<path fill="#f5f5f5" d="
  M 51.08 221.39
  L 56.68 221.55
  A 0.76 0.76 0.0 0 1 57.13 222.91
  L 52.68 226.33
  A 0.76 0.76 0.0 0 0 52.42 227.15
  L 54.00 232.52
  A 0.76 0.76 0.0 0 1 52.84 233.37
  L 48.22 230.19
  A 0.76 0.76 0.0 0 0 47.36 230.19
  L 42.74 233.37
  A 0.76 0.76 0.0 0 1 41.58 232.52
  L 43.16 227.15
  A 0.76 0.76 0.0 0 0 42.90 226.33
  L 38.45 222.91
  A 0.76 0.76 0.0 0 1 38.90 221.55
  L 44.50 221.39
  A 0.76 0.76 0.0 0 0 45.20 220.89
  L 47.07 215.60
  A 0.76 0.76 0.0 0 1 48.51 215.60
  L 50.38 220.89
  A 0.76 0.76 0.0 0 0 51.08 221.39
  Z"
/>
<path fill="#f5f5f5" d="
  M 98.66 221.40
  L 104.26 221.54
  A 0.77 0.77 0.0 0 1 104.71 222.92
  L 100.26 226.32
  A 0.77 0.77 0.0 0 0 99.99 227.15
  L 101.59 232.52
  A 0.77 0.77 0.0 0 1 100.42 233.37
  L 95.81 230.19
  A 0.77 0.77 0.0 0 0 94.93 230.19
  L 90.32 233.37
  A 0.77 0.77 0.0 0 1 89.15 232.52
  L 90.75 227.15
  A 0.77 0.77 0.0 0 0 90.48 226.32
  L 86.03 222.92
  A 0.77 0.77 0.0 0 1 86.48 221.54
  L 92.08 221.40
  A 0.77 0.77 0.0 0 0 92.78 220.89
  L 94.64 215.60
  A 0.77 0.77 0.0 0 1 96.10 215.60
  L 97.96 220.89
  A 0.77 0.77 0.0 0 0 98.66 221.40
  Z"
/>
<path fill="#f5f5f5" d="
  M 146.26 221.40
  L 151.87 221.54
  A 0.76 0.76 0.0 0 1 152.31 222.91
  L 147.86 226.32
  A 0.76 0.76 0.0 0 0 147.59 227.14
  L 149.19 232.53
  A 0.76 0.76 0.0 0 1 148.03 233.37
  L 143.40 230.19
  A 0.76 0.76 0.0 0 0 142.54 230.19
  L 137.91 233.37
  A 0.76 0.76 0.0 0 1 136.75 232.53
  L 138.35 227.14
  A 0.76 0.76 0.0 0 0 138.08 226.32
  L 133.63 222.91
  A 0.76 0.76 0.0 0 1 134.07 221.54
  L 139.68 221.40
  A 0.76 0.76 0.0 0 0 140.38 220.89
  L 142.25 215.60
  A 0.76 0.76 0.0 0 1 143.69 215.60
  L 145.56 220.89
  A 0.76 0.76 0.0 0 0 146.26 221.40
  Z"
/>
<path fill="#f5f5f5" d="
  M 193.84 221.41
  L 199.45 221.56
  A 0.76 0.76 0.0 0 1 199.89 222.92
  L 195.44 226.33
  A 0.76 0.76 0.0 0 0 195.18 227.15
  L 196.77 232.53
  A 0.76 0.76 0.0 0 1 195.61 233.37
  L 190.99 230.20
  A 0.76 0.76 0.0 0 0 190.13 230.20
  L 185.51 233.37
  A 0.76 0.76 0.0 0 1 184.35 232.53
  L 185.94 227.15
  A 0.76 0.76 0.0 0 0 185.68 226.33
  L 181.23 222.92
  A 0.76 0.76 0.0 0 1 181.67 221.56
  L 187.28 221.41
  A 0.76 0.76 0.0 0 0 187.97 220.91
  L 189.84 215.62
  A 0.76 0.76 0.0 0 1 191.28 215.62
  L 193.15 220.91
  A 0.76 0.76 0.0 0 0 193.84 221.41
  Z"
/>
<path fill="#f5f5f5" d="
  M 238.40 217.26
  L 512.00 217.26
  L 512.00 243.06
  L 238.40 243.07
  L 238.40 217.26
  Z"
/>
<path fill="#f5f5f5" d="
  M 27.32 237.01
  L 32.91 237.15
  A 0.78 0.78 0.0 0 1 33.36 238.55
  L 28.92 241.96
  A 0.78 0.78 0.0 0 0 28.65 242.80
  L 30.24 248.16
  A 0.78 0.78 0.0 0 1 29.05 249.02
  L 24.44 245.85
  A 0.78 0.78 0.0 0 0 23.56 245.85
  L 18.95 249.02
  A 0.78 0.78 0.0 0 1 17.76 248.16
  L 19.35 242.80
  A 0.78 0.78 0.0 0 0 19.08 241.96
  L 14.64 238.55
  A 0.78 0.78 0.0 0 1 15.09 237.15
  L 20.68 237.01
  A 0.78 0.78 0.0 0 0 21.40 236.49
  L 23.26 231.22
  A 0.78 0.78 0.0 0 1 24.74 231.22
  L 26.60 236.49
  A 0.78 0.78 0.0 0 0 27.32 237.01
  Z"
/>
<path fill="#f5f5f5" d="
  M 74.91 237.00
  L 80.48 237.15
  A 0.78 0.78 0.0 0 1 80.94 238.55
  L 76.51 241.95
  A 0.78 0.78 0.0 0 0 76.24 242.78
  L 77.82 248.14
  A 0.78 0.78 0.0 0 1 76.63 249.00
  L 72.03 245.84
  A 0.78 0.78 0.0 0 0 71.15 245.84
  L 66.55 249.00
  A 0.78 0.78 0.0 0 1 65.36 248.14
  L 66.94 242.78
  A 0.78 0.78 0.0 0 0 66.67 241.95
  L 62.24 238.55
  A 0.78 0.78 0.0 0 1 62.70 237.15
  L 68.27 237.00
  A 0.78 0.78 0.0 0 0 68.99 236.48
  L 70.85 231.22
  A 0.78 0.78 0.0 0 1 72.33 231.22
  L 74.19 236.48
  A 0.78 0.78 0.0 0 0 74.91 237.00
  Z"
/>
<path fill="#f5f5f5" d="
  M 122.51 237.04
  L 127.91 237.14
  A 0.84 0.84 0.0 0 1 128.40 238.65
  L 124.09 241.91
  A 0.84 0.84 0.0 0 0 123.79 242.83
  L 125.37 248.00
  A 0.84 0.84 0.0 0 1 124.08 248.93
  L 119.65 245.84
  A 0.84 0.84 0.0 0 0 118.69 245.84
  L 114.26 248.93
  A 0.84 0.84 0.0 0 1 112.97 248.00
  L 114.55 242.83
  A 0.84 0.84 0.0 0 0 114.25 241.91
  L 109.94 238.65
  A 0.84 0.84 0.0 0 1 110.43 237.14
  L 115.83 237.04
  A 0.84 0.84 0.0 0 0 116.61 236.48
  L 118.38 231.37
  A 0.84 0.84 0.0 0 1 119.96 231.37
  L 121.73 236.48
  A 0.84 0.84 0.0 0 0 122.51 237.04
  Z"
/>
<path fill="#f5f5f5" d="
  M 170.05 237.03
  L 175.66 237.14
  A 0.78 0.78 0.0 0 1 176.12 238.54
  L 171.64 241.93
  A 0.78 0.78 0.0 0 0 171.37 242.78
  L 173.00 248.14
  A 0.78 0.78 0.0 0 1 171.81 249.01
  L 167.21 245.80
  A 0.78 0.78 0.0 0 0 166.31 245.80
  L 161.71 249.01
  A 0.78 0.78 0.0 0 1 160.52 248.14
  L 162.15 242.78
  A 0.78 0.78 0.0 0 0 161.88 241.93
  L 157.40 238.54
  A 0.78 0.78 0.0 0 1 157.86 237.14
  L 163.47 237.03
  A 0.78 0.78 0.0 0 0 164.19 236.51
  L 166.02 231.21
  A 0.78 0.78 0.0 0 1 167.50 231.21
  L 169.33 236.51
  A 0.78 0.78 0.0 0 0 170.05 237.03
  Z"
/>
<path fill="#f5f5f5" d="
  M 217.65 237.01
  L 223.23 237.16
  A 0.78 0.78 0.0 0 1 223.68 238.56
  L 219.26 241.96
  A 0.78 0.78 0.0 0 0 218.99 242.79
  L 220.57 248.14
  A 0.78 0.78 0.0 0 1 219.38 249.00
  L 214.78 245.85
  A 0.78 0.78 0.0 0 0 213.90 245.85
  L 209.30 249.00
  A 0.78 0.78 0.0 0 1 208.11 248.14
  L 209.69 242.79
  A 0.78 0.78 0.0 0 0 209.42 241.96
  L 205.00 238.56
  A 0.78 0.78 0.0 0 1 205.45 237.16
  L 211.03 237.01
  A 0.78 0.78 0.0 0 0 211.74 236.49
  L 213.61 231.24
  A 0.78 0.78 0.0 0 1 215.07 231.24
  L 216.94 236.49
  A 0.78 0.78 0.0 0 0 217.65 237.01
  Z"
/>
<path fill="#ff4b55" d="
  M 512.00 243.06
  L 512.00 268.92
  L 233.46 268.94
  L 233.05 268.84
  A 0.40 0.40 0.0 0 1 232.97 268.09
  Q 238.32 265.47 238.29 259.25
  Q 238.26 251.34 238.40 243.07
  L 512.00 243.06
  Z"
/>
<path fill="#f5f5f5" d="
  M 0.00 262.33
  Q 2.80 268.98 10.25 268.98
  Q 121.85 269.02 233.46 268.94
  L 512.00 268.92
  L 512.00 294.74
  L 0.00 294.74
  L 0.00 262.33
  Z"
/>
<path fill="#ff4b55" d="
  M 0.00 294.74
  L 512.00 294.74
  L 512.00 320.50
  L 0.00 320.50
  L 0.00 294.74
  Z"
/>
<path fill="#f5f5f5" d="
  M 0.00 320.50
  L 512.00 320.50
  L 512.00 346.29
  L 0.00 346.28
  L 0.00 320.50
  Z"
/>
<path fill="#ff4b55" d="
  M 0.00 346.28
  L 512.00 346.29
  L 512.00 372.13
  L 0.00 372.13
  L 0.00 346.28
  Z"
/>
<path fill="#f5f5f5" d="
  M 0.00 372.13
  L 512.00 372.13
  L 512.00 397.91
  L 0.00 397.90
  L 0.00 372.13
  Z"
/>
<path fill="#ff4b55" d="
  M 0.00 397.90
  L 512.00 397.91
  L 512.00 416.75
  Q 510.61 421.12 506.95 422.88
  Q 504.80 423.92 499.64 423.92
  Q 254.82 423.92 10.00 423.92
  Q 2.27 423.92 0.00 416.63
  L 0.00 397.90
  Z"
/>
</svg>
