<?xml version="1.0" encoding="UTF-8" standalone="no"?>
<!DOCTYPE svg PUBLIC "-//W3C//DTD SVG 1.1//EN" "http://www.w3.org/Graphics/SVG/1.1/DTD/svg11.dtd">
<svg xmlns="http://www.w3.org/2000/svg" version="1.1" viewBox="0.00 0.00 1773.00 1182.00">
<path fill="#ffffff" d="
  M 0.00 0.00
  L 1773.00 0.00
  L 1773.00 131.32
  L 657.07 131.32
  A 0.43 0.43 0.0 0 0 656.64 131.75
  L 656.65 262.05
  A 0.59 0.59 0.0 0 0 657.24 262.64
  L 1773.00 262.66
  L 1773.00 394.00
  L 656.96 394.00
  A 0.32 0.31 90.0 0 0 656.65 394.32
  L 656.65 524.76
  Q 656.65 525.27 657.15 525.27
  L 1773.00 525.34
  L 1773.00 656.67
  L 0.00 656.67
  L 0.00 0.00
  Z
  M 310.16 177.79
  Q 309.27 180.35 309.24 183.19
  L 304.68 208.36
  Q 304.51 209.32 304.10 208.43
  Q 293.75 186.30 278.34 169.64
  C 270.85 161.54 262.05 154.84 254.02 147.49
  Q 245.53 139.72 242.42 130.92
  C 238.90 120.93 239.22 110.35 239.46 99.88
  Q 239.47 99.14 239.10 99.78
  Q 232.90 110.56 228.94 122.28
  Q 228.22 123.50 228.34 125.19
  Q 225.72 134.75 227.66 143.25
  Q 229.63 151.91 233.79 159.06
  Q 239.61 169.05 244.04 177.36
  Q 249.66 187.90 252.62 200.41
  Q 255.26 211.50 255.81 222.89
  A 0.37 0.37 0.0 0 1 255.23 223.21
  L 152.00 151.76
  Q 151.28 151.26 151.78 151.98
  L 226.34 259.70
  Q 226.80 260.36 226.03 260.10
  Q 219.83 257.97 213.43 255.89
  Q 186.73 247.25 158.77 250.92
  Q 150.12 252.05 142.34 252.34
  C 125.95 252.95 114.34 240.78 104.08 229.72
  Q 103.35 228.94 103.65 229.97
  Q 106.33 239.21 109.08 245.95
  Q 110.80 250.18 113.51 254.76
  C 120.05 265.82 129.77 272.34 141.84 275.49
  Q 153.82 278.61 163.40 281.70
  Q 180.79 287.33 195.67 299.34
  Q 199.24 302.22 202.57 305.06
  A 0.38 0.37 60.0 0 1 202.40 305.72
  L 79.25 328.09
  Q 77.92 328.33 79.25 328.57
  L 208.47 352.06
  Q 208.71 352.10 208.49 352.21
  Q 200.68 355.96 193.39 359.86
  Q 189.98 361.68 186.86 363.74
  Q 183.48 365.97 180.42 368.09
  C 171.08 374.59 162.82 382.41 155.71 391.32
  Q 150.99 397.24 146.03 403.20
  Q 136.55 414.61 122.03 416.57
  Q 112.23 417.90 100.77 417.17
  Q 98.34 417.01 100.50 418.13
  C 118.54 427.43 135.60 435.04 155.73 424.55
  C 165.75 419.33 175.84 412.73 186.64 408.39
  Q 203.31 401.68 222.92 400.96
  Q 223.59 400.94 223.21 401.49
  L 152.21 504.01
  Q 151.24 505.41 152.65 504.44
  L 259.67 430.38
  Q 260.70 429.67 260.24 430.83
  Q 253.14 448.65 250.61 467.12
  C 249.14 477.86 249.48 489.33 251.03 500.22
  C 252.27 508.98 253.62 519.00 250.18 527.15
  Q 246.77 535.25 240.47 541.95
  Q 235.50 547.24 229.82 552.56
  Q 228.87 553.45 230.12 553.08
  Q 239.51 550.28 247.68 546.72
  Q 255.16 543.47 260.45 539.21
  Q 269.34 532.05 273.61 520.74
  Q 274.93 517.25 277.79 506.46
  Q 278.64 504.92 278.71 503.05
  Q 282.05 490.85 285.03 484.27
  Q 292.49 467.80 305.03 454.28
  Q 305.59 453.69 305.73 454.49
  L 327.95 576.72
  Q 328.36 579.01 328.78 576.72
  L 331.81 559.95
  Q 332.73 557.25 332.75 554.31
  L 352.00 448.55
  Q 352.22 447.33 352.73 448.46
  C 362.04 469.38 374.90 487.80 392.74 501.72
  Q 399.48 506.98 405.20 512.26
  C 417.94 524.01 417.61 540.28 417.30 556.13
  Q 417.26 558.10 418.12 556.33
  L 424.24 543.75
  Q 425.47 541.91 425.69 540.23
  L 426.52 538.20
  Q 427.55 536.20 427.69 534.31
  L 428.70 530.28
  Q 429.66 528.15 429.65 526.00
  Q 429.64 522.40 429.65 518.78
  Q 428.88 508.61 424.35 500.43
  C 419.15 491.05 412.82 480.74 409.15 471.89
  Q 401.56 453.61 400.94 433.63
  Q 400.92 433.08 401.37 433.39
  L 503.88 504.36
  Q 505.47 505.46 504.36 503.87
  L 430.53 397.22
  Q 429.67 395.98 431.08 396.52
  C 452.82 404.84 474.84 408.52 497.55 405.56
  Q 504.30 404.67 511.27 404.23
  Q 523.89 403.43 533.66 409.88
  Q 539.15 413.51 540.87 415.15
  Q 546.85 420.88 552.39 426.65
  Q 553.62 427.93 553.05 426.25
  L 549.21 414.94
  Q 548.97 412.89 548.02 411.79
  Q 546.24 407.54 544.04 403.49
  Q 535.18 387.13 517.06 381.88
  Q 507.32 379.05 502.42 377.79
  Q 474.65 370.62 454.27 351.57
  A 0.35 0.35 0.0 0 1 454.45 350.97
  L 577.25 328.63
  Q 579.06 328.30 577.25 327.97
  L 477.20 309.80
  Q 475.07 309.00 472.55 309.07
  L 466.95 307.94
  Q 464.25 306.92 461.30 307.05
  L 448.45 304.73
  Q 446.83 304.43 448.33 303.76
  C 468.13 294.82 485.86 282.54 499.77 265.66
  Q 505.46 258.76 510.97 252.52
  C 519.11 243.31 530.58 239.54 542.60 239.41
  Q 549.64 239.33 556.64 239.42
  Q 557.92 239.44 556.77 238.87
  C 549.49 235.24 542.66 231.43 534.77 229.14
  C 522.48 225.56 511.11 226.42 499.74 232.73
  Q 485.36 240.71 479.38 244.14
  Q 473.88 247.30 463.70 250.58
  Q 461.96 250.61 460.54 251.47
  L 455.44 252.81
  L 450.54 253.80
  Q 442.14 255.48 433.90 255.70
  Q 433.08 255.72 433.55 255.05
  L 504.53 152.53
  Q 505.37 151.32 504.12 152.12
  Q 500.49 154.45 497.08 157.24
  C 496.22 157.94 495.30 158.24 494.26 158.57
  Q 494.10 158.62 494.07 158.79
  Q 494.06 158.85 494.12 158.87
  Q 494.45 158.96 494.16 159.17
  Q 453.90 186.83 415.01 213.91
  C 414.39 214.35 413.73 214.28 413.09 214.83
  Q 410.84 216.76 408.54 218.38
  Q 406.40 219.02 405.05 220.75
  L 396.75 226.38
  Q 396.06 226.84 396.36 226.07
  C 403.22 207.94 407.43 189.24 406.75 170.75
  Q 406.41 161.86 405.09 152.87
  C 404.33 147.74 403.73 140.32 404.74 135.70
  Q 407.51 123.06 417.89 112.85
  Q 422.20 108.63 426.46 104.54
  Q 427.96 103.10 425.98 103.77
  L 412.46 108.31
  Q 410.45 108.73 408.56 110.02
  L 406.75 111.02
  Q 402.97 111.91 400.00 114.77
  Q 398.64 115.75 397.22 116.71
  Q 395.71 117.74 394.56 118.84
  Q 391.42 121.88 389.12 124.75
  Q 386.21 128.41 384.14 133.51
  Q 381.51 139.97 379.19 149.07
  Q 377.03 157.58 374.65 164.42
  Q 367.29 185.56 351.40 202.56
  A 0.25 0.25 0.0 0 1 350.97 202.43
  L 335.17 115.46
  L 334.20 109.80
  L 328.79 80.09
  Q 328.34 77.60 327.89 80.09
  L 310.16 177.79
  Z"
/>
<path fill="#7c3d00" d="
  M 334.20 109.80
  L 335.17 115.46
  L 350.97 202.43
  A 0.25 0.25 0.0 0 0 351.40 202.56
  Q 367.29 185.56 374.65 164.42
  Q 377.03 157.58 379.19 149.07
  Q 381.51 139.97 384.14 133.51
  Q 386.21 128.41 389.12 124.75
  Q 391.42 121.88 394.56 118.84
  Q 395.71 117.74 397.22 116.71
  Q 398.64 115.75 400.00 114.77
  L 406.75 111.02
  L 408.56 110.02
  Q 410.66 109.75 412.46 108.31
  L 425.98 103.77
  Q 427.96 103.10 426.46 104.54
  Q 422.20 108.63 417.89 112.85
  Q 407.51 123.06 404.74 135.70
  C 403.73 140.32 404.33 147.74 405.09 152.87
  Q 406.41 161.86 406.75 170.75
  C 407.43 189.24 403.22 207.94 396.36 226.07
  Q 396.06 226.84 396.75 226.38
  L 405.05 220.75
  Q 407.08 219.97 408.54 218.38
  Q 410.84 216.76 413.09 214.83
  C 413.73 214.28 414.39 214.35 415.01 213.91
  Q 453.90 186.83 494.16 159.17
  Q 494.45 158.96 494.12 158.87
  Q 494.06 158.85 494.07 158.79
  Q 494.10 158.62 494.26 158.57
  C 495.30 158.24 496.22 157.94 497.08 157.24
  Q 500.49 154.45 504.12 152.12
  Q 505.37 151.32 504.53 152.53
  L 433.55 255.05
  Q 433.08 255.72 433.90 255.70
  Q 442.14 255.48 450.54 253.80
  Q 453.24 253.89 455.44 252.81
  L 460.54 251.47
  Q 462.20 251.45 463.70 250.58
  Q 473.88 247.30 479.38 244.14
  Q 485.36 240.71 499.74 232.73
  C 511.11 226.42 522.48 225.56 534.77 229.14
  C 542.66 231.43 549.49 235.24 556.77 238.87
  Q 557.92 239.44 556.64 239.42
  Q 549.64 239.33 542.60 239.41
  C 530.58 239.54 519.11 243.31 510.97 252.52
  Q 505.46 258.76 499.77 265.66
  C 485.86 282.54 468.13 294.82 448.33 303.76
  Q 446.83 304.43 448.45 304.73
  L 461.30 307.05
  L 466.95 307.94
  L 472.55 309.07
  L 477.20 309.80
  L 577.25 327.97
  Q 579.06 328.30 577.25 328.63
  L 454.45 350.97
  A 0.35 0.35 0.0 0 0 454.27 351.57
  Q 474.65 370.62 502.42 377.79
  Q 507.32 379.05 517.06 381.88
  Q 535.18 387.13 544.04 403.49
  Q 546.24 407.54 548.02 411.79
  Q 548.15 413.42 549.21 414.94
  L 553.05 426.25
  Q 553.62 427.93 552.39 426.65
  Q 546.85 420.88 540.87 415.15
  Q 539.15 413.51 533.66 409.88
  Q 523.89 403.43 511.27 404.23
  Q 504.30 404.67 497.55 405.56
  C 474.84 408.52 452.82 404.84 431.08 396.52
  Q 429.67 395.98 430.53 397.22
  L 504.36 503.87
  Q 505.47 505.46 503.88 504.36
  L 401.37 433.39
  Q 400.92 433.08 400.94 433.63
  Q 401.56 453.61 409.15 471.89
  C 412.82 480.74 419.15 491.05 424.35 500.43
  Q 428.88 508.61 429.65 518.78
  L 428.70 530.28
  L 427.69 534.31
  Q 426.52 536.13 426.52 538.20
  L 425.69 540.23
  Q 424.49 541.88 424.24 543.75
  L 418.12 556.33
  Q 417.26 558.10 417.30 556.13
  C 417.61 540.28 417.94 524.01 405.20 512.26
  Q 399.48 506.98 392.74 501.72
  C 374.90 487.80 362.04 469.38 352.73 448.46
  Q 352.22 447.33 352.00 448.55
  L 332.75 554.31
  L 331.81 559.95
  L 328.78 576.72
  Q 328.36 579.01 327.95 576.72
  L 305.73 454.49
  Q 305.59 453.69 305.03 454.28
  Q 292.49 467.80 285.03 484.27
  Q 282.05 490.85 278.71 503.05
  Q 277.84 504.73 277.79 506.46
  Q 274.93 517.25 273.61 520.74
  Q 269.34 532.05 260.45 539.21
  Q 255.16 543.47 247.68 546.72
  Q 239.51 550.28 230.12 553.08
  Q 228.87 553.45 229.82 552.56
  Q 235.50 547.24 240.47 541.95
  Q 246.77 535.25 250.18 527.15
  C 253.62 519.00 252.27 508.98 251.03 500.22
  C 249.48 489.33 249.14 477.86 250.61 467.12
  Q 253.14 448.65 260.24 430.83
  Q 260.70 429.67 259.67 430.38
  L 152.65 504.44
  Q 151.24 505.41 152.21 504.01
  L 223.21 401.49
  Q 223.59 400.94 222.92 400.96
  Q 203.31 401.68 186.64 408.39
  C 175.84 412.73 165.75 419.33 155.73 424.55
  C 135.60 435.04 118.54 427.43 100.50 418.13
  Q 98.34 417.01 100.77 417.17
  Q 112.23 417.90 122.03 416.57
  Q 136.55 414.61 146.03 403.20
  Q 150.99 397.24 155.71 391.32
  C 162.82 382.41 171.08 374.59 180.42 368.09
  Q 183.48 365.97 186.86 363.74
  Q 189.98 361.68 193.39 359.86
  Q 200.68 355.96 208.49 352.21
  Q 208.71 352.10 208.47 352.06
  L 79.25 328.57
  Q 77.92 328.33 79.25 328.09
  L 202.40 305.72
  A 0.38 0.37 60.0 0 0 202.57 305.06
  Q 199.24 302.22 195.67 299.34
  Q 180.79 287.33 163.40 281.70
  Q 153.82 278.61 141.84 275.49
  C 129.77 272.34 120.05 265.82 113.51 254.76
  Q 110.80 250.18 109.08 245.95
  Q 106.33 239.21 103.65 229.97
  Q 103.35 228.94 104.08 229.72
  C 114.34 240.78 125.95 252.95 142.34 252.34
  Q 150.12 252.05 158.77 250.92
  Q 186.73 247.25 213.43 255.89
  Q 219.83 257.97 226.03 260.10
  Q 226.80 260.36 226.34 259.70
  L 151.78 151.98
  Q 151.28 151.26 152.00 151.76
  L 255.23 223.21
  A 0.37 0.37 0.0 0 0 255.81 222.89
  Q 255.26 211.50 252.62 200.41
  Q 249.66 187.90 244.04 177.36
  Q 239.61 169.05 233.79 159.06
  Q 229.63 151.91 227.66 143.25
  Q 225.72 134.75 228.34 125.19
  Q 229.08 123.87 228.94 122.28
  Q 232.90 110.56 239.10 99.78
  Q 239.47 99.14 239.46 99.88
  C 239.22 110.35 238.90 120.93 242.42 130.92
  Q 245.53 139.72 254.02 147.49
  C 262.05 154.84 270.85 161.54 278.34 169.64
  Q 293.75 186.30 304.10 208.43
  Q 304.51 209.32 304.68 208.36
  L 309.24 183.19
  L 310.16 177.79
  L 327.89 80.09
  Q 328.34 77.60 328.79 80.09
  L 334.20 109.80
  Z
  M 352.48 234.70
  Q 351.23 228.03 350.17 222.17
  Q 340.57 169.59 330.94 116.59
  Q 330.49 114.12 330.49 116.63
  L 330.50 246.20
  Q 330.50 246.72 331.02 246.74
  Q 343.57 247.20 354.79 251.17
  Q 355.39 251.38 355.28 250.75
  Q 352.92 237.07 352.48 234.70
  Z
  M 384.06 204.28
  C 379.57 219.04 373.28 233.64 365.58 247.38
  Q 364.98 248.46 365.99 247.76
  L 389.04 231.83
  Q 389.61 231.43 389.87 230.80
  C 396.04 215.85 400.67 200.20 402.08 184.01
  C 403.14 171.77 401.52 159.67 400.06 147.41
  Q 398.44 133.78 405.49 121.76
  Q 406.54 119.98 405.24 121.58
  C 399.06 129.19 396.52 139.45 394.98 148.97
  C 391.97 167.46 389.60 186.06 384.06 204.28
  Z
  M 255.60 154.75
  C 246.25 147.10 239.34 138.38 236.73 126.65
  A 0.10 0.09 38.3 0 0 236.54 126.67
  C 237.04 137.17 243.37 147.52 249.62 155.82
  Q 260.16 169.82 269.05 182.96
  Q 282.58 202.96 291.91 227.66
  Q 293.84 232.77 297.56 244.94
  Q 297.85 245.89 298.05 244.92
  Q 298.35 243.48 298.49 241.94
  C 298.79 238.67 299.76 235.37 300.31 232.12
  C 300.47 231.19 301.02 230.62 300.89 229.64
  Q 300.77 228.76 300.96 227.84
  Q 301.90 223.49 302.76 219.26
  Q 303.24 216.87 302.34 214.80
  C 296.02 200.36 287.04 185.32 276.21 173.78
  Q 267.46 164.46 255.60 154.75
  Z
  M 179.02 176.01
  C 209.93 206.74 240.77 237.88 271.82 268.65
  Q 272.23 269.07 272.66 268.66
  Q 281.42 260.41 292.49 255.05
  Q 293.12 254.75 292.55 254.35
  Q 268.58 237.60 259.40 231.53
  Q 257.40 230.21 254.97 228.40
  Q 251.97 226.17 251.96 226.16
  Q 215.50 201.11 179.26 175.76
  Q 179.12 175.67 179.02 175.80
  L 179.02 175.80
  Q 178.92 175.91 179.02 176.01
  Z
  M 476.28 185.99
  Q 476.69 185.45 480.09 180.25
  Q 481.23 178.50 479.75 179.98
  L 387.84 271.91
  A 0.41 0.41 0.0 0 0 387.83 272.48
  Q 396.29 281.53 401.65 292.51
  Q 401.94 293.10 402.32 292.56
  Q 436.85 242.66 471.38 192.81
  Q 473.79 189.33 476.28 185.99
  Z
  M 497.49 252.12
  Q 492.14 255.78 486.53 260.02
  Q 457.19 282.22 423.64 293.77
  Q 417.57 295.86 411.78 297.55
  Q 410.91 297.80 411.81 297.96
  L 438.96 302.88
  Q 439.48 302.98 439.98 302.77
  Q 457.30 295.58 472.14 285.31
  Q 484.59 276.70 495.22 264.35
  C 501.32 257.26 506.84 249.47 514.24 243.72
  Q 520.84 238.59 529.96 236.72
  Q 530.11 236.69 530.09 236.54
  L 530.09 236.53
  Q 530.06 236.36 529.89 236.38
  Q 522.01 237.18 514.41 241.09
  Q 507.92 244.43 501.68 249.03
  Q 497.54 252.09 497.49 252.12
  Z
  M 205.61 272.98
  Q 227.24 279.91 246.75 290.64
  Q 248.24 291.47 247.27 290.06
  L 231.61 267.35
  Q 231.35 266.98 230.93 266.79
  C 213.64 259.23 193.74 254.09 174.53 254.07
  C 166.05 254.06 155.79 255.53 146.50 256.52
  Q 132.39 258.03 120.64 250.34
  Q 120.53 250.27 120.45 250.37
  L 120.45 250.38
  Q 120.40 250.44 120.46 250.50
  C 128.21 257.26 138.66 260.12 149.26 261.74
  Q 163.66 263.95 178.76 266.48
  C 183.96 267.35 188.94 268.58 194.13 269.79
  Q 199.75 271.10 205.61 272.98
  Z
  M 370.25 263.57
  Q 359.31 256.05 346.50 253.15
  Q 326.40 248.61 306.92 254.02
  Q 297.20 256.71 288.50 262.09
  C 259.55 279.97 245.55 312.73 253.10 345.92
  Q 255.36 355.87 260.02 364.53
  C 278.02 397.99 317.70 414.17 354.13 401.19
  Q 372.50 394.64 385.41 380.35
  C 410.80 352.23 412.55 310.09 388.87 280.31
  Q 384.76 275.14 379.42 270.10
  Q 377.30 268.10 374.69 266.48
  Q 372.46 265.09 370.25 263.57
  Z
  M 250.70 301.34
  L 116.49 325.72
  Q 113.84 326.21 116.53 326.21
  L 246.38 326.21
  A 0.38 0.38 0.0 0 0 246.76 325.84
  Q 247.03 313.90 251.15 301.86
  Q 251.36 301.22 250.70 301.34
  Z
  M 445.80 347.87
  Q 447.36 347.86 450.11 347.35
  Q 476.67 342.41 540.56 330.99
  Q 540.62 330.98 540.61 330.93
  L 540.58 330.62
  Q 540.57 330.49 540.44 330.49
  L 410.51 330.49
  Q 409.88 330.49 409.86 331.12
  Q 409.47 343.54 405.53 354.76
  Q 405.28 355.47 406.02 355.34
  Q 425.44 351.85 445.17 348.20
  Q 445.23 348.19 445.28 348.14
  Q 445.38 348.03 445.54 347.94
  Q 445.66 347.88 445.80 347.87
  Z
  M 183.68 371.09
  Q 172.35 378.91 163.88 388.48
  Q 158.23 394.86 152.25 402.51
  C 145.53 411.12 137.94 417.47 127.32 419.87
  Q 126.19 420.13 127.35 420.15
  C 127.97 420.16 128.82 420.25 129.42 420.11
  Q 141.93 417.14 151.89 409.81
  Q 170.16 396.37 181.47 388.65
  Q 201.88 374.73 224.05 366.19
  Q 229.59 364.05 235.67 362.00
  C 238.75 360.96 241.87 360.05 245.00 359.24
  Q 246.19 358.92 244.98 358.70
  L 217.48 353.72
  A 3.69 3.68 38.6 0 0 215.41 353.95
  Q 197.83 361.34 183.68 371.09
  Z
  M 254.34 364.12
  L 176.27 476.86
  Q 176.08 477.14 176.42 477.12
  Q 176.58 477.12 176.69 477.01
  Q 221.63 431.85 268.70 384.94
  Q 269.14 384.50 268.71 384.04
  Q 260.31 375.06 255.05 364.18
  Q 254.74 363.54 254.34 364.12
  Z
  M 427.26 374.62
  C 421.26 371.93 414.98 368.82 409.09 365.43
  Q 408.17 364.90 408.78 365.77
  L 425.06 389.27
  A 1.70 1.70 0.0 0 0 425.79 389.86
  C 439.96 395.83 456.02 400.63 471.42 401.76
  C 481.22 402.48 490.66 402.09 500.22 400.86
  C 513.87 399.10 523.76 398.98 535.16 405.61
  Q 536.35 406.31 535.28 405.44
  C 528.76 400.16 520.63 397.38 512.47 395.82
  Q 505.65 394.52 480.75 390.71
  Q 461.52 387.77 439.10 379.47
  Q 433.23 377.30 427.26 374.62
  Z
  M 475.57 478.64
  L 384.78 387.98
  Q 384.40 387.60 384.01 387.97
  Q 375.14 396.29 363.91 401.81
  A 0.20 0.20 0.0 0 0 363.88 402.16
  L 475.12 479.17
  Q 478.32 481.39 475.57 478.64
  Z
  M 309.87 452.27
  Q 309.85 453.00 309.97 453.66
  Q 317.44 494.69 324.89 535.67
  Q 325.37 538.31 325.69 541.11
  Q 325.71 541.34 325.93 541.32
  L 325.94 541.32
  Q 326.17 541.31 326.17 541.08
  Q 326.22 477.17 326.20 410.55
  Q 326.20 409.89 325.54 409.87
  Q 313.26 409.46 301.91 405.54
  Q 301.26 405.32 301.38 406.00
  Q 305.53 429.50 309.70 451.86
  Q 309.72 451.96 309.79 452.04
  Q 309.88 452.14 309.87 452.27
  Z
  M 269.08 423.77
  Q 267.32 424.68 266.57 426.41
  C 257.71 447.02 252.20 470.36 254.59 492.80
  Q 255.44 500.79 256.45 509.93
  C 257.52 519.56 255.39 527.55 250.73 535.58
  Q 249.78 537.23 250.98 535.75
  Q 257.62 527.56 260.16 515.38
  Q 262.55 503.93 264.33 490.65
  Q 264.86 486.72 265.61 482.60
  Q 266.31 478.72 267.07 474.78
  Q 273.91 439.53 291.22 409.04
  Q 291.71 408.17 290.89 408.74
  Q 280.98 415.58 271.50 422.29
  Q 270.30 423.14 269.08 423.77
  Z
  M 384.00 468.18
  Q 367.51 441.64 359.22 411.76
  Q 358.93 410.71 358.73 411.78
  L 353.77 438.97
  A 2.76 2.75 38.9 0 0 353.94 440.54
  C 362.02 460.01 373.29 478.98 388.72 492.56
  Q 396.98 499.82 404.96 506.20
  Q 416.87 515.72 420.14 530.17
  Q 420.26 530.72 420.38 530.17
  Q 420.46 529.83 420.41 529.50
  C 418.97 520.11 415.04 512.27 409.25 504.06
  C 400.86 492.16 391.75 480.66 384.00 468.18
  Z"
/>
<path fill="#fcd20f" d="
  M 412.46 108.31
  Q 410.66 109.75 408.56 110.02
  Q 410.45 108.73 412.46 108.31
  Z"
/>
<path fill="#fcd20f" d="
  M 334.20 109.80
  L 335.17 115.46
  L 334.20 109.80
  Z"
/>
<path fill="#fcd20f" d="
  M 406.75 111.02
  L 400.00 114.77
  Q 402.97 111.91 406.75 111.02
  Z"
/>
<path fill="#fcd20f" d="
  M 352.48 234.70
  Q 352.92 237.07 355.28 250.75
  Q 355.39 251.38 354.79 251.17
  Q 343.57 247.20 331.02 246.74
  Q 330.50 246.72 330.50 246.20
  L 330.49 116.63
  Q 330.49 114.12 330.94 116.59
  Q 340.57 169.59 350.17 222.17
  Q 351.23 228.03 352.48 234.70
  Z"
/>
<path fill="#fcd20f" d="
  M 384.06 204.28
  C 389.60 186.06 391.97 167.46 394.98 148.97
  C 396.52 139.45 399.06 129.19 405.24 121.58
  Q 406.54 119.98 405.49 121.76
  Q 398.44 133.78 400.06 147.41
  C 401.52 159.67 403.14 171.77 402.08 184.01
  C 400.67 200.20 396.04 215.85 389.87 230.80
  Q 389.61 231.43 389.04 231.83
  L 365.99 247.76
  Q 364.98 248.46 365.58 247.38
  C 373.28 233.64 379.57 219.04 384.06 204.28
  Z"
/>
<path fill="#fcd20f" d="
  M 228.94 122.28
  Q 229.08 123.87 228.34 125.19
  Q 228.22 123.50 228.94 122.28
  Z"
/>
<path fill="#fcd20f" d="
  M 255.60 154.75
  Q 267.46 164.46 276.21 173.78
  C 287.04 185.32 296.02 200.36 302.34 214.80
  Q 303.24 216.87 302.76 219.26
  Q 301.90 223.49 300.96 227.84
  Q 300.77 228.76 300.89 229.64
  C 301.02 230.62 300.47 231.19 300.31 232.12
  C 299.76 235.37 298.79 238.67 298.49 241.94
  Q 298.35 243.48 298.05 244.92
  Q 297.85 245.89 297.56 244.94
  Q 293.84 232.77 291.91 227.66
  Q 282.58 202.96 269.05 182.96
  Q 260.16 169.82 249.62 155.82
  C 243.37 147.52 237.04 137.17 236.54 126.67
  A 0.10 0.09 38.3 0 1 236.73 126.65
  C 239.34 138.38 246.25 147.10 255.60 154.75
  Z"
/>
<path fill="#0035aa" d="
  M 1773.00 131.32
  L 1773.00 262.66
  L 657.24 262.64
  A 0.59 0.59 0.0 0 1 656.65 262.05
  L 656.64 131.75
  A 0.43 0.43 0.0 0 1 657.07 131.32
  L 1773.00 131.32
  Z"
/>
<path fill="#fcd20f" d="
  M 271.82 268.65
  C 240.77 237.88 209.93 206.74 179.02 176.01
  Q 178.92 175.91 179.02 175.80
  L 179.02 175.80
  Q 179.12 175.67 179.26 175.76
  Q 215.50 201.11 251.96 226.16
  Q 251.97 226.17 254.97 228.40
  Q 257.40 230.21 259.40 231.53
  Q 268.58 237.60 292.55 254.35
  Q 293.12 254.75 292.49 255.05
  Q 281.42 260.41 272.66 268.66
  Q 272.23 269.07 271.82 268.65
  Z"
/>
<path fill="#fcd20f" d="
  M 310.16 177.79
  L 309.24 183.19
  Q 309.27 180.35 310.16 177.79
  Z"
/>
<path fill="#fcd20f" d="
  M 476.28 185.99
  Q 473.79 189.33 471.38 192.81
  Q 436.85 242.66 402.32 292.56
  Q 401.94 293.10 401.65 292.51
  Q 396.29 281.53 387.83 272.48
  A 0.41 0.41 0.0 0 1 387.84 271.91
  L 479.75 179.98
  Q 481.23 178.50 480.09 180.25
  Q 476.69 185.45 476.28 185.99
  Z"
/>
<path fill="#fcd20f" d="
  M 408.54 218.38
  Q 407.08 219.97 405.05 220.75
  Q 406.40 219.02 408.54 218.38
  Z"
/>
<path fill="#fcd20f" d="
  M 501.68 249.03
  Q 507.92 244.43 514.41 241.09
  Q 522.01 237.18 529.89 236.38
  Q 530.06 236.36 530.09 236.53
  L 530.09 236.54
  Q 530.11 236.69 529.96 236.72
  Q 520.84 238.59 514.24 243.72
  C 506.84 249.47 501.32 257.26 495.22 264.35
  Q 484.59 276.70 472.14 285.31
  Q 457.30 295.58 439.98 302.77
  Q 439.48 302.98 438.96 302.88
  L 411.81 297.96
  Q 410.91 297.80 411.78 297.55
  Q 417.57 295.86 423.64 293.77
  Q 457.19 282.22 486.53 260.02
  Q 492.14 255.78 497.49 252.12
  Q 497.54 252.09 501.68 249.03
  Z"
/>
<path fill="#fcd20f" d="
  M 194.13 269.79
  C 188.94 268.58 183.96 267.35 178.76 266.48
  Q 163.66 263.95 149.26 261.74
  C 138.66 260.12 128.21 257.26 120.46 250.50
  Q 120.40 250.44 120.45 250.38
  L 120.45 250.37
  Q 120.53 250.27 120.64 250.34
  Q 132.39 258.03 146.50 256.52
  C 155.79 255.53 166.05 254.06 174.53 254.07
  C 193.74 254.09 213.64 259.23 230.93 266.79
  Q 231.35 266.98 231.61 267.35
  L 247.27 290.06
  Q 248.24 291.47 246.75 290.64
  Q 227.24 279.91 205.61 272.98
  Q 199.75 271.10 194.13 269.79
  Z"
/>
<path fill="#fcd20f" d="
  M 463.70 250.58
  Q 462.20 251.45 460.54 251.47
  Q 461.96 250.61 463.70 250.58
  Z"
/>
<path fill="#fcd20f" d="
  M 370.25 263.57
  Q 372.46 265.09 374.69 266.48
  Q 377.30 268.10 379.42 270.10
  Q 384.76 275.14 388.87 280.31
  C 412.55 310.09 410.80 352.23 385.41 380.35
  Q 372.50 394.64 354.13 401.19
  C 317.70 414.17 278.02 397.99 260.02 364.53
  Q 255.36 355.87 253.10 345.92
  C 245.55 312.73 259.55 279.97 288.50 262.09
  Q 297.20 256.71 306.92 254.02
  Q 326.40 248.61 346.50 253.15
  Q 359.31 256.05 370.25 263.57
  Z
  M 277.85 291.11
  Q 273.84 293.15 270.54 295.82
  Q 269.67 296.53 270.49 297.28
  C 272.03 298.67 274.07 298.51 275.78 297.59
  C 284.43 292.92 293.24 291.10 303.17 292.93
  C 308.64 293.94 313.01 296.66 317.07 300.36
  Q 317.80 301.02 318.73 301.15
  A 1.12 1.12 0.0 0 0 319.81 299.40
  C 316.20 294.22 309.47 290.06 303.75 286.88
  Q 300.04 284.81 297.15 284.99
  C 290.95 285.37 283.62 288.17 277.85 291.11
  Z
  M 349.21 289.07
  C 344.98 291.67 339.53 295.29 336.88 299.53
  Q 336.59 299.99 336.80 300.50
  Q 337.00 300.99 337.52 301.10
  Q 338.31 301.27 338.95 300.76
  C 341.84 298.42 344.64 296.07 348.11 294.61
  C 355.17 291.63 364.53 291.45 371.96 293.81
  Q 376.65 295.29 381.85 298.05
  A 3.33 3.33 0.0 0 0 385.19 297.91
  L 385.58 297.66
  Q 387.29 296.56 385.65 295.35
  Q 374.97 287.50 360.98 285.06
  C 356.75 284.33 352.74 286.89 349.21 289.07
  Z
  M 298.96 315.69
  C 302.90 313.20 306.69 309.44 306.25 304.52
  Q 306.19 303.80 306.82 304.16
  Q 310.23 306.13 313.29 309.22
  Q 314.94 310.90 314.56 308.57
  Q 313.43 301.76 305.80 300.33
  C 297.65 298.80 288.83 298.57 281.97 304.04
  Q 279.09 306.33 276.37 308.59
  Q 273.06 311.35 276.97 309.55
  Q 279.86 308.23 282.51 306.44
  Q 283.86 305.53 283.26 307.04
  Q 282.49 309.01 282.94 310.92
  Q 283.12 311.71 282.36 311.42
  Q 281.35 311.04 280.52 310.05
  A 0.06 0.05 48.6 0 0 280.44 310.04
  L 280.26 310.23
  Q 280.08 310.41 280.26 310.58
  Q 283.91 314.23 288.88 316.89
  Q 293.15 319.17 298.02 318.80
  Q 305.73 318.20 311.42 314.43
  A 1.84 1.80 0.6 0 0 311.88 313.99
  Q 313.13 312.23 312.23 311.38
  Q 310.54 309.78 308.68 311.18
  C 305.91 313.26 302.59 315.50 299.11 316.07
  Q 298.12 316.23 298.96 315.69
  Z
  M 373.61 311.26
  Q 374.22 309.17 373.34 306.85
  Q 373.02 306.01 373.82 306.43
  C 376.00 307.59 378.90 309.81 381.32 310.15
  Q 382.31 310.29 381.55 309.64
  Q 378.63 307.12 375.55 304.62
  C 369.33 299.56 363.14 299.05 355.52 299.65
  C 349.30 300.14 343.03 301.60 342.15 308.93
  Q 341.94 310.67 343.15 309.41
  Q 346.12 306.34 349.90 304.06
  A 0.38 0.38 0.0 0 1 350.47 304.42
  C 349.91 309.39 353.72 313.19 357.67 315.64
  Q 358.36 316.07 357.55 315.98
  C 354.04 315.57 350.80 313.24 348.03 311.22
  A 2.22 2.13 -20.8 0 0 347.16 310.85
  Q 344.76 310.42 344.32 311.54
  Q 343.56 313.46 345.32 314.56
  Q 351.00 318.12 358.90 318.90
  Q 362.84 319.29 366.28 317.62
  Q 372.22 314.73 376.54 310.55
  Q 376.57 310.52 376.54 310.49
  L 376.35 310.28
  A 0.24 0.23 -38.3 0 0 376.06 310.25
  L 374.07 311.60
  Q 373.38 312.06 373.61 311.26
  Z
  M 334.98 341.08
  C 335.94 346.74 328.01 345.89 324.76 345.42
  Q 321.19 344.92 321.58 341.22
  Q 321.67 340.37 321.07 340.99
  Q 318.95 343.18 316.02 342.35
  C 311.98 341.19 314.80 337.10 316.29 335.14
  Q 317.89 333.03 315.40 333.93
  C 310.61 335.65 312.29 343.90 306.75 344.90
  Q 301.84 345.78 299.02 350.48
  Q 298.39 351.52 299.44 350.91
  C 304.43 347.98 314.17 344.92 320.14 347.18
  C 322.64 348.13 324.76 349.75 327.55 349.95
  C 330.34 350.15 332.74 349.05 335.09 347.78
  C 341.14 344.54 351.51 347.70 356.88 350.72
  Q 358.36 351.55 357.45 350.11
  Q 354.63 345.69 349.60 344.80
  C 344.79 343.94 345.82 335.90 340.82 333.62
  A 0.61 0.61 0.0 0 0 339.98 334.00
  Q 339.91 334.24 339.97 334.48
  Q 340.04 334.75 340.21 334.95
  C 341.47 336.49 344.81 341.32 340.92 342.32
  Q 337.68 343.16 335.36 340.88
  Q 334.87 340.40 334.98 341.08
  Z
  M 353.50 366.01
  L 361.45 363.85
  Q 362.44 363.58 361.44 363.36
  C 359.24 362.88 357.04 362.81 354.86 362.14
  Q 349.47 360.48 344.16 358.75
  Q 339.57 357.24 333.93 358.69
  Q 330.88 359.48 328.35 359.38
  Q 325.52 359.28 322.55 358.57
  C 318.65 357.64 314.55 357.81 310.84 359.23
  Q 303.48 362.06 295.63 363.42
  Q 293.98 363.71 295.62 364.05
  Q 298.57 364.65 301.73 365.61
  Q 304.82 366.55 307.86 366.25
  Q 311.01 365.95 313.98 365.54
  C 319.86 364.73 325.98 365.16 331.94 365.10
  Q 335.37 365.07 338.79 365.36
  L 350.76 366.38
  Q 351.89 366.48 350.82 366.86
  Q 344.57 369.07 337.75 370.56
  Q 333.87 371.42 319.47 370.49
  Q 315.53 370.24 307.01 367.18
  Q 304.74 366.36 302.69 366.45
  Q 299.73 366.57 296.04 365.42
  Q 295.05 365.11 294.18 364.56
  Q 293.15 363.91 291.99 363.70
  Q 290.79 363.48 291.88 364.01
  Q 301.32 368.60 310.45 373.34
  C 313.92 375.14 317.45 376.15 321.29 376.44
  C 328.52 377.00 338.56 377.35 345.06 373.93
  Q 353.31 369.60 361.99 365.40
  Q 363.18 364.82 361.89 365.14
  C 359.72 365.68 355.60 366.94 353.50 366.42
  Q 352.71 366.22 353.50 366.01
  Z
  M 286.97 368.81
  Q 289.63 364.32 293.25 359.62
  Q 294.49 358.00 292.81 359.15
  C 290.36 360.82 285.68 365.69 286.88 368.80
  Q 286.92 368.89 286.97 368.81
  Z
  M 363.16 359.08
  L 369.41 367.99
  Q 370.37 369.37 369.99 367.73
  Q 368.73 362.35 363.39 358.84
  Q 362.64 358.35 363.16 359.08
  Z
  M 334.7400 384.3989
  A 6.36 1.10 -0.1 0 0 328.3781 383.3100
  A 6.36 1.10 -0.1 0 0 322.0200 384.4211
  A 6.36 1.10 -0.1 0 0 328.3819 385.5100
  A 6.36 1.10 -0.1 0 0 334.7400 384.3989
  Z"
/>
<path fill="#fcd20f" d="
  M 455.44 252.81
  Q 453.24 253.89 450.54 253.80
  L 455.44 252.81
  Z"
/>
<path fill="#7c3d00" d="
  M 277.85 291.11
  C 283.62 288.17 290.95 285.37 297.15 284.99
  Q 300.04 284.81 303.75 286.88
  C 309.47 290.06 316.20 294.22 319.81 299.40
  A 1.12 1.12 0.0 0 1 318.73 301.15
  Q 317.80 301.02 317.07 300.36
  C 313.01 296.66 308.64 293.94 303.17 292.93
  C 293.24 291.10 284.43 292.92 275.78 297.59
  C 274.07 298.51 272.03 298.67 270.49 297.28
  Q 269.67 296.53 270.54 295.82
  Q 273.84 293.15 277.85 291.11
  Z"
/>
<path fill="#7c3d00" d="
  M 349.21 289.07
  C 352.74 286.89 356.75 284.33 360.98 285.06
  Q 374.97 287.50 385.65 295.35
  Q 387.29 296.56 385.58 297.66
  L 385.19 297.91
  A 3.33 3.33 0.0 0 1 381.85 298.05
  Q 376.65 295.29 371.96 293.81
  C 364.53 291.45 355.17 291.63 348.11 294.61
  C 344.64 296.07 341.84 298.42 338.95 300.76
  Q 338.31 301.27 337.52 301.10
  Q 337.00 300.99 336.80 300.50
  Q 336.59 299.99 336.88 299.53
  C 339.53 295.29 344.98 291.67 349.21 289.07
  Z"
/>
<path fill="#7c3d00" d="
  M 299.11 316.07
  C 302.59 315.50 305.91 313.26 308.68 311.18
  Q 310.54 309.78 312.23 311.38
  Q 313.13 312.23 311.88 313.99
  A 1.84 1.80 0.6 0 1 311.42 314.43
  Q 305.73 318.20 298.02 318.80
  Q 293.15 319.17 288.88 316.89
  Q 283.91 314.23 280.26 310.58
  Q 280.08 310.41 280.26 310.23
  L 280.44 310.04
  A 0.06 0.05 48.6 0 1 280.52 310.05
  Q 281.35 311.04 282.36 311.42
  Q 283.12 311.71 282.94 310.92
  Q 282.49 309.01 283.26 307.04
  Q 283.86 305.53 282.51 306.44
  Q 279.86 308.23 276.97 309.55
  Q 273.06 311.35 276.37 308.59
  Q 279.09 306.33 281.97 304.04
  C 288.83 298.57 297.65 298.80 305.80 300.33
  Q 313.43 301.76 314.56 308.57
  Q 314.94 310.90 313.29 309.22
  Q 310.23 306.13 306.82 304.16
  Q 306.19 303.80 306.25 304.52
  C 306.69 309.44 302.90 313.20 298.96 315.69
  Q 298.12 316.23 299.11 316.07
  Z
  M 284.49 311.42
  C 284.83 313.74 289.26 314.88 291.12 315.39
  Q 291.87 315.59 291.35 315.01
  Q 286.71 309.78 289.69 304.19
  Q 290.07 303.46 289.29 303.70
  L 287.06 304.36
  A 2.14 2.14 0.0 0 0 285.85 305.28
  Q 284.02 308.18 284.49 311.42
  Z"
/>
<path fill="#7c3d00" d="
  M 374.07 311.60
  L 376.06 310.25
  A 0.24 0.23 -38.3 0 1 376.35 310.28
  L 376.54 310.49
  Q 376.57 310.52 376.54 310.55
  Q 372.22 314.73 366.28 317.62
  Q 362.84 319.29 358.90 318.90
  Q 351.00 318.12 345.32 314.56
  Q 343.56 313.46 344.32 311.54
  Q 344.76 310.42 347.16 310.85
  A 2.22 2.13 -20.8 0 1 348.03 311.22
  C 350.80 313.24 354.04 315.57 357.55 315.98
  Q 358.36 316.07 357.67 315.64
  C 353.72 313.19 349.91 309.39 350.47 304.42
  A 0.38 0.38 0.0 0 0 349.90 304.06
  Q 346.12 306.34 343.15 309.41
  Q 341.94 310.67 342.15 308.93
  C 343.03 301.60 349.30 300.14 355.52 299.65
  C 363.14 299.05 369.33 299.56 375.55 304.62
  Q 378.63 307.12 381.55 309.64
  Q 382.31 310.29 381.32 310.15
  C 378.90 309.81 376.00 307.59 373.82 306.43
  Q 373.02 306.01 373.34 306.85
  Q 374.22 309.17 373.61 311.26
  Q 373.38 312.06 374.07 311.60
  Z
  M 366.74 304.03
  C 369.38 307.32 368.14 311.74 365.50 314.82
  Q 364.87 315.55 365.80 315.30
  Q 368.88 314.46 371.30 313.02
  A 1.29 1.29 0.0 0 0 371.86 312.26
  Q 372.64 309.16 371.43 306.31
  Q 370.47 304.05 366.94 303.67
  Q 366.40 303.61 366.74 304.03
  Z"
/>
<path fill="#fcd20f" d="
  M 116.49 325.72
  L 250.70 301.34
  Q 251.36 301.22 251.15 301.86
  Q 247.03 313.90 246.76 325.84
  A 0.38 0.38 0.0 0 1 246.38 326.21
  L 116.53 326.21
  Q 113.84 326.21 116.49 325.72
  Z"
/>
<path fill="#fcd20f" d="
  M 365.50 314.82
  C 368.14 311.74 369.38 307.32 366.74 304.03
  Q 366.40 303.61 366.94 303.67
  Q 370.47 304.05 371.43 306.31
  Q 372.64 309.16 371.86 312.26
  A 1.29 1.29 0.0 0 1 371.30 313.02
  Q 368.88 314.46 365.80 315.30
  Q 364.87 315.55 365.50 314.82
  Z"
/>
<path fill="#fcd20f" d="
  M 291.12 315.39
  C 289.26 314.88 284.83 313.74 284.49 311.42
  Q 284.02 308.18 285.85 305.28
  A 2.14 2.14 0.0 0 1 287.06 304.36
  L 289.29 303.70
  Q 290.07 303.46 289.69 304.19
  Q 286.71 309.78 291.35 315.01
  Q 291.87 315.59 291.12 315.39
  Z"
/>
<path fill="#fcd20f" d="
  M 461.30 307.05
  Q 464.25 306.92 466.95 307.94
  L 461.30 307.05
  Z"
/>
<path fill="#fcd20f" d="
  M 472.55 309.07
  Q 475.07 309.00 477.20 309.80
  L 472.55 309.07
  Z"
/>
<path fill="#fcd20f" d="
  M 445.54 347.94
  Q 445.38 348.03 445.28 348.14
  Q 445.23 348.19 445.17 348.20
  Q 425.44 351.85 406.02 355.34
  Q 405.28 355.47 405.53 354.76
  Q 409.47 343.54 409.86 331.12
  Q 409.88 330.49 410.51 330.49
  L 540.44 330.49
  Q 540.57 330.49 540.58 330.62
  L 540.61 330.93
  Q 540.62 330.98 540.56 330.99
  Q 476.67 342.41 450.11 347.35
  Q 447.36 347.86 445.80 347.87
  Q 445.66 347.88 445.54 347.94
  Z"
/>
<path fill="#7c3d00" d="
  M 324.76 345.42
  C 328.01 345.89 335.94 346.74 334.98 341.08
  Q 334.87 340.40 335.36 340.88
  Q 337.68 343.16 340.92 342.32
  C 344.81 341.32 341.47 336.49 340.21 334.95
  Q 340.04 334.75 339.97 334.48
  Q 339.91 334.24 339.98 334.00
  A 0.61 0.61 0.0 0 1 340.82 333.62
  C 345.82 335.90 344.79 343.94 349.60 344.80
  Q 354.63 345.69 357.45 350.11
  Q 358.36 351.55 356.88 350.72
  C 351.51 347.70 341.14 344.54 335.09 347.78
  C 332.74 349.05 330.34 350.15 327.55 349.95
  C 324.76 349.75 322.64 348.13 320.14 347.18
  C 314.17 344.92 304.43 347.98 299.44 350.91
  Q 298.39 351.52 299.02 350.48
  Q 301.84 345.78 306.75 344.90
  C 312.29 343.90 310.61 335.65 315.40 333.93
  Q 317.89 333.03 316.29 335.14
  C 314.80 337.10 311.98 341.19 316.02 342.35
  Q 318.95 343.18 321.07 340.99
  Q 321.67 340.37 321.58 341.22
  Q 321.19 344.92 324.76 345.42
  Z"
/>
<path fill="#fcd20f" d="
  M 183.68 371.09
  Q 197.83 361.34 215.41 353.95
  A 3.69 3.68 38.6 0 1 217.48 353.72
  L 244.98 358.70
  Q 246.19 358.92 245.00 359.24
  C 241.87 360.05 238.75 360.96 235.67 362.00
  Q 229.59 364.05 224.05 366.19
  Q 201.88 374.73 181.47 388.65
  Q 170.16 396.37 151.89 409.81
  Q 141.93 417.14 129.42 420.11
  C 128.82 420.25 127.97 420.16 127.35 420.15
  Q 126.19 420.13 127.32 419.87
  C 137.94 417.47 145.53 411.12 152.25 402.51
  Q 158.23 394.86 163.88 388.48
  Q 172.35 378.91 183.68 371.09
  Z"
/>
<path fill="#7c3d00" d="
  M 353.50 366.42
  C 355.60 366.94 359.72 365.68 361.89 365.14
  Q 363.18 364.82 361.99 365.40
  Q 353.31 369.60 345.06 373.93
  C 338.56 377.35 328.52 377.00 321.29 376.44
  C 317.45 376.15 313.92 375.14 310.45 373.34
  Q 301.32 368.60 291.88 364.01
  Q 290.79 363.48 291.99 363.70
  Q 293.15 363.91 294.18 364.56
  Q 295.05 365.11 296.04 365.42
  Q 299.73 366.57 302.69 366.45
  Q 304.74 366.36 307.01 367.18
  Q 315.53 370.24 319.47 370.49
  Q 333.87 371.42 337.75 370.56
  Q 344.57 369.07 350.82 366.86
  Q 351.89 366.48 350.76 366.38
  L 338.79 365.36
  Q 335.37 365.07 331.94 365.10
  C 325.98 365.16 319.86 364.73 313.98 365.54
  Q 311.01 365.95 307.86 366.25
  Q 304.82 366.55 301.73 365.61
  Q 298.57 364.65 295.62 364.05
  Q 293.98 363.71 295.63 363.42
  Q 303.48 362.06 310.84 359.23
  C 314.55 357.81 318.65 357.64 322.55 358.57
  Q 325.52 359.28 328.35 359.38
  Q 330.88 359.48 333.93 358.69
  Q 339.57 357.24 344.16 358.75
  Q 349.47 360.48 354.86 362.14
  C 357.04 362.81 359.24 362.88 361.44 363.36
  Q 362.44 363.58 361.45 363.85
  L 353.50 366.01
  Q 352.71 366.22 353.50 366.42
  Z"
/>
<path fill="#7c3d00" d="
  M 286.97 368.81
  Q 286.92 368.89 286.88 368.80
  C 285.68 365.69 290.36 360.82 292.81 359.15
  Q 294.49 358.00 293.25 359.62
  Q 289.63 364.32 286.97 368.81
  Z"
/>
<path fill="#7c3d00" d="
  M 369.41 367.99
  L 363.16 359.08
  Q 362.64 358.35 363.39 358.84
  Q 368.73 362.35 369.99 367.73
  Q 370.37 369.37 369.41 367.99
  Z"
/>
<path fill="#fcd20f" d="
  M 176.27 476.86
  L 254.34 364.12
  Q 254.74 363.54 255.05 364.18
  Q 260.31 375.06 268.71 384.04
  Q 269.14 384.50 268.70 384.94
  Q 221.63 431.85 176.69 477.01
  Q 176.58 477.12 176.42 477.12
  Q 176.08 477.14 176.27 476.86
  Z"
/>
<path fill="#fcd20f" d="
  M 439.10 379.47
  Q 461.52 387.77 480.75 390.71
  Q 505.65 394.52 512.47 395.82
  C 520.63 397.38 528.76 400.16 535.28 405.44
  Q 536.35 406.31 535.16 405.61
  C 523.76 398.98 513.87 399.10 500.22 400.86
  C 490.66 402.09 481.22 402.48 471.42 401.76
  C 456.02 400.63 439.96 395.83 425.79 389.86
  A 1.70 1.70 0.0 0 1 425.06 389.27
  L 408.78 365.77
  Q 408.17 364.90 409.09 365.43
  C 414.98 368.82 421.26 371.93 427.26 374.62
  Q 433.23 377.30 439.10 379.47
  Z"
/>
<ellipse fill="#7c3d00" cx="0.00" cy="0.00" transform="translate(328.38,384.41) rotate(-0.1)" rx="6.36" ry="1.10"/>
<path fill="#fcd20f" d="
  M 384.78 387.98
  L 475.57 478.64
  Q 478.32 481.39 475.12 479.17
  L 363.88 402.16
  A 0.20 0.20 0.0 0 1 363.91 401.81
  Q 375.14 396.29 384.01 387.97
  Q 384.40 387.60 384.78 387.98
  Z"
/>
<path fill="#0035aa" d="
  M 1773.00 394.00
  L 1773.00 525.34
  L 657.15 525.27
  Q 656.65 525.27 656.65 524.76
  L 656.65 394.32
  A 0.32 0.31 90.0 0 1 656.96 394.00
  L 1773.00 394.00
  Z"
/>
<path fill="#fcd20f" d="
  M 309.79 452.04
  Q 309.72 451.96 309.70 451.86
  Q 305.53 429.50 301.38 406.00
  Q 301.26 405.32 301.91 405.54
  Q 313.26 409.46 325.54 409.87
  Q 326.20 409.89 326.20 410.55
  Q 326.22 477.17 326.17 541.08
  Q 326.17 541.31 325.94 541.32
  L 325.93 541.32
  Q 325.71 541.34 325.69 541.11
  Q 325.37 538.31 324.89 535.67
  Q 317.44 494.69 309.97 453.66
  Q 309.85 453.00 309.87 452.27
  Q 309.88 452.14 309.79 452.04
  Z"
/>
<path fill="#fcd20f" d="
  M 271.50 422.29
  Q 280.98 415.58 290.89 408.74
  Q 291.71 408.17 291.22 409.04
  Q 273.91 439.53 267.07 474.78
  Q 266.31 478.72 265.61 482.60
  Q 264.86 486.72 264.33 490.65
  Q 262.55 503.93 260.16 515.38
  Q 257.62 527.56 250.98 535.75
  Q 249.78 537.23 250.73 535.58
  C 255.39 527.55 257.52 519.56 256.45 509.93
  Q 255.44 500.79 254.59 492.80
  C 252.20 470.36 257.71 447.02 266.57 426.41
  Q 267.32 424.68 269.08 423.77
  Q 270.30 423.14 271.50 422.29
  Z"
/>
<path fill="#fcd20f" d="
  M 384.00 468.18
  C 391.75 480.66 400.86 492.16 409.25 504.06
  C 415.04 512.27 418.97 520.11 420.41 529.50
  Q 420.46 529.83 420.38 530.17
  Q 420.26 530.72 420.14 530.17
  Q 416.87 515.72 404.96 506.20
  Q 396.98 499.82 388.72 492.56
  C 373.29 478.98 362.02 460.01 353.94 440.54
  A 2.76 2.75 38.9 0 1 353.77 438.97
  L 358.73 411.78
  Q 358.93 410.71 359.22 411.76
  Q 367.51 441.64 384.00 468.18
  Z"
/>
<path fill="#fcd20f" d="
  M 548.02 411.79
  Q 548.97 412.89 549.21 414.94
  Q 548.15 413.42 548.02 411.79
  Z"
/>
<path fill="#fcd20f" d="
  M 278.71 503.05
  Q 278.64 504.92 277.79 506.46
  Q 277.84 504.73 278.71 503.05
  Z"
/>
<path fill="#fcd20f" d="
  M 429.65 518.78
  Q 429.64 522.40 429.65 526.00
  Q 429.66 528.15 428.70 530.28
  L 429.65 518.78
  Z"
/>
<path fill="#fcd20f" d="
  M 427.69 534.31
  Q 427.55 536.20 426.52 538.20
  Q 426.52 536.13 427.69 534.31
  Z"
/>
<path fill="#fcd20f" d="
  M 425.69 540.23
  Q 425.47 541.91 424.24 543.75
  Q 424.49 541.88 425.69 540.23
  Z"
/>
<path fill="#fcd20f" d="
  M 332.75 554.31
  Q 332.73 557.25 331.81 559.95
  L 332.75 554.31
  Z"
/>
<path fill="#0035aa" d="
  M 1773.00 656.67
  L 1773.00 788.00
  L 0.00 788.00
  L 0.00 656.67
  L 1773.00 656.67
  Z"
/>
<path fill="#ffffff" d="
  M 0.00 788.00
  L 1773.00 788.00
  L 1773.00 919.32
  L 0.00 919.43
  L 0.00 788.00
  Z"
/>
<path fill="#0035aa" d="
  M 1773.00 919.32
  L 1773.00 1050.67
  L 0.00 1050.67
  L 0.00 919.43
  L 1773.00 919.32
  Z"
/>
<path fill="#ffffff" d="
  M 0.00 1050.67
  L 1773.00 1050.67
  L 1773.00 1182.00
  L 0.00 1182.00
  L 0.00 1050.67
  Z"
/>
</svg>
