<?xml version="1.0" encoding="utf-8"?>
<!-- Generator: Adobe Illustrator 28.3.0, SVG Export Plug-In . SVG Version: 6.00 Build 0)  -->
<svg version="1.1" id="Capa_1" xmlns="http://www.w3.org/2000/svg" xmlns:xlink="http://www.w3.org/1999/xlink" x="0px" y="0px"
	 viewBox="0 0 256 256" style="enable-background:new 0 0 256 256;" xml:space="preserve">
<style type="text/css">
	.st0{fill:#131623;}
	.st1{fill:#FFFFFF;}
</style>
<path class="st0" d="M224,253H32c-16,0-29-13-29-29V32C3,16,16,3,32,3H224c16,0,29,13,29,29V224C253,240,240,253,224,253z"/>
<g>
	<path class="st1" d="M213,107.1c0,4.1,0,8.1,0,12.2c0,1.6-0.2,3.1-0.2,4.7c0,4.6,0.1,9.2,0.1,13.9c0,3.1-0.1,6.3-0.3,9.4
		c-0.8,10.3-4.2,19.7-10.5,27.9c-4.5,5.9-10.1,10.6-16.5,14.3c-7.5,4.3-15.1,8.5-22.7,12.7c-8,4.4-15.9,8.7-23.9,13
		c-2.7,1.5-5.6,2.5-8.7,2.8c-3.7,0.4-7.2-0.1-10.6-1.6c-2.3-1-4.5-2.2-6.7-3.4c-9.2-5-18.3-9.9-27.5-15c-5.1-2.8-10.2-5.7-15.3-8.6
		c-4.6-2.7-8.8-5.9-12.5-9.8c-7-7.2-11.5-15.6-13.4-25.4c-0.7-3.4-1-6.9-1.1-10.4c-0.1-4.6-0.2-9.3-0.3-13.9
		c-0.1-5.3-0.1-10.6-0.1-15.9c0-4.1,0.1-8.1,0.1-12.2c0-3.2,0-6.3,0.1-9.5c0.2-6.4,3-11.4,8.2-15c2.1-1.4,4.3-2.6,6.6-3.9
		c12.9-7.1,25.7-14.1,38.6-21.2c6.9-3.8,13.8-7.6,20.7-11.3c2.7-1.5,5.5-2.4,8.6-2.8c4.1-0.4,8,0.3,11.7,2.1c3,1.5,5.9,3.1,8.8,4.7
		c15.1,8.3,30.1,16.5,45.2,24.8c3.9,2.1,7.8,4.2,11.6,6.5c3.7,2.2,6.5,5.2,8.2,9.1c1.1,2.5,1.6,5.1,1.6,7.8
		C213,97.7,213,102.4,213,107.1C213,107.1,213,107.1,213,107.1z M52.1,120.4C52.1,120.4,52.1,120.4,52.1,120.4c0,6.5,0,13,0,19.6
		c0,4.4,0.5,8.8,1.6,13.1c2,8.3,6,15.4,12,21.5c3.6,3.6,7.6,6.6,12,9c13.7,7.6,27.4,15.1,41.2,22.6c5.4,3,11,3.4,16.7,0.8
		c1.8-0.8,3.6-1.9,5.3-2.8c12.2-6.7,24.4-13.4,36.5-20.1c5.2-2.8,9.9-6.2,14-10.5c6.7-7.1,10.6-15.5,12-25.1
		c0.5-3.5,0.7-6.9,0.7-10.4c0-7.3,0-14.5-0.1-21.8c0-6.7,0-13.4,0-20.1c0-0.9-0.1-1.9-0.2-2.8c-0.8-4.5-3.1-8.1-6.9-10.5
		c-2.1-1.4-4.4-2.5-6.6-3.8c-17.8-9.8-35.6-19.5-53.3-29.3c-2.5-1.4-5.1-2.3-8-2.4c-3.1-0.2-6.1,0.5-8.9,2c-4.6,2.5-9.2,5-13.8,7.5
		C92,64.6,77.7,72.5,63.4,80.3c-1.9,1-3.8,2.1-5.5,3.5c-3.4,2.8-5.3,6.4-5.7,10.8c-0.1,1.5-0.1,3-0.1,4.4
		C52.1,106.1,52.1,113.2,52.1,120.4z"/>
	<path class="st1" d="M67.7,133.6c8,0,15.9,0,23.9,0c0-0.2,0-0.4,0-0.5c0-5.3,0-10.7,0-16c0-1.5-0.1-3.1,0.2-4.6
		c0.6-3.2,2.3-5.7,5.2-7.3c4.8-2.7,9.6-5.4,14.4-8c3.5-2,7.1-3.9,10.7-5.8c4-2.1,7.9-2.2,11.9,0c8.3,4.6,16.6,9.1,24.9,13.7
		c3.5,1.9,5.3,4.9,5.6,8.8c0,0.7,0.1,1.3,0.1,2c0,5.7,0,11.4,0,17.2c0,0.2,0,0.4,0,0.6c7.9,0,15.7,0,23.6,0c0.1,1.1,0.2,2.2,0.3,3.2
		c0,2,0.1,4.1,0,6.1c-0.5,8.1-3.2,15.3-8.9,21.2c-3,3.1-6.4,5.5-10.1,7.6c-9,5-18.1,9.9-27.1,14.9c-2.2,1.2-4.4,2.5-6.7,3.5
		c-2.8,1.3-5.7,1.8-8.7,1.6c-3-0.2-5.8-1.1-8.5-2.6c-10.8-5.9-21.5-11.8-32.3-17.8c-4.2-2.3-7.9-5.2-11-8.9c-3.3-4-5.5-8.6-6.6-13.7
		c-0.6-2.7-0.8-5.4-0.8-8.1c0-2.1,0-4.3,0-6.4C67.7,134,67.7,133.8,67.7,133.6z M155.3,142.3c0-0.2,0-0.4,0-0.6c0-7.2,0-14.5,0-21.7
		c0-0.2,0-0.4,0-0.5c0-1,0-2.1-0.1-3.1c-0.3-2.4-1.7-4.1-3.7-5.2c-6.5-3.6-13.1-7.2-19.7-10.8c-2.5-1.4-5.1-1.4-7.6,0
		c-2.5,1.4-5,2.7-7.5,4.1c-4,2.2-8,4.4-12,6.6c-1.9,1.1-3.3,2.5-3.7,4.7c-0.2,1-0.2,2-0.2,3c0,7.6,0,15.3,0,22.9c0,0.2,0,0.3,0,0.6
		c-7.9,0-15.8,0-23.8,0c0,0.7,0,1.3,0,2c0.3,2.9,1,5.7,2.3,8.4c2.1,4.3,5.4,7.6,9.6,9.9c11.1,6.1,22.2,12.2,33.3,18.3
		c1.7,0.9,3.5,1.5,5.4,1.5c2.3,0.1,4.5-0.6,6.5-1.7c10.7-5.9,21.3-11.8,32-17.5c6.3-3.4,10.3-8.5,12.3-15.2c0.5-1.8,0.7-3.7,0.5-5.6
		C171.1,142.3,163.2,142.3,155.3,142.3z"/>
	<path class="st1" d="M188.3,122.8c-3,0-6.1,0-9.1,0c0-0.2,0-0.4,0-0.6c0-5.1,0-10.1,0-15.2c0-2.7-0.7-5.1-2.4-7.2
		c-1-1.2-2.1-2.1-3.4-2.9c-10.4-5.7-20.8-11.4-31.2-17.1c-2.7-1.5-5.5-3-8.3-4.5c-3.9-2.1-7.8-2.1-11.6,0
		c-13,7.1-26.1,14.2-39.1,21.4c-2.9,1.6-5.1,3.9-5.9,7.2c-0.2,0.9-0.3,1.8-0.4,2.7c0,5.2,0,10.4,0,15.6c0,0.2,0,0.4,0,0.6
		c-0.2,0-0.3,0-0.4,0c-2.7,0-5.4,0-8.1,0c-0.5,0-0.6-0.1-0.6-0.7c0-5.3-0.1-10.6,0-15.9c0-2,0.1-4,0.4-5.9c0.7-3.8,2.8-6.7,6-8.8
		c1.9-1.3,4-2.4,6-3.5c13.1-7.2,26.2-14.3,39.3-21.5c2.6-1.4,5.4-2.3,8.5-2.3c2.9,0,5.7,0.7,8.3,2.1c14.7,8,29.4,16.1,44,24.1
		c2.9,1.6,5.3,3.8,6.7,6.8c1,2,1.3,4.1,1.3,6.3c0,4,0.1,8.1,0.1,12.1c0,2.3,0,4.5-0.1,6.8C188.3,122.6,188.3,122.7,188.3,122.8z"/>
	<path class="st1" d="M143.5,141.2c0,6.1,0,12.1,0,18.2c0,2.2-0.9,3.8-2.8,4.9c-2.6,1.5-5.3,2.9-8,4.3c-3.3,1.7-6.5,1.5-9.7-0.3
		c-2.4-1.3-4.8-2.6-7.2-3.9c-2.1-1.1-3.1-2.8-3.1-5.2c0-12,0-24.1,0-36.1c0-2.3,1-4,3-5.1c2.4-1.3,4.9-2.7,7.4-4
		c3.4-1.8,6.7-1.8,10.1,0c2.6,1.4,5.2,2.8,7.7,4.3c1.8,1,2.7,2.6,2.7,4.6C143.4,128.9,143.5,135,143.5,141.2z M134.1,141.2
		C134.2,141.2,134.2,141.2,134.1,141.2c0-5,0-9.9,0-14.9c0-0.8-0.3-1.6-1-2c-0.7-0.5-1.4-0.9-2.1-1.3c-1-0.5-2.1-0.8-3.3-0.7
		c-1.9,0.1-3.6,0.9-5,2.2c-0.5,0.4-0.8,0.9-0.8,1.6c0,3.1-0.1,6.2-0.1,9.4c0,4.5,0,9,0,13.6c0,2.4,0,4.9,0,7.3
		c0,0.5,0.2,0.9,0.4,1.3c0.2,0.4,0.6,0.6,1,0.9c1.3,0.9,2.8,1.6,4.5,1.6c2.2,0.1,4-0.8,5.6-2.2c0.5-0.4,0.8-1.1,0.8-1.8
		c0-1,0-2,0-2.9C134.1,149.2,134.1,145.2,134.1,141.2z"/>
</g>
</svg>
