<?xml version="1.0" encoding="utf-8"?>
<!-- Generator: Adobe Illustrator 28.3.0, SVG Export Plug-In . SVG Version: 6.00 Build 0)  -->
<svg version="1.1" id="Capa_1" xmlns="http://www.w3.org/2000/svg" xmlns:xlink="http://www.w3.org/1999/xlink" x="0px" y="0px"
	 viewBox="0 0 3009.2 1005.2" style="enable-background:new 0 0 3009.2 1005.2;" xml:space="preserve">
<style type="text/css">
	.st0{fill:#FFFFFF;}
	.st1{font-family:'HelveticaNeue-Medium';}
	.st2{font-size:573.1768px;}
	.st3{letter-spacing:-40;}
	.st4{fill:#C1C1C1;}
	.st5{font-family:'HelveticaNeue-Light';}
	.st6{font-size:325.1772px;}
	.st7{letter-spacing:-22;}
</style>
<g>
	<path class="st0" d="M0,451.4c0-34-0.1-68,0-102c0-16.2,0.1-32.3,0.7-48.5c1.5-36.3,18.5-64.2,48.4-83.9
		C65,206.7,82,198,98.6,188.9C203.1,131.6,307.6,74.3,412,17.1c41.3-22.6,82.6-22.8,123.9-0.2c116.9,64,233.8,128.1,350.6,192.3
		c26.2,14.4,46.1,34.3,55.6,63.3c4.2,12.8,5.9,25.9,5.9,39.3c0,47,0,94,0,141c0,42.1,0.1,84.2-0.4,126.2
		c-0.6,55.6-11.8,108.7-40.4,157.2c-26,44-61.5,78.8-105,104.8c-44,26.2-89.1,50.7-134,75.4c-43.7,24.1-87.7,47.7-131.6,71.6
		c-40.9,22.3-82.1,23.2-123.1,0.9c-85.9-46.8-171.8-93.7-257.1-141.6c-48-26.9-87.6-63.3-115.9-111.2
		C18.4,698.7,5.2,658.1,3.1,614.7 M898.3,458c-0.2,0-0.3,0-0.5,0c0-44.5,0.2-89-0.1-133.5c-0.1-22.8-7.3-43.1-22.9-60.2
		c-9.9-10.9-22.3-18.2-35.1-25.2c-105.5-57.8-211-115.7-316.5-173.5c-32.1-17.6-64.7-18.3-96.9-0.7
		c-108.2,59-216.3,118.4-324.4,177.7c-11.2,6.1-21.3,13.7-29.7,23.3C57,283.4,50.4,304.1,50.4,327c0,83.3-0.1,166.6,0.4,249.9
		c0.3,46,11.4,89.6,33.8,130c25.6,46,63.1,80.1,108.7,105.4c76.2,42.3,152.8,84.1,229.2,126.1c34.6,19,69.2,18.8,103.8-0.3
		c59.5-32.7,119.2-65,178.6-98c27-15,54.4-29.7,79.9-47.3c58.1-40,94.3-95.2,107.7-164.9c5.4-28,5.6-56.3,5.9-84.6
		C898.5,515,898.3,486.5,898.3,458z"/>
	<path class="st0" d="M137.6,533.7c44.5,0,88.5,0,133.2,0c0-2,0-3.8,0-5.5c0-32.7,0.1-65.3,0-98c-0.1-25.8,10.9-45.1,33.6-57.5
		c45.1-24.7,90.2-49.5,135.2-74.3c22.6-12.5,45.2-12.8,68-0.2c46.2,25.5,92.5,50.7,138.7,76.2c20.9,11.5,30.7,29.9,30.9,53.4
		c0.2,33,0.1,66,0.1,99c0,2,0,4,0,6.6c44,0,87.7,0,132.2,0c0.6,9.8,1.4,19.1,1.7,28.3c1.1,38.5-5.3,75.3-24.9,109
		c-18.3,31.6-44.7,54.9-76.3,72.4c-60.5,33.6-121.2,67-182,100.1c-36.2,19.7-72.6,19.5-108.7-0.4c-59.5-32.7-119-65.4-178.5-98.2
		c-31.1-17.2-57.7-39.4-76.6-70c-16.5-26.6-24.9-55.8-26.4-87c-0.8-16.6-0.4-33.3-0.6-50C137.3,536.6,137.5,535.5,137.6,533.7z
		 M190.1,582.4c-0.4,1.8-0.7,3.3-0.9,4.7c-0.1,0.8,0,1.7,0,2.5c3.8,47.4,26.1,83.2,67.8,106.3c61,33.8,122.2,67.3,183.2,100.9
		c22.7,12.5,45.3,12.3,68.1-0.2c60.1-33,120.1-66.1,180.4-98.9c31.7-17.2,52.9-43,64.7-76.8c4.3-12.3,6.6-25,5-38.8
		c-44.2,0-88.1,0-132.3,0c0-2.6,0-4.6,0-6.6c0-43.7-0.1-87.3,0.1-131c0.1-16.2-6.7-28.4-20.7-36.1c-36.8-20.4-73.8-40.6-110.8-60.7
		c-14-7.6-28-7.2-42,0.4c-36,19.8-72.1,39.6-108.1,59.3c-15.2,8.3-22.6,20.8-22.5,38.2c0.1,43.5,0,87,0,130.5c0,2,0,3.9,0,6.3
		C277.7,582.4,234,582.4,190.1,582.4z"/>
	<path class="st0" d="M810.1,473.4c-17,0-33.4,0-50.7,0c0-2,0-3.9,0-5.9c0-26-0.4-52,0.1-78c0.5-28.9-11.6-49.4-37.1-63.3
		c-72-39-143.6-78.6-215.4-117.9c-22.1-12.1-44.3-11.6-66.3,0.3c-37.3,20.2-74.5,40.5-111.7,60.9c-34.6,18.9-69.1,38.1-103.7,57
		c-24.3,13.3-36.6,33.3-36.3,61.3c0.4,26.8,0.1,53.7,0.1,80.5c0,1.5,0,3,0,5.2c-2.6,0-5.1,0-7.5,0c-12.8,0-25.7-0.1-38.5,0.1
		c-4,0.1-5.2-1.4-5.2-5.2c0.1-35.1-0.3-70.3,0.4-105.4c0.6-29.9,15.1-52.5,40.6-67.4c26.5-15.6,53.7-30.1,80.7-44.9
		c56.2-30.8,112.4-61.6,168.7-92c30.4-16.4,61.4-16.6,91.7-0.1c82.3,44.8,164.4,89.9,246.5,135c21.5,11.8,37,29,41.8,53.7
		c2.1,10.7,2.4,21.8,2.5,32.8c0.2,30.1-0.1,60.3-0.2,90.4C810.3,471.3,810.2,472.1,810.1,473.4z"/>
	<path class="st0" d="M560,576.2c0,33.6-0.1,67.3,0.1,100.9c0.1,13-5.5,22.3-16.8,28.4c-14.9,8.1-29.8,16.3-44.8,24.1
		c-16,8.3-32.4,8.4-48.4,0.1c-15.5-8-30.8-16.4-46.1-24.9c-10.7-5.9-15.9-15.3-15.9-27.5c0-10.8,0.3-21.6,0.3-32.5
		c0-19.3-0.3-38.6-0.3-57.9c0-27.1,0.2-54.3,0.3-81.4c0-10.3-0.3-20.6-0.3-31c0-11.9,4.9-21.3,15.5-27.2
		c14.7-8.2,29.3-16.4,44.2-24.2c18.2-9.6,36.5-9,54.4,0.7c13.9,7.5,27.6,15.3,41.5,22.9c11.3,6.2,16.6,15.5,16.5,28.5
		C559.8,508.9,560,542.6,560,576.2z M508.3,576.2c0-27.1,0-54.3,0-81.4c0-4.9-0.9-9.1-4.7-12.6c-16.9-15.6-41.7-15.6-58.4,0.1
		c-3.4,3.2-5,6.8-5,11.5c0.1,8.7-0.3,17.3-0.3,26c0.1,46.6,0.2,93.2,0.3,139.9c0,4.5,1.7,8.1,5.1,10.9c17,14.2,37.4,14.8,55.1,1.8
		c5.4-4,7.9-8.8,7.9-15.6C508.2,629.8,508.3,603,508.3,576.2z"/>
</g>
<text transform="matrix(1 0 0 1 1054.7391 693.0449)" class="st0 st1 st2 st3">TG</text>
<text transform="matrix(1 0 0 1 1833.2147 691.7939)" class="st4 st5 st6 st7">GROUP</text>
</svg>
